<?xml version="1.0" encoding="utf-8"?>
<!-- Generator: Adobe Illustrator 22.0.1, SVG Export Plug-In . SVG Version: 6.00 Build 0)  -->
<svg version="1.1" id="Layer_1" xmlns="http://www.w3.org/2000/svg" xmlns:xlink="http://www.w3.org/1999/xlink" x="0px" y="0px"
	 viewBox="0 0 338.6 138.1" opacity=".4" style="enable-background:new 0 0 338.6 138.1;" xml:space="preserve">
<style type="text/css">
	.st0{fill:#E3EEFE;}
	.st1{fill:#B0CDFD;}
</style>
<g>
	<g id="triangle36_112_">
		<path class="st0" d="M109.8,82.2L109.8,82.2l-11.7-0.7l17.9-6.2L109.8,82.2z M99,81.4l10.8,0.6l5.7-6.3L99,81.4z"/>
	</g>
	<g id="triangle36_111_">
		<path class="st0" d="M98.4,81.6l0.1-0.2l13.3-21.3l4,15.4l-0.1,0L98.4,81.6z M111.7,60.5l-13,20.8l16.9-5.8L111.7,60.5z"/>
	</g>
	<g id="triangle36_110_">
		<path class="st0" d="M87.3,97.5l0-0.2l-6-23.9l17.4,8l-0.1,0.1L87.3,97.5z M81.5,73.7l5.9,23.4l11.1-15.6L81.5,73.7z"/>
	</g>
	<g id="triangle36_109_">
		<path class="st0" d="M87.5,97.5l-0.2-0.1L71.4,85.4l0.1-0.1l10-12l0,0.2L87.5,97.5z M71.6,85.4l15.6,11.7l-5.8-23.4L71.6,85.4z"/>
	</g>
	<g id="triangle36_108_">
		<polygon class="st0" points="176.4,105.9 174.4,73.9 164.7,101.3 164.5,101.2 174.5,73.1 176.5,105.8 		"/>
	</g>
	<g id="triangle36_107_">
		<polygon class="st0" points="70.3,116.4 70.1,116.4 71.4,85 81.5,111.1 81.3,111.2 71.6,85.8 		"/>
	</g>
	<g id="triangle36_106_">
		<polygon class="st0" points="81.3,111.2 71.3,85.2 87.4,97.2 87.3,97.3 71.7,85.6 81.5,111.1 		"/>
	</g>
	<g id="triangle36_105_">
		<path class="st0" d="M109.9,91.5l-0.1-0.1L98.3,81.3l11.5,0.7V91.5z M98.8,81.5l10.9,9.6v-9L98.8,81.5z"/>
	</g>
	<g id="triangle36_104_">
		<path class="st0" d="M214.9,73.6h-40.6l0.1-0.1l22.5-22.5L197,51L214.9,73.6z M174.7,73.4h39.9l-17.7-22.2L174.7,73.4z"/>
	</g>
	<g id="triangle36_103_">
		<polygon class="st0" points="70.3,116.4 70.1,116.4 71.4,85.6 48.5,108.6 48.3,108.4 71.6,85.2 		"/>
	</g>
	<g id="triangle36_102_">
		
			<rect x="43.6" y="96.9" transform="matrix(0.7071 -0.7071 0.7071 0.7071 -50.9873 70.7885)" class="st0" width="32.7" height="0.2"/>
	</g>
	<g id="triangle36_101_">
		<polygon class="st0" points="71.7,85.6 71.5,85.5 31.2,70.3 31.3,70.1 71.3,85.2 52.3,57.7 52.4,57.6 		"/>
	</g>
	<g id="triangle36_100_">
		<polygon class="st0" points="133,99.3 132.8,99.2 138.1,75 125,82.8 124.9,82.7 138.3,74.7 138.3,74.8 		"/>
	</g>
	<g id="triangle36_99_">
		<polygon class="st0" points="150,101.3 138.2,75.1 133,99.3 132.8,99.2 138.1,74.6 138.2,74.8 150.1,101.2 		"/>
	</g>
	<g id="triangle36_98_">
		<path class="st0" d="M282.1,93.4L282.1,93.4l-28.8-14.7l0.4,0l39.1,2L282.1,93.4z M254.1,78.9l28,14.3l10.4-12.4L254.1,78.9z"/>
	</g>
	<g id="triangle36_97_">
		<path class="st0" d="M150.1,101.4l-0.1-0.2L138,74.8l0.1,0l24.6-1.3l-0.1,0.1L150.1,101.4z M138.3,74.9l11.8,26.1l12.4-27.4
			L138.3,74.9z"/>
	</g>
	<g id="triangle36_96_">
		<polygon class="st0" points="150.1,101.3 150,101.2 162.7,73.2 164.7,101.2 164.5,101.2 162.5,73.8 		"/>
	</g>
	<g id="triangle36_95_">
		<path class="st0" d="M164.5,101.6l0-0.4l-2-27.8h12.1l0,0.1L164.5,101.6z M162.7,73.6l1.9,27.2l9.7-27.2H162.7z"/>
	</g>
	<g id="triangle36_94_">
		<polygon class="st0" points="115.7,75.6 115.7,75.5 111.7,60.3 111.9,60.3 115.8,75.4 136.1,62.2 136.2,62.4 		"/>
	</g>
	<g id="triangle36_93_">
		<path class="st0" d="M115.4,75.6l20.8-13.4l0,0.1l2,12.6l-0.1,0L115.4,75.6z M136.1,62.4l-20.1,13l22.1-0.6L136.1,62.4z"/>
	</g>
	<g id="triangle36_92_">
		<polygon class="st0" points="289.3,106.6 281.9,93.1 282.1,93.2 293.3,99.8 293.2,100 282.3,93.5 289.4,106.5 		"/>
	</g>
	<g id="triangle36_91_">
		<polygon class="st0" points="293.2,100 281.9,93.3 282,93.3 292.6,80.7 292.7,80.8 282.2,93.3 293.3,99.8 		"/>
	</g>
	<g id="triangle36_90_">
		<polygon class="st0" points="253.8,78.9 253.7,78.9 221.3,68.3 221.4,68.2 253.6,78.7 254.3,44.5 254.4,44.5 		"/>
	</g>
	<g id="triangle36_89_">
		<polygon class="st0" points="253.6,79.2 254.3,44.5 254.4,44.5 253.8,78.4 269.5,43.1 269.6,43.2 		"/>
	</g>
	<g id="triangle36_88_">
		<path class="st0" d="M176.4,106l0-0.1l-2-32.5l0.1,0.1L216.3,94l-0.2,0.1L176.4,106z M174.6,73.6l2,32.1L215.8,94L174.6,73.6z"/>
	</g>
	<g id="triangle36_87_">
		<path class="st0" d="M216.2,94.1L216,94l-41.9-20.6h40.7l0,0.1L216.2,94.1z M174.8,73.6L216,93.8l-1.3-20.2H174.8z"/>
	</g>
	<g id="triangle36_86_">
		<polygon class="st0" points="206.2,116.4 206.1,116.4 215.9,94.1 176.5,105.9 176.4,105.8 216.2,93.8 		"/>
	</g>
	<g id="triangle36_85_">
		<polygon class="st0" points="229.2,134.9 216,94.2 206.2,116.4 206.1,116.4 216.1,93.7 216.1,93.9 229.3,134.9 		"/>
	</g>
	<g id="triangle36_84_">
		<path class="st0" d="M216,94.6l0-0.6l-1.3-20.5l6.8-5.4l0,0.2L216,94.6z M214.8,73.5l1.3,19.8l5.1-24.9L214.8,73.5z"/>
	</g>
	<g id="triangle36_83_">
		<path class="st0" d="M216,94.1l0-0.2l5.3-25.8l0.1,0l32.6,10.6l-0.2,0.1L216,94.1z M221.4,68.3l-5.2,25.5l37.3-15L221.4,68.3z"/>
	</g>
	<g id="triangle36_82_">
		<polygon class="st0" points="229.2,134.9 215.9,93.8 268.2,109.1 268.2,109.2 216.2,94.1 229.3,134.9 		"/>
	</g>
	<g id="triangle36_81_">
		<path class="st0" d="M268.4,109.3l-0.2-0.1L215.8,94l0.2-0.1l37.7-15.2l0,0.1L268.4,109.3z M216.3,94l51.7,15.1l-14.4-30.1
			L216.3,94z"/>
	</g>
	<g id="triangle36_80_">
		<path class="st0" d="M268.2,109.3l-0.1-0.1l-14.6-30.6l28.7,14.7L268.2,109.3z M253.9,79l14.4,30l13.7-15.7L253.9,79z"/>
	</g>
	<g id="triangle36_79_">
		<polygon class="st0" points="268.3,109.2 268.1,109.1 282.1,93.2 282.1,93.3 289.4,106.5 289.3,106.6 282.1,93.5 		"/>
	</g>
	<g id="triangle36_78_">
		<polygon class="st0" points="138.2,75.2 138.1,74.8 136.1,62.3 136.3,62.3 138.2,74.4 142.7,58.3 142.9,58.3 		"/>
	</g>
	<g id="triangle36_77_">
		<polygon class="st0" points="214.8,73.7 214.7,73.6 196.9,51.1 197,51 214.7,73.3 217.3,56.3 217.5,56.4 		"/>
	</g>
	<g id="triangle36_76_">
		<polygon class="st0" points="214.6,73.7 214.7,73.5 217.3,56.3 217.5,56.4 214.9,73.3 221.3,68.2 221.4,68.3 		"/>
	</g>
	<g id="triangle36_75_">
		<polygon class="st0" points="109.9,91.3 109.7,91.3 109.7,82 120.3,80.7 120.4,80.9 109.9,82.2 		"/>
	</g>
	<g id="triangle36_74_">
		<path class="st0" d="M109.6,82.2l6.2-6.8l4.8,5.5L109.6,82.2z M115.7,75.6L110,82l10.2-1.3L115.7,75.6z"/>
	</g>
	<g id="triangle36_73_">
		<path class="st0" d="M120.3,80.9l-4.8-5.5l23.2-0.7L120.3,80.9z M115.9,75.6l4.5,5.1l17.2-5.7L115.9,75.6z"/>
	</g>
	<g id="triangle36_72_">
		<polygon class="st0" points="125,82.8 124.9,82.7 137.5,75.1 120.4,80.8 120.3,80.7 138.9,74.5 		"/>
	</g>
	<g id="triangle36_71_">
		<polygon class="st0" points="68.4,64.4 68.2,64.3 52.3,57.7 52.4,57.6 68,64.1 62.2,51.8 62.3,51.7 		"/>
	</g>
	<g id="triangle36_70_">
		<path class="st0" d="M71.6,85.7l-0.2-0.3l-19.3-28l16.1,6.7L71.6,85.7z M52.6,57.9L71.4,85l-3.2-20.7L52.6,57.9z"/>
	</g>
	<g id="triangle36_69_">
		<path class="st0" d="M71.5,85.6l0-0.2l-3.3-21.3l0.2,0.1l13.3,9.3l-0.1,0.1L71.5,85.6z M68.3,64.4l3.2,20.8l9.7-11.7L68.3,64.4z"
			/>
	</g>
	<g id="triangle36_68_">
		<polygon class="st0" points="253.5,79 253.6,78.8 269.5,43.1 269.6,43.2 253.9,78.6 284,57.6 284.1,57.7 		"/>
	</g>
	<g id="triangle36_67_">
		<polygon class="st0" points="292.6,80.9 253.4,78.9 253.6,78.7 284,57.6 284.1,57.7 253.9,78.7 292.6,80.7 		"/>
	</g>
	<g id="triangle36_66_">
		<polygon class="st0" points="102.4,102.6 98.5,81.6 87.4,97.3 87.3,97.2 98.6,81.2 98.7,81.4 102.6,102.5 		"/>
	</g>
	<g id="triangle36_65_">
		<polygon class="st0" points="102.4,102.6 98.4,81.2 109.8,91.3 109.7,91.4 98.7,81.7 102.6,102.5 		"/>
	</g>
	<g id="triangle36_64_">
		<path class="st0" d="M98.7,81.6l-17.4-8l0-0.1l4-20l0.1,0.2L98.7,81.6z M81.5,73.5l16.9,7.8L85.4,54L81.5,73.5z"/>
	</g>
	<g id="triangle36_63_">
		<polygon class="st0" points="98.6,81.6 98.5,81.5 85.3,53.7 85.4,53.7 98.6,81.3 111.7,60.3 111.8,60.4 		"/>
	</g>
	<g id="triangle36_62_">
		<polygon class="st0" points="68.2,64.4 62.2,51.8 62.3,51.7 68.2,64.1 85.3,53.6 85.4,53.8 		"/>
	</g>
	<g id="triangle36_61_">
		<path class="st0" d="M81.5,73.6l-13.4-9.4l0.1-0.1l17.3-10.7l0,0.2L81.5,73.6z M68.4,64.3l13,9.1l3.9-19.5L68.4,64.3z"/>
	</g>
	<g id="triangle36_60_">
		<polygon class="st0" points="138,75.1 138.1,74.8 142.7,58.3 142.9,58.3 138.3,74.6 157.3,59.6 157.4,59.7 		"/>
	</g>
	<g id="triangle36_59_">
		<path class="st0" d="M137.9,74.9l19.4-15.4l0,0.1l5.3,14L137.9,74.9z M157.3,59.8l-18.9,15l24.1-1.3L157.3,59.8z"/>
	</g>
	<g id="triangle36_58_">
		<path class="st0" d="M174.7,73.6h-12.2l0-0.1l-5.4-14.1l0.2,0.2L174.7,73.6z M162.7,73.4h11.6l-16.7-13.5L162.7,73.4z"/>
	</g>
	<g id="triangle36_57_">
		<polygon class="st0" points="174.5,73.6 174.4,73.6 157.3,59.7 157.4,59.6 174.5,73.4 196.9,51 197,51.1 		"/>
	</g>
	<path class="st0" d="M99.6,81.4c0,0.6-0.5,1-1,1c-0.6,0-1-0.5-1-1s0.5-1,1-1C99.1,80.4,99.6,80.9,99.6,81.4z"/>
	<path class="st0" d="M116.7,75.5c0,0.6-0.5,1-1,1s-1-0.5-1-1c0-0.6,0.5-1,1-1S116.7,74.9,116.7,75.5z"/>
	<circle class="st0" cx="109.8" cy="82.1" r="1"/>
	<path class="st0" d="M112.8,60.3c0,0.6-0.5,1-1,1c-0.6,0-1-0.5-1-1c0-0.6,0.5-1,1-1C112.3,59.3,112.8,59.7,112.8,60.3z"/>
	<path class="st0" d="M99.6,81.4c0,0.6-0.5,1-1,1c-0.6,0-1-0.5-1-1s0.5-1,1-1C99.1,80.4,99.6,80.9,99.6,81.4z"/>
	<path class="st0" d="M116.7,75.5c0,0.6-0.5,1-1,1s-1-0.5-1-1c0-0.6,0.5-1,1-1S116.7,74.9,116.7,75.5z"/>
	<path class="st0" d="M112.8,60.3c0,0.6-0.5,1-1,1c-0.6,0-1-0.5-1-1c0-0.6,0.5-1,1-1C112.3,59.3,112.8,59.7,112.8,60.3z"/>
	<path class="st0" d="M88.4,97.3c0,0.6-0.5,1-1,1s-1-0.5-1-1s0.5-1,1-1S88.4,96.7,88.4,97.3z"/>
	<path class="st0" d="M82.4,73.5c0,0.6-0.5,1-1,1c-0.6,0-1-0.5-1-1c0-0.6,0.5-1,1-1C82,72.5,82.4,72.9,82.4,73.5z"/>
	<path class="st0" d="M99.6,81.4c0,0.6-0.5,1-1,1c-0.6,0-1-0.5-1-1s0.5-1,1-1C99.1,80.4,99.6,80.9,99.6,81.4z"/>
	<path class="st0" d="M88.4,97.3c0,0.6-0.5,1-1,1s-1-0.5-1-1s0.5-1,1-1S88.4,96.7,88.4,97.3z"/>
	<path class="st0" d="M88.4,97.3c0,0.6-0.5,1-1,1s-1-0.5-1-1s0.5-1,1-1S88.4,96.7,88.4,97.3z"/>
	<path class="st0" d="M72.5,85.4c0,0.6-0.5,1-1,1s-1-0.5-1-1c0-0.6,0.5-1,1-1S72.5,84.8,72.5,85.4z"/>
	<path class="st0" d="M82.4,73.5c0,0.6-0.5,1-1,1c-0.6,0-1-0.5-1-1c0-0.6,0.5-1,1-1C82,72.5,82.4,72.9,82.4,73.5z"/>
	<path class="st0" d="M88.4,97.3c0,0.6-0.5,1-1,1s-1-0.5-1-1s0.5-1,1-1S88.4,96.7,88.4,97.3z"/>
	<path class="st0" d="M165.6,101.2c0,0.6-0.5,1-1,1c-0.6,0-1-0.5-1-1c0-0.6,0.5-1,1-1C165.1,100.2,165.6,100.7,165.6,101.2z"/>
	<path class="st0" d="M175.5,73.5c0,0.6-0.5,1-1,1c-0.6,0-1-0.5-1-1c0-0.6,0.5-1,1-1C175,72.5,175.5,72.9,175.5,73.5z"/>
	<path class="st0" d="M177.5,105.9c0,0.6-0.5,1-1,1s-1-0.5-1-1c0-0.6,0.5-1,1-1S177.5,105.3,177.5,105.9z"/>
	<path class="st0" d="M82.4,111.1c0,0.6-0.5,1-1,1c-0.6,0-1-0.5-1-1s0.5-1,1-1C82,110.1,82.4,110.6,82.4,111.1z"/>
	<path class="st0" d="M72.5,85.4c0,0.6-0.5,1-1,1s-1-0.5-1-1c0-0.6,0.5-1,1-1S72.5,84.8,72.5,85.4z"/>
	<path class="st0" d="M71.2,116.4c0,0.6-0.5,1-1,1s-1-0.5-1-1c0-0.6,0.5-1,1-1S71.2,115.9,71.2,116.4z"/>
	<path class="st0" d="M88.4,97.3c0,0.6-0.5,1-1,1s-1-0.5-1-1s0.5-1,1-1S88.4,96.7,88.4,97.3z"/>
	<path class="st0" d="M72.5,85.4c0,0.6-0.5,1-1,1s-1-0.5-1-1c0-0.6,0.5-1,1-1S72.5,84.8,72.5,85.4z"/>
	<path class="st0" d="M82.4,111.1c0,0.6-0.5,1-1,1c-0.6,0-1-0.5-1-1s0.5-1,1-1C82,110.1,82.4,110.6,82.4,111.1z"/>
	<path class="st0" d="M110.8,91.3c0,0.6-0.5,1-1,1c-0.6,0-1-0.5-1-1c0-0.6,0.5-1,1-1C110.4,90.3,110.8,90.8,110.8,91.3z"/>
	<circle class="st0" cx="109.8" cy="82.1" r="1"/>
	<path class="st0" d="M99.6,81.4c0,0.6-0.5,1-1,1c-0.6,0-1-0.5-1-1s0.5-1,1-1C99.1,80.4,99.6,80.9,99.6,81.4z"/>
	<path class="st0" d="M110.8,91.3c0,0.6-0.5,1-1,1c-0.6,0-1-0.5-1-1c0-0.6,0.5-1,1-1C110.4,90.3,110.8,90.8,110.8,91.3z"/>
	<path class="st0" d="M197.9,51.1c0,0.6-0.5,1-1,1c-0.6,0-1-0.5-1-1s0.5-1,1-1C197.5,50,197.9,50.5,197.9,51.1z"/>
	<path class="st0" d="M175.5,73.5c0,0.6-0.5,1-1,1c-0.6,0-1-0.5-1-1c0-0.6,0.5-1,1-1C175,72.5,175.5,72.9,175.5,73.5z"/>
	<path class="st0" d="M215.8,73.5c0,0.6-0.5,1-1,1c-0.6,0-1-0.5-1-1c0-0.6,0.5-1,1-1C215.3,72.5,215.8,72.9,215.8,73.5z"/>
	<path class="st0" d="M197.9,51.1c0,0.6-0.5,1-1,1c-0.6,0-1-0.5-1-1s0.5-1,1-1C197.5,50,197.9,50.5,197.9,51.1z"/>
	<path class="st0" d="M49.4,108.5c0,0.6-0.5,1-1,1c-0.6,0-1-0.5-1-1c0-0.6,0.5-1,1-1C49,107.5,49.4,107.9,49.4,108.5z"/>
	<path class="st0" d="M72.5,85.4c0,0.6-0.5,1-1,1s-1-0.5-1-1c0-0.6,0.5-1,1-1S72.5,84.8,72.5,85.4z"/>
	<path class="st0" d="M71.2,116.4c0,0.6-0.5,1-1,1s-1-0.5-1-1c0-0.6,0.5-1,1-1S71.2,115.9,71.2,116.4z"/>
	<path class="st0" d="M72.5,85.4c0,0.6-0.5,1-1,1s-1-0.5-1-1c0-0.6,0.5-1,1-1S72.5,84.8,72.5,85.4z"/>
	<path class="st0" d="M49.4,108.5c0,0.6-0.5,1-1,1c-0.6,0-1-0.5-1-1c0-0.6,0.5-1,1-1C49,107.5,49.4,107.9,49.4,108.5z"/>
	<path class="st0" d="M32.3,70.2c0,0.6-0.5,1-1,1c-0.6,0-1-0.5-1-1c0-0.6,0.5-1,1-1C31.8,69.2,32.3,69.6,32.3,70.2z"/>
	<path class="st0" d="M72.5,85.4c0,0.6-0.5,1-1,1s-1-0.5-1-1c0-0.6,0.5-1,1-1S72.5,84.8,72.5,85.4z"/>
	<path class="st0" d="M53.4,57.7c0,0.6-0.5,1-1,1c-0.6,0-1-0.5-1-1c0-0.6,0.5-1,1-1C52.9,56.6,53.4,57.1,53.4,57.7z"/>
	<circle class="st0" cx="132.9" cy="99.3" r="1"/>
	<path class="st0" d="M139.2,74.8c0,0.6-0.5,1-1,1c-0.6,0-1-0.5-1-1c0-0.6,0.5-1,1-1C138.7,73.8,139.2,74.3,139.2,74.8z"/>
	<path class="st0" d="M126,82.8c0,0.6-0.5,1-1,1c-0.6,0-1-0.5-1-1s0.5-1,1-1C125.5,81.7,126,82.2,126,82.8z"/>
	<path class="st0" d="M151.1,101.2c0,0.6-0.5,1-1,1c-0.6,0-1-0.5-1-1c0-0.6,0.5-1,1-1C150.6,100.2,151.1,100.7,151.1,101.2z"/>
	<path class="st0" d="M139.2,74.8c0,0.6-0.5,1-1,1c-0.6,0-1-0.5-1-1c0-0.6,0.5-1,1-1C138.7,73.8,139.2,74.3,139.2,74.8z"/>
	<circle class="st0" cx="132.9" cy="99.3" r="1"/>
	<circle class="st0" cx="292.6" cy="80.8" r="1"/>
	<circle class="st0" cx="253.7" cy="78.8" r="1"/>
	<circle class="st0" cx="282.1" cy="93.3" r="1"/>
	<circle class="st0" cx="292.6" cy="80.8" r="1"/>
	<path class="st0" d="M151.1,101.2c0,0.6-0.5,1-1,1c-0.6,0-1-0.5-1-1c0-0.6,0.5-1,1-1C150.6,100.2,151.1,100.7,151.1,101.2z"/>
	<path class="st0" d="M139.2,74.8c0,0.6-0.5,1-1,1c-0.6,0-1-0.5-1-1c0-0.6,0.5-1,1-1C138.7,73.8,139.2,74.3,139.2,74.8z"/>
	<path class="st0" d="M163.6,73.5c0,0.6-0.5,1-1,1s-1-0.5-1-1c0-0.6,0.5-1,1-1S163.6,72.9,163.6,73.5z"/>
	<path class="st0" d="M151.1,101.2c0,0.6-0.5,1-1,1c-0.6,0-1-0.5-1-1c0-0.6,0.5-1,1-1C150.6,100.2,151.1,100.7,151.1,101.2z"/>
	<path class="st0" d="M151.1,101.2c0,0.6-0.5,1-1,1c-0.6,0-1-0.5-1-1c0-0.6,0.5-1,1-1C150.6,100.2,151.1,100.7,151.1,101.2z"/>
	<path class="st0" d="M163.6,73.5c0,0.6-0.5,1-1,1s-1-0.5-1-1c0-0.6,0.5-1,1-1S163.6,72.9,163.6,73.5z"/>
	<path class="st0" d="M165.6,101.2c0,0.6-0.5,1-1,1c-0.6,0-1-0.5-1-1c0-0.6,0.5-1,1-1C165.1,100.2,165.6,100.7,165.6,101.2z"/>
	<path class="st0" d="M165.6,101.2c0,0.6-0.5,1-1,1c-0.6,0-1-0.5-1-1c0-0.6,0.5-1,1-1C165.1,100.2,165.6,100.7,165.6,101.2z"/>
	<path class="st0" d="M163.6,73.5c0,0.6-0.5,1-1,1s-1-0.5-1-1c0-0.6,0.5-1,1-1S163.6,72.9,163.6,73.5z"/>
	<path class="st0" d="M175.5,73.5c0,0.6-0.5,1-1,1c-0.6,0-1-0.5-1-1c0-0.6,0.5-1,1-1C175,72.5,175.5,72.9,175.5,73.5z"/>
	<path class="st0" d="M165.6,101.2c0,0.6-0.5,1-1,1c-0.6,0-1-0.5-1-1c0-0.6,0.5-1,1-1C165.1,100.2,165.6,100.7,165.6,101.2z"/>
	<path class="st0" d="M137.2,62.3c0,0.6-0.5,1-1,1c-0.6,0-1-0.5-1-1c0-0.6,0.5-1,1-1C136.8,61.3,137.2,61.7,137.2,62.3z"/>
	<path class="st0" d="M116.7,75.5c0,0.6-0.5,1-1,1s-1-0.5-1-1c0-0.6,0.5-1,1-1S116.7,74.9,116.7,75.5z"/>
	<path class="st0" d="M112.8,60.3c0,0.6-0.5,1-1,1c-0.6,0-1-0.5-1-1c0-0.6,0.5-1,1-1C112.3,59.3,112.8,59.7,112.8,60.3z"/>
	<path class="st0" d="M137.2,62.3c0,0.6-0.5,1-1,1c-0.6,0-1-0.5-1-1c0-0.6,0.5-1,1-1C136.8,61.3,137.2,61.7,137.2,62.3z"/>
	<path class="st0" d="M139.2,74.8c0,0.6-0.5,1-1,1c-0.6,0-1-0.5-1-1c0-0.6,0.5-1,1-1C138.7,73.8,139.2,74.3,139.2,74.8z"/>
	<path class="st0" d="M116.7,75.5c0,0.6-0.5,1-1,1s-1-0.5-1-1c0-0.6,0.5-1,1-1S116.7,74.9,116.7,75.5z"/>
	<path class="st0" d="M137.2,62.3c0,0.6-0.5,1-1,1c-0.6,0-1-0.5-1-1c0-0.6,0.5-1,1-1C136.8,61.3,137.2,61.7,137.2,62.3z"/>
	<path class="st0" d="M290.3,106.5c0,0.6-0.5,1-1,1c-0.6,0-1-0.5-1-1c0-0.6,0.5-1,1-1C289.9,105.5,290.3,106,290.3,106.5z"/>
	<circle class="st0" cx="282.1" cy="93.3" r="1"/>
	<path class="st0" d="M294.3,99.9c0,0.6-0.5,1-1,1c-0.6,0-1-0.5-1-1c0-0.6,0.5-1,1-1C293.9,98.9,294.3,99.3,294.3,99.9z"/>
	<circle class="st0" cx="292.6" cy="80.8" r="1"/>
	<circle class="st0" cx="282.1" cy="93.3" r="1"/>
	<path class="st0" d="M294.3,99.9c0,0.6-0.5,1-1,1c-0.6,0-1-0.5-1-1c0-0.6,0.5-1,1-1C293.9,98.9,294.3,99.3,294.3,99.9z"/>
	<path class="st0" d="M255.4,44.5c0,0.6-0.5,1-1,1s-1-0.5-1-1c0-0.6,0.5-1,1-1S255.4,43.9,255.4,44.5z"/>
	<circle class="st0" cx="253.7" cy="78.8" r="1"/>
	<path class="st0" d="M222.4,68.2c0,0.6-0.5,1-1,1c-0.6,0-1-0.5-1-1s0.5-1,1-1C221.9,67.2,222.4,67.7,222.4,68.2z"/>
	<path class="st0" d="M270.5,43.1c0,0.6-0.5,1-1,1s-1-0.5-1-1c0-0.6,0.5-1,1-1S270.5,42.6,270.5,43.1z"/>
	<circle class="st0" cx="253.7" cy="78.8" r="1"/>
	<path class="st0" d="M255.4,44.5c0,0.6-0.5,1-1,1s-1-0.5-1-1c0-0.6,0.5-1,1-1S255.4,43.9,255.4,44.5z"/>
	<path class="st0" d="M177.5,105.9c0,0.6-0.5,1-1,1s-1-0.5-1-1c0-0.6,0.5-1,1-1S177.5,105.3,177.5,105.9z"/>
	<path class="st0" d="M175.5,73.5c0,0.6-0.5,1-1,1c-0.6,0-1-0.5-1-1c0-0.6,0.5-1,1-1C175,72.5,175.5,72.9,175.5,73.5z"/>
	<path class="st0" d="M217.1,94c0,0.6-0.5,1-1,1c-0.6,0-1-0.5-1-1c0-0.6,0.5-1,1-1C216.6,93,217.1,93.4,217.1,94z"/>
	<path class="st0" d="M177.5,105.9c0,0.6-0.5,1-1,1s-1-0.5-1-1c0-0.6,0.5-1,1-1S177.5,105.3,177.5,105.9z"/>
	<path class="st0" d="M217.1,94c0,0.6-0.5,1-1,1c-0.6,0-1-0.5-1-1c0-0.6,0.5-1,1-1C216.6,93,217.1,93.4,217.1,94z"/>
	<path class="st0" d="M215.8,73.5c0,0.6-0.5,1-1,1c-0.6,0-1-0.5-1-1c0-0.6,0.5-1,1-1C215.3,72.5,215.8,72.9,215.8,73.5z"/>
	<path class="st0" d="M175.5,73.5c0,0.6-0.5,1-1,1c-0.6,0-1-0.5-1-1c0-0.6,0.5-1,1-1C175,72.5,175.5,72.9,175.5,73.5z"/>
	<path class="st0" d="M177.5,105.9c0,0.6-0.5,1-1,1s-1-0.5-1-1c0-0.6,0.5-1,1-1S177.5,105.3,177.5,105.9z"/>
	<path class="st0" d="M217.1,94c0,0.6-0.5,1-1,1c-0.6,0-1-0.5-1-1c0-0.6,0.5-1,1-1C216.6,93,217.1,93.4,217.1,94z"/>
	<path class="st0" d="M207.2,116.4c0,0.6-0.5,1-1,1c-0.6,0-1-0.5-1-1c0-0.6,0.5-1,1-1C206.7,115.4,207.2,115.9,207.2,116.4z"/>
	<path class="st0" d="M207.2,116.4c0,0.6-0.5,1-1,1c-0.6,0-1-0.5-1-1c0-0.6,0.5-1,1-1C206.7,115.4,207.2,115.9,207.2,116.4z"/>
	<path class="st0" d="M217.1,94c0,0.6-0.5,1-1,1c-0.6,0-1-0.5-1-1c0-0.6,0.5-1,1-1C216.6,93,217.1,93.4,217.1,94z"/>
	<path class="st0" d="M230.3,134.9c0,0.6-0.5,1-1,1c-0.6,0-1-0.5-1-1c0-0.6,0.5-1,1-1C229.8,133.9,230.3,134.3,230.3,134.9z"/>
	<path class="st0" d="M222.4,68.2c0,0.6-0.5,1-1,1c-0.6,0-1-0.5-1-1s0.5-1,1-1C221.9,67.2,222.4,67.7,222.4,68.2z"/>
	<path class="st0" d="M215.8,73.5c0,0.6-0.5,1-1,1c-0.6,0-1-0.5-1-1c0-0.6,0.5-1,1-1C215.3,72.5,215.8,72.9,215.8,73.5z"/>
	<path class="st0" d="M217.1,94c0,0.6-0.5,1-1,1c-0.6,0-1-0.5-1-1c0-0.6,0.5-1,1-1C216.6,93,217.1,93.4,217.1,94z"/>
	<path class="st0" d="M222.4,68.2c0,0.6-0.5,1-1,1c-0.6,0-1-0.5-1-1s0.5-1,1-1C221.9,67.2,222.4,67.7,222.4,68.2z"/>
	<path class="st0" d="M222.4,68.2c0,0.6-0.5,1-1,1c-0.6,0-1-0.5-1-1s0.5-1,1-1C221.9,67.2,222.4,67.7,222.4,68.2z"/>
	<path class="st0" d="M217.1,94c0,0.6-0.5,1-1,1c-0.6,0-1-0.5-1-1c0-0.6,0.5-1,1-1C216.6,93,217.1,93.4,217.1,94z"/>
	<circle class="st0" cx="253.7" cy="78.8" r="1"/>
	<path class="st0" d="M222.4,68.2c0,0.6-0.5,1-1,1c-0.6,0-1-0.5-1-1s0.5-1,1-1C221.9,67.2,222.4,67.7,222.4,68.2z"/>
	<path class="st0" d="M230.3,134.9c0,0.6-0.5,1-1,1c-0.6,0-1-0.5-1-1c0-0.6,0.5-1,1-1C229.8,133.9,230.3,134.3,230.3,134.9z"/>
	<path class="st0" d="M217.1,94c0,0.6-0.5,1-1,1c-0.6,0-1-0.5-1-1c0-0.6,0.5-1,1-1C216.6,93,217.1,93.4,217.1,94z"/>
	<path class="st0" d="M269.2,109.2c0,0.6-0.5,1-1,1s-1-0.5-1-1c0-0.6,0.5-1,1-1S269.2,108.6,269.2,109.2z"/>
	<path class="st0" d="M269.2,109.2c0,0.6-0.5,1-1,1s-1-0.5-1-1c0-0.6,0.5-1,1-1S269.2,108.6,269.2,109.2z"/>
	<circle class="st0" cx="253.7" cy="78.8" r="1"/>
	<path class="st0" d="M217.1,94c0,0.6-0.5,1-1,1c-0.6,0-1-0.5-1-1c0-0.6,0.5-1,1-1C216.6,93,217.1,93.4,217.1,94z"/>
	<path class="st0" d="M269.2,109.2c0,0.6-0.5,1-1,1s-1-0.5-1-1c0-0.6,0.5-1,1-1S269.2,108.6,269.2,109.2z"/>
	<path class="st0" d="M269.2,109.2c0,0.6-0.5,1-1,1s-1-0.5-1-1c0-0.6,0.5-1,1-1S269.2,108.6,269.2,109.2z"/>
	<circle class="st0" cx="282.1" cy="93.3" r="1"/>
	<circle class="st0" cx="253.7" cy="78.8" r="1"/>
	<path class="st0" d="M269.2,109.2c0,0.6-0.5,1-1,1s-1-0.5-1-1c0-0.6,0.5-1,1-1S269.2,108.6,269.2,109.2z"/>
	<path class="st0" d="M290.3,106.5c0,0.6-0.5,1-1,1c-0.6,0-1-0.5-1-1c0-0.6,0.5-1,1-1C289.9,105.5,290.3,106,290.3,106.5z"/>
	<circle class="st0" cx="282.1" cy="93.3" r="1"/>
	<path class="st0" d="M269.2,109.2c0,0.6-0.5,1-1,1s-1-0.5-1-1c0-0.6,0.5-1,1-1S269.2,108.6,269.2,109.2z"/>
	<path class="st0" d="M143.8,58.3c0,0.6-0.5,1-1,1c-0.6,0-1-0.5-1-1s0.5-1,1-1C143.4,57.3,143.8,57.8,143.8,58.3z"/>
	<path class="st0" d="M139.2,74.8c0,0.6-0.5,1-1,1c-0.6,0-1-0.5-1-1c0-0.6,0.5-1,1-1C138.7,73.8,139.2,74.3,139.2,74.8z"/>
	<path class="st0" d="M137.2,62.3c0,0.6-0.5,1-1,1c-0.6,0-1-0.5-1-1c0-0.6,0.5-1,1-1C136.8,61.3,137.2,61.7,137.2,62.3z"/>
	<path class="st0" d="M218.4,56.3c0,0.6-0.5,1-1,1c-0.6,0-1-0.5-1-1c0-0.6,0.5-1,1-1C217.9,55.3,218.4,55.8,218.4,56.3z"/>
	<path class="st0" d="M215.8,73.5c0,0.6-0.5,1-1,1c-0.6,0-1-0.5-1-1c0-0.6,0.5-1,1-1C215.3,72.5,215.8,72.9,215.8,73.5z"/>
	<path class="st0" d="M197.9,51.1c0,0.6-0.5,1-1,1c-0.6,0-1-0.5-1-1s0.5-1,1-1C197.5,50,197.9,50.5,197.9,51.1z"/>
	<path class="st0" d="M222.4,68.2c0,0.6-0.5,1-1,1c-0.6,0-1-0.5-1-1s0.5-1,1-1C221.9,67.2,222.4,67.7,222.4,68.2z"/>
	<path class="st0" d="M215.8,73.5c0,0.6-0.5,1-1,1c-0.6,0-1-0.5-1-1c0-0.6,0.5-1,1-1C215.3,72.5,215.8,72.9,215.8,73.5z"/>
	<path class="st0" d="M218.4,56.3c0,0.6-0.5,1-1,1c-0.6,0-1-0.5-1-1c0-0.6,0.5-1,1-1C217.9,55.3,218.4,55.8,218.4,56.3z"/>
	<path class="st0" d="M110.8,91.3c0,0.6-0.5,1-1,1c-0.6,0-1-0.5-1-1c0-0.6,0.5-1,1-1C110.4,90.3,110.8,90.8,110.8,91.3z"/>
	<circle class="st0" cx="109.8" cy="82.1" r="1"/>
	<path class="st0" d="M121.4,80.8c0,0.6-0.5,1-1,1c-0.6,0-1-0.5-1-1s0.5-1,1-1C120.9,79.8,121.4,80.2,121.4,80.8z"/>
	<path class="st0" d="M121.4,80.8c0,0.6-0.5,1-1,1c-0.6,0-1-0.5-1-1s0.5-1,1-1C120.9,79.8,121.4,80.2,121.4,80.8z"/>
	<path class="st0" d="M116.7,75.5c0,0.6-0.5,1-1,1s-1-0.5-1-1c0-0.6,0.5-1,1-1S116.7,74.9,116.7,75.5z"/>
	<circle class="st0" cx="109.8" cy="82.1" r="1"/>
	<path class="st0" d="M121.4,80.8c0,0.6-0.5,1-1,1c-0.6,0-1-0.5-1-1s0.5-1,1-1C120.9,79.8,121.4,80.2,121.4,80.8z"/>
	<path class="st0" d="M121.4,80.8c0,0.6-0.5,1-1,1c-0.6,0-1-0.5-1-1s0.5-1,1-1C120.9,79.8,121.4,80.2,121.4,80.8z"/>
	<path class="st0" d="M139.2,74.8c0,0.6-0.5,1-1,1c-0.6,0-1-0.5-1-1c0-0.6,0.5-1,1-1C138.7,73.8,139.2,74.3,139.2,74.8z"/>
	<path class="st0" d="M116.7,75.5c0,0.6-0.5,1-1,1s-1-0.5-1-1c0-0.6,0.5-1,1-1S116.7,74.9,116.7,75.5z"/>
	<path class="st0" d="M121.4,80.8c0,0.6-0.5,1-1,1c-0.6,0-1-0.5-1-1s0.5-1,1-1C120.9,79.8,121.4,80.2,121.4,80.8z"/>
	<path class="st0" d="M121.4,80.8c0,0.6-0.5,1-1,1c-0.6,0-1-0.5-1-1s0.5-1,1-1C120.9,79.8,121.4,80.2,121.4,80.8z"/>
	<path class="st0" d="M139.2,74.8c0,0.6-0.5,1-1,1c-0.6,0-1-0.5-1-1c0-0.6,0.5-1,1-1C138.7,73.8,139.2,74.3,139.2,74.8z"/>
	<path class="st0" d="M126,82.8c0,0.6-0.5,1-1,1c-0.6,0-1-0.5-1-1s0.5-1,1-1C125.5,81.7,126,82.2,126,82.8z"/>
	<path class="st0" d="M53.4,57.7c0,0.6-0.5,1-1,1c-0.6,0-1-0.5-1-1c0-0.6,0.5-1,1-1C52.9,56.6,53.4,57.1,53.4,57.7z"/>
	<path class="st0" d="M69.2,64.3c0,0.6-0.5,1-1,1c-0.6,0-1-0.5-1-1c0-0.6,0.5-1,1-1C68.8,63.3,69.2,63.7,69.2,64.3z"/>
	<path class="st0" d="M63.3,51.7c0,0.6-0.5,1-1,1c-0.6,0-1-0.5-1-1s0.5-1,1-1C62.8,50.7,63.3,51.2,63.3,51.7z"/>
	<path class="st0" d="M53.4,57.7c0,0.6-0.5,1-1,1c-0.6,0-1-0.5-1-1c0-0.6,0.5-1,1-1C52.9,56.6,53.4,57.1,53.4,57.7z"/>
	<path class="st0" d="M69.2,64.3c0,0.6-0.5,1-1,1c-0.6,0-1-0.5-1-1c0-0.6,0.5-1,1-1C68.8,63.3,69.2,63.7,69.2,64.3z"/>
	<path class="st0" d="M72.5,85.4c0,0.6-0.5,1-1,1s-1-0.5-1-1c0-0.6,0.5-1,1-1S72.5,84.8,72.5,85.4z"/>
	<path class="st0" d="M53.4,57.7c0,0.6-0.5,1-1,1c-0.6,0-1-0.5-1-1c0-0.6,0.5-1,1-1C52.9,56.6,53.4,57.1,53.4,57.7z"/>
	<path class="st0" d="M69.2,64.3c0,0.6-0.5,1-1,1c-0.6,0-1-0.5-1-1c0-0.6,0.5-1,1-1C68.8,63.3,69.2,63.7,69.2,64.3z"/>
	<path class="st0" d="M82.4,73.5c0,0.6-0.5,1-1,1c-0.6,0-1-0.5-1-1c0-0.6,0.5-1,1-1C82,72.5,82.4,72.9,82.4,73.5z"/>
	<path class="st0" d="M72.5,85.4c0,0.6-0.5,1-1,1s-1-0.5-1-1c0-0.6,0.5-1,1-1S72.5,84.8,72.5,85.4z"/>
	<path class="st0" d="M270.5,43.1c0,0.6-0.5,1-1,1s-1-0.5-1-1c0-0.6,0.5-1,1-1S270.5,42.6,270.5,43.1z"/>
	<circle class="st0" cx="253.7" cy="78.8" r="1"/>
	<path class="st0" d="M285.1,57.7c0,0.6-0.5,1-1,1s-1-0.5-1-1c0-0.6,0.5-1,1-1S285.1,57.1,285.1,57.7z"/>
	<circle class="st0" cx="292.6" cy="80.8" r="1"/>
	<circle class="st0" cx="253.7" cy="78.8" r="1"/>
	<path class="st0" d="M285.1,57.7c0,0.6-0.5,1-1,1s-1-0.5-1-1c0-0.6,0.5-1,1-1S285.1,57.1,285.1,57.7z"/>
	<path class="st0" d="M103.5,102.6c0,0.6-0.5,1-1,1s-1-0.5-1-1c0-0.6,0.5-1,1-1S103.5,102,103.5,102.6z"/>
	<path class="st0" d="M99.6,81.4c0,0.6-0.5,1-1,1c-0.6,0-1-0.5-1-1s0.5-1,1-1C99.1,80.4,99.6,80.9,99.6,81.4z"/>
	<path class="st0" d="M88.4,97.3c0,0.6-0.5,1-1,1s-1-0.5-1-1s0.5-1,1-1S88.4,96.7,88.4,97.3z"/>
	<path class="st0" d="M110.8,91.3c0,0.6-0.5,1-1,1c-0.6,0-1-0.5-1-1c0-0.6,0.5-1,1-1C110.4,90.3,110.8,90.8,110.8,91.3z"/>
	<path class="st0" d="M99.6,81.4c0,0.6-0.5,1-1,1c-0.6,0-1-0.5-1-1s0.5-1,1-1C99.1,80.4,99.6,80.9,99.6,81.4z"/>
	<path class="st0" d="M103.5,102.6c0,0.6-0.5,1-1,1s-1-0.5-1-1c0-0.6,0.5-1,1-1S103.5,102,103.5,102.6z"/>
	<circle class="st0" cx="85.4" cy="53.7" r="1"/>
	<path class="st0" d="M99.6,81.4c0,0.6-0.5,1-1,1c-0.6,0-1-0.5-1-1s0.5-1,1-1C99.1,80.4,99.6,80.9,99.6,81.4z"/>
	<path class="st0" d="M82.4,73.5c0,0.6-0.5,1-1,1c-0.6,0-1-0.5-1-1c0-0.6,0.5-1,1-1C82,72.5,82.4,72.9,82.4,73.5z"/>
	<circle class="st0" cx="85.4" cy="53.7" r="1"/>
	<path class="st0" d="M112.8,60.3c0,0.6-0.5,1-1,1c-0.6,0-1-0.5-1-1c0-0.6,0.5-1,1-1C112.3,59.3,112.8,59.7,112.8,60.3z"/>
	<path class="st0" d="M99.6,81.4c0,0.6-0.5,1-1,1c-0.6,0-1-0.5-1-1s0.5-1,1-1C99.1,80.4,99.6,80.9,99.6,81.4z"/>
	<circle class="st0" cx="85.4" cy="53.7" r="1"/>
	<circle class="st0" cx="85.4" cy="53.7" r="1"/>
	<path class="st0" d="M69.2,64.3c0,0.6-0.5,1-1,1c-0.6,0-1-0.5-1-1c0-0.6,0.5-1,1-1C68.8,63.3,69.2,63.7,69.2,64.3z"/>
	<path class="st0" d="M63.3,51.7c0,0.6-0.5,1-1,1c-0.6,0-1-0.5-1-1s0.5-1,1-1C62.8,50.7,63.3,51.2,63.3,51.7z"/>
	<circle class="st0" cx="85.4" cy="53.7" r="1"/>
	<path class="st0" d="M82.4,73.5c0,0.6-0.5,1-1,1c-0.6,0-1-0.5-1-1c0-0.6,0.5-1,1-1C82,72.5,82.4,72.9,82.4,73.5z"/>
	<path class="st0" d="M69.2,64.3c0,0.6-0.5,1-1,1c-0.6,0-1-0.5-1-1c0-0.6,0.5-1,1-1C68.8,63.3,69.2,63.7,69.2,64.3z"/>
	<circle class="st0" cx="85.4" cy="53.7" r="1"/>
	<path class="st0" d="M143.8,58.3c0,0.6-0.5,1-1,1c-0.6,0-1-0.5-1-1s0.5-1,1-1C143.4,57.3,143.8,57.8,143.8,58.3z"/>
	<path class="st0" d="M139.2,74.8c0,0.6-0.5,1-1,1c-0.6,0-1-0.5-1-1c0-0.6,0.5-1,1-1C138.7,73.8,139.2,74.3,139.2,74.8z"/>
	<path class="st0" d="M158.3,59.6c0,0.6-0.5,1-1,1c-0.6,0-1-0.5-1-1c0-0.6,0.5-1,1-1C157.9,58.6,158.3,59.1,158.3,59.6z"/>
	<path class="st0" d="M158.3,59.6c0,0.6-0.5,1-1,1c-0.6,0-1-0.5-1-1c0-0.6,0.5-1,1-1C157.9,58.6,158.3,59.1,158.3,59.6z"/>
	<path class="st0" d="M163.6,73.5c0,0.6-0.5,1-1,1s-1-0.5-1-1c0-0.6,0.5-1,1-1S163.6,72.9,163.6,73.5z"/>
	<path class="st0" d="M139.2,74.8c0,0.6-0.5,1-1,1c-0.6,0-1-0.5-1-1c0-0.6,0.5-1,1-1C138.7,73.8,139.2,74.3,139.2,74.8z"/>
	<path class="st0" d="M158.3,59.6c0,0.6-0.5,1-1,1c-0.6,0-1-0.5-1-1c0-0.6,0.5-1,1-1C157.9,58.6,158.3,59.1,158.3,59.6z"/>
	<path class="st0" d="M158.3,59.6c0,0.6-0.5,1-1,1c-0.6,0-1-0.5-1-1c0-0.6,0.5-1,1-1C157.9,58.6,158.3,59.1,158.3,59.6z"/>
	<path class="st0" d="M175.5,73.5c0,0.6-0.5,1-1,1c-0.6,0-1-0.5-1-1c0-0.6,0.5-1,1-1C175,72.5,175.5,72.9,175.5,73.5z"/>
	<path class="st0" d="M163.6,73.5c0,0.6-0.5,1-1,1s-1-0.5-1-1c0-0.6,0.5-1,1-1S163.6,72.9,163.6,73.5z"/>
	<path class="st0" d="M158.3,59.6c0,0.6-0.5,1-1,1c-0.6,0-1-0.5-1-1c0-0.6,0.5-1,1-1C157.9,58.6,158.3,59.1,158.3,59.6z"/>
	<path class="st0" d="M197.9,51.1c0,0.6-0.5,1-1,1c-0.6,0-1-0.5-1-1s0.5-1,1-1C197.5,50,197.9,50.5,197.9,51.1z"/>
	<path class="st0" d="M175.5,73.5c0,0.6-0.5,1-1,1c-0.6,0-1-0.5-1-1c0-0.6,0.5-1,1-1C175,72.5,175.5,72.9,175.5,73.5z"/>
	<path class="st0" d="M158.3,59.6c0,0.6-0.5,1-1,1c-0.6,0-1-0.5-1-1c0-0.6,0.5-1,1-1C157.9,58.6,158.3,59.1,158.3,59.6z"/>
</g>
<g>
	<g id="triangle36_168_">
		<path class="st1" d="M236.3,69.5L236.3,69.5l14.8,0.9l-22.7,7.8L236.3,69.5z M250,70.5l-13.7-0.8l-7.2,8L250,70.5z"/>
	</g>
	<g id="triangle36_167_">
		<path class="st1" d="M250.8,70.3l-0.2,0.3l-16.9,27l-5.1-19.6l0.1,0L250.8,70.3z M233.8,97l16.5-26.3l-21.4,7.4L233.8,97z"/>
	</g>
	<g id="triangle36_166_">
		<path class="st1" d="M264.8,50.1l0.1,0.2l7.6,30.4l-22.1-10.2l0.1-0.1L264.8,50.1z M272.2,80.3l-7.4-29.7l-14,19.8L272.2,80.3z"/>
	</g>
	<g id="triangle36_165_">
		<path class="st1" d="M264.6,50.1l0.2,0.2L285,65.4l-0.1,0.1l-12.7,15.2l0-0.2L264.6,50.1z M284.7,65.5l-19.8-14.8l7.4,29.7
			L284.7,65.5z"/>
	</g>
	<g id="triangle36_164_">
		<polygon class="st1" points="151.8,39.5 154.3,80 166.7,45.3 166.9,45.4 154.1,81 151.6,39.5 		"/>
	</g>
	<g id="triangle36_163_">
		<polygon class="st1" points="286.4,26.1 286.7,26.1 285,65.9 272.2,32.8 272.4,32.7 284.8,64.9 		"/>
	</g>
	<g id="triangle36_162_">
		<polygon class="st1" points="272.4,32.7 285.1,65.7 264.7,50.4 264.8,50.3 284.6,65.1 272.2,32.8 		"/>
	</g>
	<g id="triangle36_161_">
		<path class="st1" d="M236.2,57.7l0.2,0.2l14.5,12.8l-14.6-0.9V57.7z M250.2,70.3l-13.8-12.2v11.4L250.2,70.3z"/>
	</g>
	<g id="triangle36_160_">
		<path class="st1" d="M102.9,80.4h51.6l-0.2,0.2l-28.6,28.6l-0.1-0.1L102.9,80.4z M154,80.6h-50.6l22.4,28.2L154,80.6z"/>
	</g>
	<g id="triangle36_159_">
		<polygon class="st1" points="286.4,26.1 286.7,26.1 285,65.2 314.1,36.1 314.3,36.2 284.8,65.7 		"/>
	</g>
	<g id="triangle36_158_">
		
			<rect x="278.8" y="50.7" transform="matrix(0.7069 -0.7073 0.7073 0.7069 51.8808 226.7577)" class="st1" width="41.5" height="0.2"/>
	</g>
	<g id="triangle36_157_">
		<polygon class="st1" points="284.6,65.2 284.9,65.3 336,84.6 335.9,84.8 285.2,65.7 309.2,100.6 309.1,100.7 		"/>
	</g>
	<g id="triangle36_156_">
		<polygon class="st1" points="206.9,47.8 207.1,47.9 200.4,78.6 217,68.7 217.1,68.9 200.1,79.1 200.2,78.8 		"/>
	</g>
	<g id="triangle36_155_">
		<polygon class="st1" points="185.3,45.3 200.2,78.5 206.9,47.8 207.1,47.9 200.3,79.2 200.2,78.9 185.1,45.4 		"/>
	</g>
	<g id="triangle36_154_">
		<path class="st1" d="M17.7,55.3L17.7,55.3l36.5,18.7l-0.5,0L4.1,71.4L17.7,55.3z M53.2,73.7L17.7,55.5L4.5,71.2L53.2,73.7z"/>
	</g>
	<g id="triangle36_153_">
		<path class="st1" d="M185.2,45.1l0.1,0.2l15.1,33.6l-0.2,0l-31.2,1.7l0.1-0.2L185.2,45.1z M200.1,78.7l-14.9-33.2l-15.7,34.8
			L200.1,78.7z"/>
	</g>
	<g id="triangle36_152_">
		<polygon class="st1" points="185.1,45.3 185.3,45.4 169.2,80.9 166.7,45.3 166.9,45.3 169.4,80.1 		"/>
	</g>
	<g id="triangle36_151_">
		<path class="st1" d="M166.9,44.8l0,0.5l2.5,35.3h-15.3l0-0.1L166.9,44.8z M169.2,80.4l-2.5-34.6l-12.3,34.6H169.2z"/>
	</g>
	<g id="triangle36_150_">
		<polygon class="st1" points="228.8,77.8 228.9,78 233.9,97.2 233.7,97.3 228.7,78.2 202.9,94.8 202.7,94.7 		"/>
	</g>
	<g id="triangle36_149_">
		<path class="st1" d="M229.1,77.9l-26.4,17l0-0.2l-2.5-16l0.1,0L229.1,77.9z M202.9,94.6l25.5-16.5l-28,0.8L202.9,94.6z"/>
	</g>
	<g id="triangle36_148_">
		<polygon class="st1" points="8.6,38.6 18,55.7 17.6,55.5 3.4,47.1 3.5,46.9 17.4,55.1 8.4,38.7 		"/>
	</g>
	<g id="triangle36_147_">
		<polygon class="st1" points="3.5,46.9 17.9,55.4 17.8,55.5 4.4,71.4 4.2,71.2 17.5,55.4 3.4,47.1 		"/>
	</g>
	<g id="triangle36_146_">
		<polygon class="st1" points="53.6,73.7 53.7,73.7 94.8,87.1 94.7,87.3 53.8,74 53,117.4 52.8,117.4 		"/>
	</g>
	<g id="triangle36_145_">
		<polygon class="st1" points="53.8,73.3 53,117.4 52.8,117.4 53.6,74.3 33.7,119.1 33.5,119 		"/>
	</g>
	<g id="triangle36_144_">
		<path class="st1" d="M151.8,39.3l0,0.1l2.5,41.2l-0.2-0.1l-53-26.1l0.3-0.1L151.8,39.3z M154.1,80.3l-2.5-40.7l-49.9,15
			L154.1,80.3z"/>
	</g>
	<g id="triangle36_143_">
		<path class="st1" d="M101.3,54.4l0.2,0.1l53.2,26.2H103l0-0.1L101.3,54.4z M153.8,80.4l-52.2-25.7l1.7,25.7H153.8z"/>
	</g>
	<g id="triangle36_142_">
		<polygon class="st1" points="113.9,26 114.1,26.1 101.6,54.4 151.7,39.4 151.7,39.6 101.3,54.7 		"/>
	</g>
	<g id="triangle36_141_">
		<polygon class="st1" points="84.8,2.6 101.5,54.3 113.9,26 114.1,26.1 101.4,54.8 101.4,54.6 84.6,2.7 		"/>
	</g>
	<g id="triangle36_140_">
		<path class="st1" d="M101.5,53.8l0.1,0.8l1.7,26l-8.6,6.9l0.1-0.3L101.5,53.8z M103,80.5l-1.6-25.1L94.9,87L103,80.5z"/>
	</g>
	<g id="triangle36_139_">
		<path class="st1" d="M101.6,54.4l0,0.2l-6.7,32.8l-0.1,0L53.4,73.8l0.3-0.1L101.6,54.4z M94.7,87.1l6.6-32.4L54,73.8L94.7,87.1z"
			/>
	</g>
	<g id="triangle36_138_">
		<polygon class="st1" points="84.8,2.6 101.6,54.7 35.3,35.4 35.3,35.2 101.3,54.4 84.6,2.7 		"/>
	</g>
	<g id="triangle36_137_">
		<path class="st1" d="M35.1,35.1l0.2,0.1l66.5,19.3l-0.3,0.1L53.7,73.9l0-0.1L35.1,35.1z M101.1,54.6L35.5,35.5l18.3,38.2
			L101.1,54.6z"/>
	</g>
	<g id="triangle36_136_">
		<path class="st1" d="M35.3,35.1l0.1,0.1L53.9,74L17.5,55.4L35.3,35.1z M53.5,73.6L35.3,35.5L17.9,55.4L53.5,73.6z"/>
	</g>
	<g id="triangle36_135_">
		<polygon class="st1" points="35.2,35.2 35.4,35.4 17.7,55.6 17.6,55.4 8.4,38.7 8.6,38.6 17.7,55.2 		"/>
	</g>
	<g id="triangle36_134_">
		<polygon class="st1" points="200.3,78.3 200.4,78.8 202.9,94.7 202.7,94.8 200.3,79.3 194.5,99.8 194.3,99.8 		"/>
	</g>
	<g id="triangle36_133_">
		<polygon class="st1" points="103.1,80.3 103.2,80.5 125.8,108.9 125.7,109.1 103.2,80.8 99.9,102.3 99.7,102.3 		"/>
	</g>
	<g id="triangle36_132_">
		<polygon class="st1" points="103.3,80.3 103.2,80.5 99.9,102.3 99.7,102.3 103,80.8 94.8,87.3 94.7,87.1 		"/>
	</g>
	<g id="triangle36_131_">
		<polygon class="st1" points="236.2,57.9 236.4,57.9 236.4,69.7 222.9,71.4 222.9,71.2 236.2,69.5 		"/>
	</g>
	<g id="triangle36_130_">
		<path class="st1" d="M236.6,69.5l-7.8,8.7l-6.1-6.9L236.6,69.5z M228.8,77.8l7.3-8.1l-12.9,1.6L228.8,77.8z"/>
	</g>
	<g id="triangle36_129_">
		<path class="st1" d="M222.9,71.2l6.1,6.9L199.6,79L222.9,71.2z M228.5,77.9l-5.7-6.5L201,78.7L228.5,77.9z"/>
	</g>
	<g id="triangle36_128_">
		<polygon class="st1" points="217,68.7 217.1,68.9 201.2,78.4 222.9,71.2 222.9,71.4 199.4,79.2 		"/>
	</g>
	<g id="triangle36_127_">
		<polygon class="st1" points="288.8,92 289.1,92.1 309.2,100.5 309.1,100.7 289.3,92.4 296.7,108.1 296.5,108.2 		"/>
	</g>
	<g id="triangle36_126_">
		<path class="st1" d="M284.7,65l0.3,0.4l24.5,35.5L289,92.3L284.7,65z M308.9,100.4L285,65.9l4.1,26.3L308.9,100.4z"/>
	</g>
	<g id="triangle36_125_">
		<path class="st1" d="M284.9,65.2l0,0.2l4.2,27l-0.2-0.1l-16.8-11.8l0.1-0.1L284.9,65.2z M288.9,92l-4.1-26.3l-12.3,14.8L288.9,92z
			"/>
	</g>
	<g id="triangle36_124_">
		<polygon class="st1" points="54,73.5 53.8,73.9 33.7,119.1 33.5,119 53.5,74.1 15.2,100.7 15.1,100.5 		"/>
	</g>
	<g id="triangle36_123_">
		<polygon class="st1" points="4.3,71.2 54,73.7 53.8,73.9 15.2,100.7 15.1,100.5 53.4,73.9 4.3,71.4 		"/>
	</g>
	<g id="triangle36_122_">
		<polygon class="st1" points="245.6,43.6 250.6,70.2 264.7,50.3 264.9,50.4 250.5,70.7 250.4,70.5 245.4,43.7 		"/>
	</g>
	<g id="triangle36_121_">
		<polygon class="st1" points="245.6,43.6 250.7,70.7 236.2,58 236.4,57.8 250.4,70.2 245.4,43.7 		"/>
	</g>
	<g id="triangle36_120_">
		<path class="st1" d="M250.3,70.2l22.1,10.2l0,0.1l-5.1,25.4l-0.1-0.3L250.3,70.2z M272.2,80.6l-21.4-9.9l16.5,34.6L272.2,80.6z"/>
	</g>
	<g id="triangle36_119_">
		<polygon class="st1" points="250.5,70.2 250.6,70.4 267.4,105.6 267.2,105.7 250.5,70.7 233.9,97.3 233.7,97.2 		"/>
	</g>
	<g id="triangle36_118_">
		<polygon class="st1" points="289.1,92.1 296.7,108.1 296.5,108.2 289,92.4 267.3,105.7 267.2,105.6 		"/>
	</g>
	<g id="triangle36_117_">
		<path class="st1" d="M272.2,80.3l17,11.9l-0.1,0.1l-22,13.5l0-0.2L272.2,80.3z M288.9,92.2l-16.5-11.5l-4.9,24.7L288.9,92.2z"/>
	</g>
	<g id="triangle36_116_">
		<polygon class="st1" points="200.5,78.6 200.4,78.9 194.5,99.8 194.3,99.8 200.1,79.1 176.1,98.2 175.9,98 		"/>
	</g>
	<g id="triangle36_115_">
		<path class="st1" d="M200.6,78.7l-24.7,19.6l-0.1-0.1l-6.8-17.7L200.6,78.7z M176,97.9L200,79l-30.5,1.6L176,97.9z"/>
	</g>
	<g id="triangle36_114_">
		<path class="st1" d="M153.9,80.4h15.4l0,0.1l6.8,17.9l-0.3-0.2L153.9,80.4z M169.2,80.6h-14.7l21.2,17.2L169.2,80.6z"/>
	</g>
	<g id="triangle36_113_">
		<polygon class="st1" points="154.2,80.4 154.3,80.4 176.1,98 175.9,98.2 154.2,80.7 125.8,109.1 125.7,108.9 		"/>
	</g>
	<path class="st1" d="M249.2,70.5c0-0.7,0.6-1.3,1.3-1.3c0.7,0,1.3,0.6,1.3,1.3s-0.6,1.3-1.3,1.3C249.8,71.8,249.2,71.2,249.2,70.5z
		"/>
	<path class="st1" d="M227.5,78c0-0.7,0.6-1.3,1.3-1.3c0.7,0,1.3,0.6,1.3,1.3c0,0.7-0.6,1.3-1.3,1.3C228,79.3,227.5,78.7,227.5,78z"
		/>
	<path class="st1" d="M235,69.6c0-0.7,0.6-1.3,1.3-1.3c0.7,0,1.3,0.6,1.3,1.3c0,0.7-0.6,1.3-1.3,1.3C235.6,70.9,235,70.3,235,69.6z"
		/>
	<path class="st1" d="M232.5,97.3c0-0.7,0.6-1.3,1.3-1.3c0.7,0,1.3,0.6,1.3,1.3c0,0.7-0.6,1.3-1.3,1.3
		C233.1,98.6,232.5,98,232.5,97.3z"/>
	<path class="st1" d="M249.2,70.5c0-0.7,0.6-1.3,1.3-1.3c0.7,0,1.3,0.6,1.3,1.3s-0.6,1.3-1.3,1.3C249.8,71.8,249.2,71.2,249.2,70.5z
		"/>
	<path class="st1" d="M227.5,78c0-0.7,0.6-1.3,1.3-1.3c0.7,0,1.3,0.6,1.3,1.3c0,0.7-0.6,1.3-1.3,1.3C228,79.3,227.5,78.7,227.5,78z"
		/>
	<path class="st1" d="M232.5,97.3c0-0.7,0.6-1.3,1.3-1.3c0.7,0,1.3,0.6,1.3,1.3c0,0.7-0.6,1.3-1.3,1.3
		C233.1,98.6,232.5,98,232.5,97.3z"/>
	<path class="st1" d="M263.5,50.4c0-0.7,0.6-1.3,1.3-1.3c0.7,0,1.3,0.6,1.3,1.3c0,0.7-0.6,1.3-1.3,1.3
		C264.1,51.7,263.5,51.1,263.5,50.4z"/>
	<path class="st1" d="M271,80.5c0-0.7,0.6-1.3,1.3-1.3c0.7,0,1.3,0.6,1.3,1.3c0,0.7-0.6,1.3-1.3,1.3C271.6,81.8,271,81.2,271,80.5z"
		/>
	<path class="st1" d="M249.2,70.5c0-0.7,0.6-1.3,1.3-1.3c0.7,0,1.3,0.6,1.3,1.3s-0.6,1.3-1.3,1.3C249.8,71.8,249.2,71.2,249.2,70.5z
		"/>
	<path class="st1" d="M263.5,50.4c0-0.7,0.6-1.3,1.3-1.3c0.7,0,1.3,0.6,1.3,1.3c0,0.7-0.6,1.3-1.3,1.3
		C264.1,51.7,263.5,51.1,263.5,50.4z"/>
	<path class="st1" d="M263.5,50.4c0-0.7,0.6-1.3,1.3-1.3c0.7,0,1.3,0.6,1.3,1.3c0,0.7-0.6,1.3-1.3,1.3
		C264.1,51.7,263.5,51.1,263.5,50.4z"/>
	<path class="st1" d="M283.6,65.4c0-0.7,0.6-1.3,1.3-1.3c0.7,0,1.3,0.6,1.3,1.3c0,0.7-0.6,1.3-1.3,1.3
		C284.2,66.7,283.6,66.2,283.6,65.4z"/>
	<path class="st1" d="M271,80.5c0-0.7,0.6-1.3,1.3-1.3c0.7,0,1.3,0.6,1.3,1.3c0,0.7-0.6,1.3-1.3,1.3C271.6,81.8,271,81.2,271,80.5z"
		/>
	<path class="st1" d="M263.5,50.4c0-0.7,0.6-1.3,1.3-1.3c0.7,0,1.3,0.6,1.3,1.3c0,0.7-0.6,1.3-1.3,1.3
		C264.1,51.7,263.5,51.1,263.5,50.4z"/>
	<path class="st1" d="M165.5,45.3c0-0.7,0.6-1.3,1.3-1.3c0.7,0,1.3,0.6,1.3,1.3c0,0.7-0.6,1.3-1.3,1.3
		C166.1,46.6,165.5,46.1,165.5,45.3z"/>
	<path class="st1" d="M152.9,80.5c0-0.7,0.6-1.3,1.3-1.3c0.7,0,1.3,0.6,1.3,1.3c0,0.7-0.6,1.3-1.3,1.3
		C153.5,81.8,152.9,81.2,152.9,80.5z"/>
	<path class="st1" d="M150.4,39.5c0-0.7,0.6-1.3,1.3-1.3c0.7,0,1.3,0.6,1.3,1.3c0,0.7-0.6,1.3-1.3,1.3
		C151,40.8,150.4,40.2,150.4,39.5z"/>
	<path class="st1" d="M271,32.8c0-0.7,0.6-1.3,1.3-1.3c0.7,0,1.3,0.6,1.3,1.3c0,0.7-0.6,1.3-1.3,1.3C271.6,34.1,271,33.5,271,32.8z"
		/>
	<path class="st1" d="M283.6,65.4c0-0.7,0.6-1.3,1.3-1.3c0.7,0,1.3,0.6,1.3,1.3c0,0.7-0.6,1.3-1.3,1.3
		C284.2,66.7,283.6,66.2,283.6,65.4z"/>
	<path class="st1" d="M285.3,26.1c0-0.7,0.6-1.3,1.3-1.3s1.3,0.6,1.3,1.3c0,0.7-0.6,1.3-1.3,1.3S285.3,26.8,285.3,26.1z"/>
	<path class="st1" d="M263.5,50.4c0-0.7,0.6-1.3,1.3-1.3c0.7,0,1.3,0.6,1.3,1.3c0,0.7-0.6,1.3-1.3,1.3
		C264.1,51.7,263.5,51.1,263.5,50.4z"/>
	<path class="st1" d="M283.6,65.4c0-0.7,0.6-1.3,1.3-1.3c0.7,0,1.3,0.6,1.3,1.3c0,0.7-0.6,1.3-1.3,1.3
		C284.2,66.7,283.6,66.2,283.6,65.4z"/>
	<path class="st1" d="M271,32.8c0-0.7,0.6-1.3,1.3-1.3c0.7,0,1.3,0.6,1.3,1.3c0,0.7-0.6,1.3-1.3,1.3C271.6,34.1,271,33.5,271,32.8z"
		/>
	<path class="st1" d="M235,57.9c0-0.7,0.6-1.3,1.3-1.3c0.7,0,1.3,0.6,1.3,1.3c0,0.7-0.6,1.3-1.3,1.3C235.6,59.2,235,58.6,235,57.9z"
		/>
	<path class="st1" d="M235,69.6c0-0.7,0.6-1.3,1.3-1.3c0.7,0,1.3,0.6,1.3,1.3c0,0.7-0.6,1.3-1.3,1.3C235.6,70.9,235,70.3,235,69.6z"
		/>
	<path class="st1" d="M249.2,70.5c0-0.7,0.6-1.3,1.3-1.3c0.7,0,1.3,0.6,1.3,1.3s-0.6,1.3-1.3,1.3C249.8,71.8,249.2,71.2,249.2,70.5z
		"/>
	<path class="st1" d="M235,57.9c0-0.7,0.6-1.3,1.3-1.3c0.7,0,1.3,0.6,1.3,1.3c0,0.7-0.6,1.3-1.3,1.3C235.6,59.2,235,58.6,235,57.9z"
		/>
	<path class="st1" d="M124.5,109c0-0.7,0.6-1.3,1.3-1.3c0.7,0,1.3,0.6,1.3,1.3s-0.6,1.3-1.3,1.3C125,110.3,124.5,109.7,124.5,109z"
		/>
	<path class="st1" d="M152.9,80.5c0-0.7,0.6-1.3,1.3-1.3c0.7,0,1.3,0.6,1.3,1.3c0,0.7-0.6,1.3-1.3,1.3
		C153.5,81.8,152.9,81.2,152.9,80.5z"/>
	<path class="st1" d="M101.8,80.5c0-0.7,0.6-1.3,1.3-1.3c0.7,0,1.3,0.6,1.3,1.3c0,0.7-0.6,1.3-1.3,1.3
		C102.4,81.8,101.8,81.2,101.8,80.5z"/>
	<path class="st1" d="M124.5,109c0-0.7,0.6-1.3,1.3-1.3c0.7,0,1.3,0.6,1.3,1.3s-0.6,1.3-1.3,1.3C125,110.3,124.5,109.7,124.5,109z"
		/>
	<path class="st1" d="M312.9,36.1c0-0.7,0.6-1.3,1.3-1.3c0.7,0,1.3,0.6,1.3,1.3c0,0.7-0.6,1.3-1.3,1.3
		C313.5,37.4,312.9,36.8,312.9,36.1z"/>
	<path class="st1" d="M283.6,65.4c0-0.7,0.6-1.3,1.3-1.3c0.7,0,1.3,0.6,1.3,1.3c0,0.7-0.6,1.3-1.3,1.3
		C284.2,66.7,283.6,66.2,283.6,65.4z"/>
	<path class="st1" d="M285.3,26.1c0-0.7,0.6-1.3,1.3-1.3s1.3,0.6,1.3,1.3c0,0.7-0.6,1.3-1.3,1.3S285.3,26.8,285.3,26.1z"/>
	<path class="st1" d="M283.6,65.4c0-0.7,0.6-1.3,1.3-1.3c0.7,0,1.3,0.6,1.3,1.3c0,0.7-0.6,1.3-1.3,1.3
		C284.2,66.7,283.6,66.2,283.6,65.4z"/>
	<path class="st1" d="M312.9,36.1c0-0.7,0.6-1.3,1.3-1.3c0.7,0,1.3,0.6,1.3,1.3c0,0.7-0.6,1.3-1.3,1.3
		C313.5,37.4,312.9,36.8,312.9,36.1z"/>
	<path class="st1" d="M334.7,84.7c0-0.7,0.6-1.3,1.3-1.3c0.7,0,1.3,0.6,1.3,1.3c0,0.7-0.6,1.3-1.3,1.3
		C335.3,86,334.7,85.4,334.7,84.7z"/>
	<path class="st1" d="M283.6,65.4c0-0.7,0.6-1.3,1.3-1.3c0.7,0,1.3,0.6,1.3,1.3c0,0.7-0.6,1.3-1.3,1.3
		C284.2,66.7,283.6,66.2,283.6,65.4z"/>
	<path class="st1" d="M307.9,100.6c0-0.7,0.6-1.3,1.3-1.3c0.7,0,1.3,0.6,1.3,1.3c0,0.7-0.6,1.3-1.3,1.3
		C308.4,101.9,307.9,101.3,307.9,100.6z"/>
	<path class="st1" d="M205.7,47.9c0-0.7,0.6-1.3,1.3-1.3c0.7,0,1.3,0.6,1.3,1.3s-0.6,1.3-1.3,1.3C206.3,49.1,205.7,48.6,205.7,47.9z
		"/>
	<path class="st1" d="M199,78.8c0-0.7,0.6-1.3,1.3-1.3c0.7,0,1.3,0.6,1.3,1.3s-0.6,1.3-1.3,1.3C199.6,80.1,199,79.6,199,78.8z"/>
	<path class="st1" d="M215.7,68.8c0-0.7,0.6-1.3,1.3-1.3c0.7,0,1.3,0.6,1.3,1.3c0,0.7-0.6,1.3-1.3,1.3
		C216.3,70.1,215.7,69.5,215.7,68.8z"/>
	<path class="st1" d="M183.9,45.3c0-0.7,0.6-1.3,1.3-1.3c0.7,0,1.3,0.6,1.3,1.3c0,0.7-0.6,1.3-1.3,1.3
		C184.5,46.6,183.9,46.1,183.9,45.3z"/>
	<path class="st1" d="M199,78.8c0-0.7,0.6-1.3,1.3-1.3c0.7,0,1.3,0.6,1.3,1.3s-0.6,1.3-1.3,1.3C199.6,80.1,199,79.6,199,78.8z"/>
	<path class="st1" d="M205.7,47.9c0-0.7,0.6-1.3,1.3-1.3c0.7,0,1.3,0.6,1.3,1.3s-0.6,1.3-1.3,1.3C206.3,49.1,205.7,48.6,205.7,47.9z
		"/>
	<path class="st1" d="M3,71.3C3,70.6,3.6,70,4.3,70c0.7,0,1.3,0.6,1.3,1.3S5,72.6,4.3,72.6C3.6,72.6,3,72,3,71.3z"/>
	<path class="st1" d="M52.4,73.8c0-0.7,0.6-1.3,1.3-1.3c0.7,0,1.3,0.6,1.3,1.3c0,0.7-0.6,1.3-1.3,1.3C53,75.1,52.4,74.5,52.4,73.8z"
		/>
	<path class="st1" d="M16.4,55.4c0-0.7,0.6-1.3,1.3-1.3c0.7,0,1.3,0.6,1.3,1.3c0,0.7-0.6,1.3-1.3,1.3C17,56.7,16.4,56.1,16.4,55.4z"
		/>
	<path class="st1" d="M3,71.3C3,70.6,3.6,70,4.3,70c0.7,0,1.3,0.6,1.3,1.3S5,72.6,4.3,72.6C3.6,72.6,3,72,3,71.3z"/>
	<path class="st1" d="M183.9,45.3c0-0.7,0.6-1.3,1.3-1.3c0.7,0,1.3,0.6,1.3,1.3c0,0.7-0.6,1.3-1.3,1.3
		C184.5,46.6,183.9,46.1,183.9,45.3z"/>
	<path class="st1" d="M199,78.8c0-0.7,0.6-1.3,1.3-1.3c0.7,0,1.3,0.6,1.3,1.3s-0.6,1.3-1.3,1.3C199.6,80.1,199,79.6,199,78.8z"/>
	<path class="st1" d="M168,80.5c0-0.7,0.6-1.3,1.3-1.3c0.7,0,1.3,0.6,1.3,1.3c0,0.7-0.6,1.3-1.3,1.3C168.6,81.8,168,81.2,168,80.5z"
		/>
	<path class="st1" d="M183.9,45.3c0-0.7,0.6-1.3,1.3-1.3c0.7,0,1.3,0.6,1.3,1.3c0,0.7-0.6,1.3-1.3,1.3
		C184.5,46.6,183.9,46.1,183.9,45.3z"/>
	<path class="st1" d="M183.9,45.3c0-0.7,0.6-1.3,1.3-1.3c0.7,0,1.3,0.6,1.3,1.3c0,0.7-0.6,1.3-1.3,1.3
		C184.5,46.6,183.9,46.1,183.9,45.3z"/>
	<path class="st1" d="M168,80.5c0-0.7,0.6-1.3,1.3-1.3c0.7,0,1.3,0.6,1.3,1.3c0,0.7-0.6,1.3-1.3,1.3C168.6,81.8,168,81.2,168,80.5z"
		/>
	<path class="st1" d="M165.5,45.3c0-0.7,0.6-1.3,1.3-1.3c0.7,0,1.3,0.6,1.3,1.3c0,0.7-0.6,1.3-1.3,1.3
		C166.1,46.6,165.5,46.1,165.5,45.3z"/>
	<path class="st1" d="M165.5,45.3c0-0.7,0.6-1.3,1.3-1.3c0.7,0,1.3,0.6,1.3,1.3c0,0.7-0.6,1.3-1.3,1.3
		C166.1,46.6,165.5,46.1,165.5,45.3z"/>
	<path class="st1" d="M168,80.5c0-0.7,0.6-1.3,1.3-1.3c0.7,0,1.3,0.6,1.3,1.3c0,0.7-0.6,1.3-1.3,1.3C168.6,81.8,168,81.2,168,80.5z"
		/>
	<path class="st1" d="M152.9,80.5c0-0.7,0.6-1.3,1.3-1.3c0.7,0,1.3,0.6,1.3,1.3c0,0.7-0.6,1.3-1.3,1.3
		C153.5,81.8,152.9,81.2,152.9,80.5z"/>
	<path class="st1" d="M165.5,45.3c0-0.7,0.6-1.3,1.3-1.3c0.7,0,1.3,0.6,1.3,1.3c0,0.7-0.6,1.3-1.3,1.3
		C166.1,46.6,165.5,46.1,165.5,45.3z"/>
	<path class="st1" d="M201.5,94.8c0-0.7,0.6-1.3,1.3-1.3c0.7,0,1.3,0.6,1.3,1.3c0,0.7-0.6,1.3-1.3,1.3
		C202.1,96,201.5,95.5,201.5,94.8z"/>
	<path class="st1" d="M227.5,78c0-0.7,0.6-1.3,1.3-1.3c0.7,0,1.3,0.6,1.3,1.3c0,0.7-0.6,1.3-1.3,1.3C228,79.3,227.5,78.7,227.5,78z"
		/>
	<path class="st1" d="M232.5,97.3c0-0.7,0.6-1.3,1.3-1.3c0.7,0,1.3,0.6,1.3,1.3c0,0.7-0.6,1.3-1.3,1.3
		C233.1,98.6,232.5,98,232.5,97.3z"/>
	<path class="st1" d="M201.5,94.8c0-0.7,0.6-1.3,1.3-1.3c0.7,0,1.3,0.6,1.3,1.3c0,0.7-0.6,1.3-1.3,1.3
		C202.1,96,201.5,95.5,201.5,94.8z"/>
	<path class="st1" d="M199,78.8c0-0.7,0.6-1.3,1.3-1.3c0.7,0,1.3,0.6,1.3,1.3s-0.6,1.3-1.3,1.3C199.6,80.1,199,79.6,199,78.8z"/>
	<path class="st1" d="M227.5,78c0-0.7,0.6-1.3,1.3-1.3c0.7,0,1.3,0.6,1.3,1.3c0,0.7-0.6,1.3-1.3,1.3C228,79.3,227.5,78.7,227.5,78z"
		/>
	<path class="st1" d="M201.5,94.8c0-0.7,0.6-1.3,1.3-1.3c0.7,0,1.3,0.6,1.3,1.3c0,0.7-0.6,1.3-1.3,1.3
		C202.1,96,201.5,95.5,201.5,94.8z"/>
	<path class="st1" d="M7.2,38.6c0-0.7,0.6-1.3,1.3-1.3c0.7,0,1.3,0.6,1.3,1.3c0,0.7-0.6,1.3-1.3,1.3C7.8,39.9,7.2,39.4,7.2,38.6z"/>
	<path class="st1" d="M16.4,55.4c0-0.7,0.6-1.3,1.3-1.3c0.7,0,1.3,0.6,1.3,1.3c0,0.7-0.6,1.3-1.3,1.3C17,56.7,16.4,56.1,16.4,55.4z"
		/>
	<path class="st1" d="M2.2,47c0-0.7,0.6-1.3,1.3-1.3c0.7,0,1.3,0.6,1.3,1.3c0,0.7-0.6,1.3-1.3,1.3C2.8,48.3,2.2,47.7,2.2,47z"/>
	<path class="st1" d="M3,71.3C3,70.6,3.6,70,4.3,70c0.7,0,1.3,0.6,1.3,1.3S5,72.6,4.3,72.6C3.6,72.6,3,72,3,71.3z"/>
	<path class="st1" d="M16.4,55.4c0-0.7,0.6-1.3,1.3-1.3c0.7,0,1.3,0.6,1.3,1.3c0,0.7-0.6,1.3-1.3,1.3C17,56.7,16.4,56.1,16.4,55.4z"
		/>
	<path class="st1" d="M2.2,47c0-0.7,0.6-1.3,1.3-1.3c0.7,0,1.3,0.6,1.3,1.3c0,0.7-0.6,1.3-1.3,1.3C2.8,48.3,2.2,47.7,2.2,47z"/>
	<path class="st1" d="M51.6,117.4c0-0.7,0.6-1.3,1.3-1.3c0.7,0,1.3,0.6,1.3,1.3c0,0.7-0.6,1.3-1.3,1.3
		C52.2,118.7,51.6,118.1,51.6,117.4z"/>
	<path class="st1" d="M52.4,73.8c0-0.7,0.6-1.3,1.3-1.3c0.7,0,1.3,0.6,1.3,1.3c0,0.7-0.6,1.3-1.3,1.3C53,75.1,52.4,74.5,52.4,73.8z"
		/>
	<path class="st1" d="M93.5,87.2c0-0.7,0.6-1.3,1.3-1.3c0.7,0,1.3,0.6,1.3,1.3c0,0.7-0.6,1.3-1.3,1.3C94,88.5,93.5,87.9,93.5,87.2z"
		/>
	<path class="st1" d="M32.3,119c0-0.7,0.6-1.3,1.3-1.3c0.7,0,1.3,0.6,1.3,1.3c0,0.7-0.6,1.3-1.3,1.3C32.9,120.3,32.3,119.8,32.3,119
		z"/>
	<path class="st1" d="M52.4,73.8c0-0.7,0.6-1.3,1.3-1.3c0.7,0,1.3,0.6,1.3,1.3c0,0.7-0.6,1.3-1.3,1.3C53,75.1,52.4,74.5,52.4,73.8z"
		/>
	<path class="st1" d="M51.6,117.4c0-0.7,0.6-1.3,1.3-1.3c0.7,0,1.3,0.6,1.3,1.3c0,0.7-0.6,1.3-1.3,1.3
		C52.2,118.7,51.6,118.1,51.6,117.4z"/>
	<path class="st1" d="M150.4,39.5c0-0.7,0.6-1.3,1.3-1.3c0.7,0,1.3,0.6,1.3,1.3c0,0.7-0.6,1.3-1.3,1.3
		C151,40.8,150.4,40.2,150.4,39.5z"/>
	<path class="st1" d="M152.9,80.5c0-0.7,0.6-1.3,1.3-1.3c0.7,0,1.3,0.6,1.3,1.3c0,0.7-0.6,1.3-1.3,1.3
		C153.5,81.8,152.9,81.2,152.9,80.5z"/>
	<path class="st1" d="M100.2,54.6c0-0.7,0.6-1.3,1.3-1.3c0.7,0,1.3,0.6,1.3,1.3c0,0.7-0.6,1.3-1.3,1.3
		C100.7,55.8,100.2,55.3,100.2,54.6z"/>
	<path class="st1" d="M150.4,39.5c0-0.7,0.6-1.3,1.3-1.3c0.7,0,1.3,0.6,1.3,1.3c0,0.7-0.6,1.3-1.3,1.3
		C151,40.8,150.4,40.2,150.4,39.5z"/>
	<path class="st1" d="M100.2,54.6c0-0.7,0.6-1.3,1.3-1.3c0.7,0,1.3,0.6,1.3,1.3c0,0.7-0.6,1.3-1.3,1.3
		C100.7,55.8,100.2,55.3,100.2,54.6z"/>
	<path class="st1" d="M101.8,80.5c0-0.7,0.6-1.3,1.3-1.3c0.7,0,1.3,0.6,1.3,1.3c0,0.7-0.6,1.3-1.3,1.3
		C102.4,81.8,101.8,81.2,101.8,80.5z"/>
	<path class="st1" d="M152.9,80.5c0-0.7,0.6-1.3,1.3-1.3c0.7,0,1.3,0.6,1.3,1.3c0,0.7-0.6,1.3-1.3,1.3
		C153.5,81.8,152.9,81.2,152.9,80.5z"/>
	<path class="st1" d="M150.4,39.5c0-0.7,0.6-1.3,1.3-1.3c0.7,0,1.3,0.6,1.3,1.3c0,0.7-0.6,1.3-1.3,1.3
		C151,40.8,150.4,40.2,150.4,39.5z"/>
	<path class="st1" d="M100.2,54.6c0-0.7,0.6-1.3,1.3-1.3c0.7,0,1.3,0.6,1.3,1.3c0,0.7-0.6,1.3-1.3,1.3
		C100.7,55.8,100.2,55.3,100.2,54.6z"/>
	<path class="st1" d="M112.7,26.1c0-0.7,0.6-1.3,1.3-1.3c0.7,0,1.3,0.6,1.3,1.3c0,0.7-0.6,1.3-1.3,1.3
		C113.3,27.4,112.7,26.8,112.7,26.1z"/>
	<path class="st1" d="M112.7,26.1c0-0.7,0.6-1.3,1.3-1.3c0.7,0,1.3,0.6,1.3,1.3c0,0.7-0.6,1.3-1.3,1.3
		C113.3,27.4,112.7,26.8,112.7,26.1z"/>
	<path class="st1" d="M100.2,54.6c0-0.7,0.6-1.3,1.3-1.3c0.7,0,1.3,0.6,1.3,1.3c0,0.7-0.6,1.3-1.3,1.3
		C100.7,55.8,100.2,55.3,100.2,54.6z"/>
	<path class="st1" d="M83.4,2.6c0-0.7,0.6-1.3,1.3-1.3c0.7,0,1.3,0.6,1.3,1.3c0,0.7-0.6,1.3-1.3,1.3C84,3.9,83.4,3.3,83.4,2.6z"/>
	<path class="st1" d="M93.5,87.2c0-0.7,0.6-1.3,1.3-1.3c0.7,0,1.3,0.6,1.3,1.3c0,0.7-0.6,1.3-1.3,1.3C94,88.5,93.5,87.9,93.5,87.2z"
		/>
	<path class="st1" d="M101.8,80.5c0-0.7,0.6-1.3,1.3-1.3c0.7,0,1.3,0.6,1.3,1.3c0,0.7-0.6,1.3-1.3,1.3
		C102.4,81.8,101.8,81.2,101.8,80.5z"/>
	<path class="st1" d="M100.2,54.6c0-0.7,0.6-1.3,1.3-1.3c0.7,0,1.3,0.6,1.3,1.3c0,0.7-0.6,1.3-1.3,1.3
		C100.7,55.8,100.2,55.3,100.2,54.6z"/>
	<path class="st1" d="M93.5,87.2c0-0.7,0.6-1.3,1.3-1.3c0.7,0,1.3,0.6,1.3,1.3c0,0.7-0.6,1.3-1.3,1.3C94,88.5,93.5,87.9,93.5,87.2z"
		/>
	<path class="st1" d="M93.5,87.2c0-0.7,0.6-1.3,1.3-1.3c0.7,0,1.3,0.6,1.3,1.3c0,0.7-0.6,1.3-1.3,1.3C94,88.5,93.5,87.9,93.5,87.2z"
		/>
	<path class="st1" d="M100.2,54.6c0-0.7,0.6-1.3,1.3-1.3c0.7,0,1.3,0.6,1.3,1.3c0,0.7-0.6,1.3-1.3,1.3
		C100.7,55.8,100.2,55.3,100.2,54.6z"/>
	<path class="st1" d="M52.4,73.8c0-0.7,0.6-1.3,1.3-1.3c0.7,0,1.3,0.6,1.3,1.3c0,0.7-0.6,1.3-1.3,1.3C53,75.1,52.4,74.5,52.4,73.8z"
		/>
	<path class="st1" d="M93.5,87.2c0-0.7,0.6-1.3,1.3-1.3c0.7,0,1.3,0.6,1.3,1.3c0,0.7-0.6,1.3-1.3,1.3C94,88.5,93.5,87.9,93.5,87.2z"
		/>
	<path class="st1" d="M83.4,2.6c0-0.7,0.6-1.3,1.3-1.3c0.7,0,1.3,0.6,1.3,1.3c0,0.7-0.6,1.3-1.3,1.3C84,3.9,83.4,3.3,83.4,2.6z"/>
	<path class="st1" d="M100.2,54.6c0-0.7,0.6-1.3,1.3-1.3c0.7,0,1.3,0.6,1.3,1.3c0,0.7-0.6,1.3-1.3,1.3
		C100.7,55.8,100.2,55.3,100.2,54.6z"/>
	<path class="st1" d="M34,35.3c0-0.7,0.6-1.3,1.3-1.3c0.7,0,1.3,0.6,1.3,1.3c0,0.7-0.6,1.3-1.3,1.3C34.6,36.6,34,36,34,35.3z"/>
	<path class="st1" d="M34,35.3c0-0.7,0.6-1.3,1.3-1.3c0.7,0,1.3,0.6,1.3,1.3c0,0.7-0.6,1.3-1.3,1.3C34.6,36.6,34,36,34,35.3z"/>
	<path class="st1" d="M52.4,73.8c0-0.7,0.6-1.3,1.3-1.3c0.7,0,1.3,0.6,1.3,1.3c0,0.7-0.6,1.3-1.3,1.3C53,75.1,52.4,74.5,52.4,73.8z"
		/>
	<path class="st1" d="M100.2,54.6c0-0.7,0.6-1.3,1.3-1.3c0.7,0,1.3,0.6,1.3,1.3c0,0.7-0.6,1.3-1.3,1.3
		C100.7,55.8,100.2,55.3,100.2,54.6z"/>
	<path class="st1" d="M34,35.3c0-0.7,0.6-1.3,1.3-1.3c0.7,0,1.3,0.6,1.3,1.3c0,0.7-0.6,1.3-1.3,1.3C34.6,36.6,34,36,34,35.3z"/>
	<path class="st1" d="M34,35.3c0-0.7,0.6-1.3,1.3-1.3c0.7,0,1.3,0.6,1.3,1.3c0,0.7-0.6,1.3-1.3,1.3C34.6,36.6,34,36,34,35.3z"/>
	<path class="st1" d="M16.4,55.4c0-0.7,0.6-1.3,1.3-1.3c0.7,0,1.3,0.6,1.3,1.3c0,0.7-0.6,1.3-1.3,1.3C17,56.7,16.4,56.1,16.4,55.4z"
		/>
	<path class="st1" d="M52.4,73.8c0-0.7,0.6-1.3,1.3-1.3c0.7,0,1.3,0.6,1.3,1.3c0,0.7-0.6,1.3-1.3,1.3C53,75.1,52.4,74.5,52.4,73.8z"
		/>
	<path class="st1" d="M34,35.3c0-0.7,0.6-1.3,1.3-1.3c0.7,0,1.3,0.6,1.3,1.3c0,0.7-0.6,1.3-1.3,1.3C34.6,36.6,34,36,34,35.3z"/>
	<path class="st1" d="M7.2,38.6c0-0.7,0.6-1.3,1.3-1.3c0.7,0,1.3,0.6,1.3,1.3c0,0.7-0.6,1.3-1.3,1.3C7.8,39.9,7.2,39.4,7.2,38.6z"/>
	<path class="st1" d="M16.4,55.4c0-0.7,0.6-1.3,1.3-1.3c0.7,0,1.3,0.6,1.3,1.3c0,0.7-0.6,1.3-1.3,1.3C17,56.7,16.4,56.1,16.4,55.4z"
		/>
	<path class="st1" d="M34,35.3c0-0.7,0.6-1.3,1.3-1.3c0.7,0,1.3,0.6,1.3,1.3c0,0.7-0.6,1.3-1.3,1.3C34.6,36.6,34,36,34,35.3z"/>
	<path class="st1" d="M193.1,99.8c0-0.7,0.6-1.3,1.3-1.3c0.7,0,1.3,0.6,1.3,1.3c0,0.7-0.6,1.3-1.3,1.3
		C193.7,101.1,193.1,100.5,193.1,99.8z"/>
	<path class="st1" d="M199,78.8c0-0.7,0.6-1.3,1.3-1.3c0.7,0,1.3,0.6,1.3,1.3s-0.6,1.3-1.3,1.3C199.6,80.1,199,79.6,199,78.8z"/>
	<path class="st1" d="M201.5,94.8c0-0.7,0.6-1.3,1.3-1.3c0.7,0,1.3,0.6,1.3,1.3c0,0.7-0.6,1.3-1.3,1.3
		C202.1,96,201.5,95.5,201.5,94.8z"/>
	<path class="st1" d="M98.5,102.3c0-0.7,0.6-1.3,1.3-1.3c0.7,0,1.3,0.6,1.3,1.3c0,0.7-0.6,1.3-1.3,1.3
		C99.1,103.6,98.5,103,98.5,102.3z"/>
	<path class="st1" d="M101.8,80.5c0-0.7,0.6-1.3,1.3-1.3c0.7,0,1.3,0.6,1.3,1.3c0,0.7-0.6,1.3-1.3,1.3
		C102.4,81.8,101.8,81.2,101.8,80.5z"/>
	<path class="st1" d="M124.5,109c0-0.7,0.6-1.3,1.3-1.3c0.7,0,1.3,0.6,1.3,1.3s-0.6,1.3-1.3,1.3C125,110.3,124.5,109.7,124.5,109z"
		/>
	<path class="st1" d="M93.5,87.2c0-0.7,0.6-1.3,1.3-1.3c0.7,0,1.3,0.6,1.3,1.3c0,0.7-0.6,1.3-1.3,1.3C94,88.5,93.5,87.9,93.5,87.2z"
		/>
	<path class="st1" d="M101.8,80.5c0-0.7,0.6-1.3,1.3-1.3c0.7,0,1.3,0.6,1.3,1.3c0,0.7-0.6,1.3-1.3,1.3
		C102.4,81.8,101.8,81.2,101.8,80.5z"/>
	<path class="st1" d="M98.5,102.3c0-0.7,0.6-1.3,1.3-1.3c0.7,0,1.3,0.6,1.3,1.3c0,0.7-0.6,1.3-1.3,1.3
		C99.1,103.6,98.5,103,98.5,102.3z"/>
	<path class="st1" d="M235,57.9c0-0.7,0.6-1.3,1.3-1.3c0.7,0,1.3,0.6,1.3,1.3c0,0.7-0.6,1.3-1.3,1.3C235.6,59.2,235,58.6,235,57.9z"
		/>
	<path class="st1" d="M235,69.6c0-0.7,0.6-1.3,1.3-1.3c0.7,0,1.3,0.6,1.3,1.3c0,0.7-0.6,1.3-1.3,1.3C235.6,70.9,235,70.3,235,69.6z"
		/>
	<path class="st1" d="M221.6,71.3c0-0.7,0.6-1.3,1.3-1.3c0.7,0,1.3,0.6,1.3,1.3s-0.6,1.3-1.3,1.3C222.2,72.6,221.6,72,221.6,71.3z"
		/>
	<path class="st1" d="M221.6,71.3c0-0.7,0.6-1.3,1.3-1.3c0.7,0,1.3,0.6,1.3,1.3s-0.6,1.3-1.3,1.3C222.2,72.6,221.6,72,221.6,71.3z"
		/>
	<path class="st1" d="M227.5,78c0-0.7,0.6-1.3,1.3-1.3c0.7,0,1.3,0.6,1.3,1.3c0,0.7-0.6,1.3-1.3,1.3C228,79.3,227.5,78.7,227.5,78z"
		/>
	<path class="st1" d="M235,69.6c0-0.7,0.6-1.3,1.3-1.3c0.7,0,1.3,0.6,1.3,1.3c0,0.7-0.6,1.3-1.3,1.3C235.6,70.9,235,70.3,235,69.6z"
		/>
	<path class="st1" d="M221.6,71.3c0-0.7,0.6-1.3,1.3-1.3c0.7,0,1.3,0.6,1.3,1.3s-0.6,1.3-1.3,1.3C222.2,72.6,221.6,72,221.6,71.3z"
		/>
	<path class="st1" d="M221.6,71.3c0-0.7,0.6-1.3,1.3-1.3c0.7,0,1.3,0.6,1.3,1.3s-0.6,1.3-1.3,1.3C222.2,72.6,221.6,72,221.6,71.3z"
		/>
	<path class="st1" d="M199,78.8c0-0.7,0.6-1.3,1.3-1.3c0.7,0,1.3,0.6,1.3,1.3s-0.6,1.3-1.3,1.3C199.6,80.1,199,79.6,199,78.8z"/>
	<path class="st1" d="M227.5,78c0-0.7,0.6-1.3,1.3-1.3c0.7,0,1.3,0.6,1.3,1.3c0,0.7-0.6,1.3-1.3,1.3C228,79.3,227.5,78.7,227.5,78z"
		/>
	<path class="st1" d="M221.6,71.3c0-0.7,0.6-1.3,1.3-1.3c0.7,0,1.3,0.6,1.3,1.3s-0.6,1.3-1.3,1.3C222.2,72.6,221.6,72,221.6,71.3z"
		/>
	<path class="st1" d="M221.6,71.3c0-0.7,0.6-1.3,1.3-1.3c0.7,0,1.3,0.6,1.3,1.3s-0.6,1.3-1.3,1.3C222.2,72.6,221.6,72,221.6,71.3z"
		/>
	<path class="st1" d="M199,78.8c0-0.7,0.6-1.3,1.3-1.3c0.7,0,1.3,0.6,1.3,1.3s-0.6,1.3-1.3,1.3C199.6,80.1,199,79.6,199,78.8z"/>
	<path class="st1" d="M215.7,68.8c0-0.7,0.6-1.3,1.3-1.3c0.7,0,1.3,0.6,1.3,1.3c0,0.7-0.6,1.3-1.3,1.3
		C216.3,70.1,215.7,69.5,215.7,68.8z"/>
	<path class="st1" d="M307.9,100.6c0-0.7,0.6-1.3,1.3-1.3c0.7,0,1.3,0.6,1.3,1.3c0,0.7-0.6,1.3-1.3,1.3
		C308.4,101.9,307.9,101.3,307.9,100.6z"/>
	<path class="st1" d="M287.8,92.2c0-0.7,0.6-1.3,1.3-1.3c0.7,0,1.3,0.6,1.3,1.3c0,0.7-0.6,1.3-1.3,1.3
		C288.3,93.5,287.8,93,287.8,92.2z"/>
	<path class="st1" d="M295.3,108.2c0-0.7,0.6-1.3,1.3-1.3c0.7,0,1.3,0.6,1.3,1.3c0,0.7-0.6,1.3-1.3,1.3
		C295.9,109.4,295.3,108.9,295.3,108.2z"/>
	<path class="st1" d="M307.9,100.6c0-0.7,0.6-1.3,1.3-1.3c0.7,0,1.3,0.6,1.3,1.3c0,0.7-0.6,1.3-1.3,1.3
		C308.4,101.9,307.9,101.3,307.9,100.6z"/>
	<path class="st1" d="M287.8,92.2c0-0.7,0.6-1.3,1.3-1.3c0.7,0,1.3,0.6,1.3,1.3c0,0.7-0.6,1.3-1.3,1.3
		C288.3,93.5,287.8,93,287.8,92.2z"/>
	<path class="st1" d="M283.6,65.4c0-0.7,0.6-1.3,1.3-1.3c0.7,0,1.3,0.6,1.3,1.3c0,0.7-0.6,1.3-1.3,1.3
		C284.2,66.7,283.6,66.2,283.6,65.4z"/>
	<path class="st1" d="M307.9,100.6c0-0.7,0.6-1.3,1.3-1.3c0.7,0,1.3,0.6,1.3,1.3c0,0.7-0.6,1.3-1.3,1.3
		C308.4,101.9,307.9,101.3,307.9,100.6z"/>
	<path class="st1" d="M287.8,92.2c0-0.7,0.6-1.3,1.3-1.3c0.7,0,1.3,0.6,1.3,1.3c0,0.7-0.6,1.3-1.3,1.3
		C288.3,93.5,287.8,93,287.8,92.2z"/>
	<path class="st1" d="M271,80.5c0-0.7,0.6-1.3,1.3-1.3c0.7,0,1.3,0.6,1.3,1.3c0,0.7-0.6,1.3-1.3,1.3C271.6,81.8,271,81.2,271,80.5z"
		/>
	<path class="st1" d="M283.6,65.4c0-0.7,0.6-1.3,1.3-1.3c0.7,0,1.3,0.6,1.3,1.3c0,0.7-0.6,1.3-1.3,1.3
		C284.2,66.7,283.6,66.2,283.6,65.4z"/>
	<path class="st1" d="M32.3,119c0-0.7,0.6-1.3,1.3-1.3c0.7,0,1.3,0.6,1.3,1.3c0,0.7-0.6,1.3-1.3,1.3C32.9,120.3,32.3,119.8,32.3,119
		z"/>
	<path class="st1" d="M52.4,73.8c0-0.7,0.6-1.3,1.3-1.3c0.7,0,1.3,0.6,1.3,1.3c0,0.7-0.6,1.3-1.3,1.3C53,75.1,52.4,74.5,52.4,73.8z"
		/>
	<path class="st1" d="M13.9,100.6c0-0.7,0.6-1.3,1.3-1.3c0.7,0,1.3,0.6,1.3,1.3c0,0.7-0.6,1.3-1.3,1.3
		C14.5,101.9,13.9,101.3,13.9,100.6z"/>
	<path class="st1" d="M3,71.3C3,70.6,3.6,70,4.3,70c0.7,0,1.3,0.6,1.3,1.3S5,72.6,4.3,72.6C3.6,72.6,3,72,3,71.3z"/>
	<path class="st1" d="M52.4,73.8c0-0.7,0.6-1.3,1.3-1.3c0.7,0,1.3,0.6,1.3,1.3c0,0.7-0.6,1.3-1.3,1.3C53,75.1,52.4,74.5,52.4,73.8z"
		/>
	<path class="st1" d="M13.9,100.6c0-0.7,0.6-1.3,1.3-1.3c0.7,0,1.3,0.6,1.3,1.3c0,0.7-0.6,1.3-1.3,1.3
		C14.5,101.9,13.9,101.3,13.9,100.6z"/>
	<path class="st1" d="M244.2,43.7c0-0.7,0.6-1.3,1.3-1.3c0.7,0,1.3,0.6,1.3,1.3c0,0.7-0.6,1.3-1.3,1.3
		C244.8,45,244.2,44.4,244.2,43.7z"/>
	<path class="st1" d="M249.2,70.5c0-0.7,0.6-1.3,1.3-1.3c0.7,0,1.3,0.6,1.3,1.3s-0.6,1.3-1.3,1.3C249.8,71.8,249.2,71.2,249.2,70.5z
		"/>
	<path class="st1" d="M263.5,50.4c0-0.7,0.6-1.3,1.3-1.3c0.7,0,1.3,0.6,1.3,1.3c0,0.7-0.6,1.3-1.3,1.3
		C264.1,51.7,263.5,51.1,263.5,50.4z"/>
	<path class="st1" d="M235,57.9c0-0.7,0.6-1.3,1.3-1.3c0.7,0,1.3,0.6,1.3,1.3c0,0.7-0.6,1.3-1.3,1.3C235.6,59.2,235,58.6,235,57.9z"
		/>
	<path class="st1" d="M249.2,70.5c0-0.7,0.6-1.3,1.3-1.3c0.7,0,1.3,0.6,1.3,1.3s-0.6,1.3-1.3,1.3C249.8,71.8,249.2,71.2,249.2,70.5z
		"/>
	<path class="st1" d="M244.2,43.7c0-0.7,0.6-1.3,1.3-1.3c0.7,0,1.3,0.6,1.3,1.3c0,0.7-0.6,1.3-1.3,1.3
		C244.8,45,244.2,44.4,244.2,43.7z"/>
	<path class="st1" d="M266,105.6c0-0.7,0.6-1.3,1.3-1.3s1.3,0.6,1.3,1.3c0,0.7-0.6,1.3-1.3,1.3S266,106.4,266,105.6z"/>
	<path class="st1" d="M249.2,70.5c0-0.7,0.6-1.3,1.3-1.3c0.7,0,1.3,0.6,1.3,1.3s-0.6,1.3-1.3,1.3C249.8,71.8,249.2,71.2,249.2,70.5z
		"/>
	<path class="st1" d="M271,80.5c0-0.7,0.6-1.3,1.3-1.3c0.7,0,1.3,0.6,1.3,1.3c0,0.7-0.6,1.3-1.3,1.3C271.6,81.8,271,81.2,271,80.5z"
		/>
	<path class="st1" d="M266,105.6c0-0.7,0.6-1.3,1.3-1.3s1.3,0.6,1.3,1.3c0,0.7-0.6,1.3-1.3,1.3S266,106.4,266,105.6z"/>
	<path class="st1" d="M232.5,97.3c0-0.7,0.6-1.3,1.3-1.3c0.7,0,1.3,0.6,1.3,1.3c0,0.7-0.6,1.3-1.3,1.3
		C233.1,98.6,232.5,98,232.5,97.3z"/>
	<path class="st1" d="M249.2,70.5c0-0.7,0.6-1.3,1.3-1.3c0.7,0,1.3,0.6,1.3,1.3s-0.6,1.3-1.3,1.3C249.8,71.8,249.2,71.2,249.2,70.5z
		"/>
	<path class="st1" d="M266,105.6c0-0.7,0.6-1.3,1.3-1.3s1.3,0.6,1.3,1.3c0,0.7-0.6,1.3-1.3,1.3S266,106.4,266,105.6z"/>
	<path class="st1" d="M266,105.6c0-0.7,0.6-1.3,1.3-1.3s1.3,0.6,1.3,1.3c0,0.7-0.6,1.3-1.3,1.3S266,106.4,266,105.6z"/>
	<path class="st1" d="M287.8,92.2c0-0.7,0.6-1.3,1.3-1.3c0.7,0,1.3,0.6,1.3,1.3c0,0.7-0.6,1.3-1.3,1.3
		C288.3,93.5,287.8,93,287.8,92.2z"/>
	<path class="st1" d="M295.3,108.2c0-0.7,0.6-1.3,1.3-1.3c0.7,0,1.3,0.6,1.3,1.3c0,0.7-0.6,1.3-1.3,1.3
		C295.9,109.4,295.3,108.9,295.3,108.2z"/>
	<path class="st1" d="M266,105.6c0-0.7,0.6-1.3,1.3-1.3s1.3,0.6,1.3,1.3c0,0.7-0.6,1.3-1.3,1.3S266,106.4,266,105.6z"/>
	<path class="st1" d="M271,80.5c0-0.7,0.6-1.3,1.3-1.3c0.7,0,1.3,0.6,1.3,1.3c0,0.7-0.6,1.3-1.3,1.3C271.6,81.8,271,81.2,271,80.5z"
		/>
	<path class="st1" d="M287.8,92.2c0-0.7,0.6-1.3,1.3-1.3c0.7,0,1.3,0.6,1.3,1.3c0,0.7-0.6,1.3-1.3,1.3
		C288.3,93.5,287.8,93,287.8,92.2z"/>
	<path class="st1" d="M266,105.6c0-0.7,0.6-1.3,1.3-1.3s1.3,0.6,1.3,1.3c0,0.7-0.6,1.3-1.3,1.3S266,106.4,266,105.6z"/>
	<path class="st1" d="M193.1,99.8c0-0.7,0.6-1.3,1.3-1.3c0.7,0,1.3,0.6,1.3,1.3c0,0.7-0.6,1.3-1.3,1.3
		C193.7,101.1,193.1,100.5,193.1,99.8z"/>
	<path class="st1" d="M199,78.8c0-0.7,0.6-1.3,1.3-1.3c0.7,0,1.3,0.6,1.3,1.3s-0.6,1.3-1.3,1.3C199.6,80.1,199,79.6,199,78.8z"/>
	<path class="st1" d="M174.7,98.1c0-0.7,0.6-1.3,1.3-1.3c0.7,0,1.3,0.6,1.3,1.3c0,0.7-0.6,1.3-1.3,1.3
		C175.3,99.4,174.7,98.8,174.7,98.1z"/>
	<path class="st1" d="M174.7,98.1c0-0.7,0.6-1.3,1.3-1.3c0.7,0,1.3,0.6,1.3,1.3c0,0.7-0.6,1.3-1.3,1.3
		C175.3,99.4,174.7,98.8,174.7,98.1z"/>
	<path class="st1" d="M168,80.5c0-0.7,0.6-1.3,1.3-1.3c0.7,0,1.3,0.6,1.3,1.3c0,0.7-0.6,1.3-1.3,1.3C168.6,81.8,168,81.2,168,80.5z"
		/>
	<path class="st1" d="M199,78.8c0-0.7,0.6-1.3,1.3-1.3c0.7,0,1.3,0.6,1.3,1.3s-0.6,1.3-1.3,1.3C199.6,80.1,199,79.6,199,78.8z"/>
	<path class="st1" d="M174.7,98.1c0-0.7,0.6-1.3,1.3-1.3c0.7,0,1.3,0.6,1.3,1.3c0,0.7-0.6,1.3-1.3,1.3
		C175.3,99.4,174.7,98.8,174.7,98.1z"/>
	<path class="st1" d="M174.7,98.1c0-0.7,0.6-1.3,1.3-1.3c0.7,0,1.3,0.6,1.3,1.3c0,0.7-0.6,1.3-1.3,1.3
		C175.3,99.4,174.7,98.8,174.7,98.1z"/>
	<path class="st1" d="M152.9,80.5c0-0.7,0.6-1.3,1.3-1.3c0.7,0,1.3,0.6,1.3,1.3c0,0.7-0.6,1.3-1.3,1.3
		C153.5,81.8,152.9,81.2,152.9,80.5z"/>
	<path class="st1" d="M168,80.5c0-0.7,0.6-1.3,1.3-1.3c0.7,0,1.3,0.6,1.3,1.3c0,0.7-0.6,1.3-1.3,1.3C168.6,81.8,168,81.2,168,80.5z"
		/>
	<path class="st1" d="M174.7,98.1c0-0.7,0.6-1.3,1.3-1.3c0.7,0,1.3,0.6,1.3,1.3c0,0.7-0.6,1.3-1.3,1.3
		C175.3,99.4,174.7,98.8,174.7,98.1z"/>
	<path class="st1" d="M124.5,109c0-0.7,0.6-1.3,1.3-1.3c0.7,0,1.3,0.6,1.3,1.3s-0.6,1.3-1.3,1.3C125,110.3,124.5,109.7,124.5,109z"
		/>
	<path class="st1" d="M152.9,80.5c0-0.7,0.6-1.3,1.3-1.3c0.7,0,1.3,0.6,1.3,1.3c0,0.7-0.6,1.3-1.3,1.3
		C153.5,81.8,152.9,81.2,152.9,80.5z"/>
	<path class="st1" d="M174.7,98.1c0-0.7,0.6-1.3,1.3-1.3c0.7,0,1.3,0.6,1.3,1.3c0,0.7-0.6,1.3-1.3,1.3
		C175.3,99.4,174.7,98.8,174.7,98.1z"/>
</g>
</svg>
