<svg id="Layer_1" data-name="Layer 1" opacity="0.8" xmlns="http://www.w3.org/2000/svg" xmlns:xlink="http://www.w3.org/1999/xlink" viewBox="0 0 338.61 85.65"><defs><style>.cls-1{fill:#e3eefe;}.cls-2{fill:url(#linear-gradient);}</style><linearGradient id="linear-gradient" x1="177.12" y1="79.98" x2="177.12" y2="-4.06" gradientUnits="userSpaceOnUse"><stop offset="0" stop-color="#fff"/><stop offset="0.51" stop-color="#5393fa" stop-opacity="0.7"/><stop offset="1" stop-color="#fff"/></linearGradient></defs><title>DaniBackgroundlines</title><path class="cls-1" d="M174.14,55.59a.65.65,0,0,0-.5.29L167.34,53a.47.47,0,0,0,0-.26.54.54,0,0,0-.22-.4l5.47-6.69a.66.66,0,0,0,.37.09.61.61,0,0,0,.61-.62.65.65,0,0,0-1.29,0l-11.6.14-12.06.15a.64.64,0,0,0-.11-.27l17.51-12.59a.66.66,0,0,0,.51.19.61.61,0,0,0,.61-.62.62.62,0,0,0-.69-.55.61.61,0,0,0-.61.62.62.62,0,0,0,.12.29L148.49,45.08a.46.46,0,0,0-.2-.13l8.21-20.06a.49.49,0,0,0,.21,0,.61.61,0,0,0,.61-.62.62.62,0,0,0-.69-.55.61.61,0,0,0-.61.62.58.58,0,0,0,.38.49l-8.2,20h-.15l-.94-18.66a.61.61,0,0,0,.57-.62.63.63,0,0,0-.69-.55.62.62,0,0,0-.61.63.62.62,0,0,0,.63.54l.93,18.66a.64.64,0,0,0-.53.38l-19.84-4.59s0-.09,0-.14a.65.65,0,0,0-.7-.55.61.61,0,0,0-.6.63.52.52,0,0,0,.14.31l-3.05,2.51a.75.75,0,0,0-.33-.14l.86-8.84h0a.61.61,0,0,0,.61-.62.64.64,0,0,0-.69-.55.61.61,0,0,0-.61.63.62.62,0,0,0,.54.53l-.87,8.84h0a.67.67,0,0,0-.35.13L111.11,32a.5.5,0,0,0,.17-.43.62.62,0,0,0-.69-.55.61.61,0,0,0-.61.62.63.63,0,0,0,.19.37L97.61,44.91a.67.67,0,0,0-.42-.12.71.71,0,0,0-.46.21L86.25,38.32a.5.5,0,0,0,.1-.33.62.62,0,0,0-.69-.55.57.57,0,0,0-.47.94l-3,2.43-7.66,6.26a.6.6,0,0,0-.26-.14l2-8.55s.08,0,.13,0a.6.6,0,0,0,.6-.62.62.62,0,0,0-.69-.55.58.58,0,0,0-.14,1.15l-2,8.55s-.07,0-.12,0h0l-1.51-6A.59.59,0,0,0,73,40.3a.62.62,0,0,0-.69-.55.61.61,0,0,0-.61.62.54.54,0,0,0,.11.27L66.2,44.37l-5.92,4a.64.64,0,0,0-.52-.21.45.45,0,0,0-.11,0L56.9,40.64a.58.58,0,0,0,.4-.57.63.63,0,0,0-.69-.55.61.61,0,0,0-.61.62.57.57,0,0,0,.3.45L52.89,46.3l-3.54,5.94a.61.61,0,0,0-.3-.05.59.59,0,0,0-.23.05l-9-14.48a.57.57,0,0,0,.3-.52.64.64,0,0,0-.69-.55.61.61,0,0,0-.61.63.51.51,0,0,0,.09.26l-9.48,6.06a.65.65,0,0,0-.53-.22.79.79,0,0,0-.22.06l-3.69-6a.54.54,0,0,0,.29-.52.63.63,0,0,0-.69-.55A.62.62,0,0,0,24,37a.65.65,0,0,0,.7.55.79.79,0,0,0,.22-.06l3.69,6a.51.51,0,0,0-.23.25l-9.18-2.85a.48.48,0,0,0,0-.18.64.64,0,0,0-.69-.54.61.61,0,0,0-.61.62.63.63,0,0,0,.69.55.64.64,0,0,0,.31-.11L31.53,55.64a.83.83,0,0,0-.16.21L6.26,48.93a.41.41,0,0,0,0-.16.64.64,0,0,0-.69-.55.61.61,0,0,0-.61.63.63.63,0,0,0,.69.55A.66.66,0,0,0,6.24,49l25.11,6.91a.45.45,0,0,0,0,.16.58.58,0,0,0,.19.37l-13,13.31a.7.7,0,0,0-.43-.12.61.61,0,0,0-.61.62.64.64,0,0,0,.7.55.6.6,0,0,0,.6-.62.57.57,0,0,0-.18-.37l13-13.31a.68.68,0,0,0,.34.11l.41,16.78a.61.61,0,0,0-.58.62.63.63,0,0,0,.69.55.59.59,0,1,0,0-1.17L32,56.65l.15,0L39,70a.57.57,0,0,0-.33.55.63.63,0,0,0,.69.55A.62.62,0,0,0,40,70.5a.65.65,0,0,0-.7-.55l-.17,0L32.29,56.57a.58.58,0,0,0,.19-.15L42,62.05a.49.49,0,0,0-.09.31.62.62,0,0,0,.69.55.61.61,0,0,0,.61-.62.59.59,0,0,0-.27-.43l1.88-2.77,4-5.8a.62.62,0,0,0,.33.07l.07,0,3.08,10.92a.58.58,0,0,0-.44.58.62.62,0,0,0,.69.55.61.61,0,0,0,.61-.62.62.62,0,0,0-.69-.55h-.07L49.3,53.32a.65.65,0,0,0,.27-.15l6.56,4.58a.5.5,0,0,0-.12.35.64.64,0,0,0,.69.55.61.61,0,0,0,.61-.62.63.63,0,0,0-.64-.55l-.29-4.17a.59.59,0,0,0,.55-.61,0,0,0,0,0,0,0l3.51-.6,1.93-.33a.63.63,0,0,0,.65.43.62.62,0,0,0,.61-.63.33.33,0,0,0,0-.13l9.94-3.65,0,0-7,4.4A.69.69,0,0,0,66,52a.62.62,0,0,0-.61.63.64.64,0,0,0,.69.55.61.61,0,0,0,.61-.63.48.48,0,0,0-.09-.25l7-4.4a.65.65,0,0,0,.35.2L71.78,61.19H71.7a.62.62,0,0,0-.61.63.63.63,0,0,0,.69.55.62.62,0,0,0,.61-.63.6.6,0,0,0-.5-.52l2.17-13.14h.09l.21,0,8.07,13.76a.55.55,0,0,0-.3.52.62.62,0,0,0,.69.55.61.61,0,0,0,.61-.62.6.6,0,0,0-.38-.49L85,57.18l4.51-10.8a.71.71,0,0,0,.21,0l2.23,14.76a.6.6,0,0,0-.51.6.64.64,0,0,0,.69.55.61.61,0,0,0,.61-.62.59.59,0,0,0-.42-.51l3.41-10.76L97.11,46l.15,0L99.7,63.39a.6.6,0,0,0-.52.6.62.62,0,0,0,.69.55.61.61,0,0,0,.61-.62.25.25,0,0,0,0-.12L124,55.88a.63.63,0,0,0,.32.28l-5,12.22a.76.76,0,0,0-.21,0,.59.59,0,1,0,.69.55.6.6,0,0,0-.38-.49l5-12.22a.66.66,0,0,0,.21,0l.14,0,9.65,22a.59.59,0,0,0-.37.56.64.64,0,0,0,.69.55.61.61,0,0,0,.61-.62.62.62,0,0,0-.69-.55.7.7,0,0,0-.14,0l-9.65-22a.61.61,0,0,0,.33-.36l32.68,6.56a.5.5,0,0,0,0,.12.63.63,0,0,0,.69.55.62.62,0,0,0,.61-.63A.56.56,0,0,0,159,62l7.42-8.73a.71.71,0,0,0,.39.1.77.77,0,0,0,.26-.07l4.49,6.36a.55.55,0,0,0-.26.5.63.63,0,0,0,.69.55.62.62,0,0,0,.61-.63.63.63,0,0,0-.7-.54.76.76,0,0,0-.26.06l-4.49-6.36a.49.49,0,0,0,.16-.16L173.58,56a.71.71,0,0,0-.05.26.64.64,0,0,0,.69.55.62.62,0,0,0,.61-.63A.63.63,0,0,0,174.14,55.59Zm-1.81-10.37a.55.55,0,0,0,.21.39l-1.74,2.14-3.72,4.55a.8.8,0,0,0-.38-.1.67.67,0,0,0-.52.32l-17.54-6.86a.34.34,0,0,0,0-.15l12-.14ZM92,61.15,89.78,46.39a.61.61,0,0,0,.51-.56l6.3-.37a.63.63,0,0,0,.41.47L92.18,61.17A.47.47,0,0,0,92,61.15ZM62.93,51a.65.65,0,0,0-.37.15L62.38,51,60.3,49.09a.56.56,0,0,0,.15-.39l2.88-.24,10.14-.87,0,.07-10,3.66A.66.66,0,0,0,62.93,51ZM42.54,61.74l-.11,0L38.05,49.38a.57.57,0,0,0,.33-.28l10.09,3.51a.44.44,0,0,0,0,.2.56.56,0,0,0,.27.43l-5.84,8.57A.62.62,0,0,0,42.54,61.74Zm13.7-9.59a.62.62,0,0,0-.6.54l-5.9,0s0-.08,0-.13l4.36-1.65,5.17-2a.65.65,0,0,0,.13.16l-2.72,3.11A.77.77,0,0,0,56.24,52.15Zm-26.73-7.8L33,46.25l4.26,2.34a.6.6,0,0,0-.08.29.59.59,0,0,0,.23.41l-5.07,6.28a.69.69,0,0,0-.38-.09h0l-2.7-10.93A.64.64,0,0,0,29.51,44.35Zm19,8.17L38.42,49a.34.34,0,0,0,0-.2.59.59,0,0,0-.51-.53L39.32,39l.16-1.11h.08a.86.86,0,0,0,.23-.06l8.94,14.48A.69.69,0,0,0,48.51,52.52ZM39.38,37.85,37.84,48.27h-.08a.66.66,0,0,0-.47.24l-7.72-4.23a.51.51,0,0,0,.07-.3.48.48,0,0,0-.09-.26L39,37.65A.65.65,0,0,0,39.38,37.85Zm-7,17.77,5.07-6.28a.69.69,0,0,0,.38.09l.1,0,4.38,12.38a.68.68,0,0,0-.26.18l-9.53-5.63a.55.55,0,0,0,.08-.31A.55.55,0,0,0,32.4,55.62Zm42.33-8.24a.55.55,0,0,0-.12-.24l10.65-8.69a.67.67,0,0,0,.48.16.53.53,0,0,0,.18,0l3.41,6.74a.58.58,0,0,0-.33.53l-9,1Zm52.17-6.21H127a.64.64,0,0,0,.57-.4l19.84,4.6s0,.09,0,.13a.84.84,0,0,0,0,.17l-22.24,9.66a.67.67,0,0,0-.41-.28l.8-5.24ZM97.85,45.56a.47.47,0,0,0,0-.17l13.68-.8L122.3,44a.65.65,0,0,0,.67.5l.06.44,1.46,10.15a.63.63,0,0,0-.43.3L110,50.09Zm-1.26-.19-5,.29-1.36.08a.63.63,0,0,0-.68-.5.47.47,0,0,0-.17,0L88.77,44,86,38.54a.62.62,0,0,0,.18-.14l10.48,6.69A.47.47,0,0,0,96.59,45.37Zm61.92,16.48a.77.77,0,0,0-.23.06l-9.9-16a.58.58,0,0,0,.21-.2L155,48.23l11.18,4.37a.45.45,0,0,0,0,.23.57.57,0,0,0,.21.4L158.89,62A.7.7,0,0,0,158.51,61.85ZM126.5,41a.59.59,0,0,0,.3.13L126.52,43l-1.86,12.09h-.06l-1.53-10.59a.61.61,0,0,0,.52-.61.59.59,0,0,0-.14-.31l1.65-1.37Zm-4,2.46a.52.52,0,0,0-.17.39L97.87,45.29a.55.55,0,0,0-.18-.31l12.56-12.91a.7.7,0,0,0,.43.12.67.67,0,0,0,.34-.13l8.42,8.4ZM71.84,40.72a.7.7,0,0,0,.53.2h0l1.5,6a.6.6,0,0,0-.45.56l-13,1.11a.49.49,0,0,0-.08-.21l2.74-1.83Zm-15.45-.08a.73.73,0,0,0,.3,0,.45.45,0,0,0,.11,0l2.75,7.51a.59.59,0,0,0-.4.58s0,.09,0,.14L49.67,52.5a.66.66,0,0,0-.23-.21l.91-1.53Zm-37.34.58A.9.9,0,0,0,19.2,41l9.17,2.84a.84.84,0,0,0,0,.18.65.65,0,0,0,.7.55l0,0,0,.15,2.66,10.78-.16.07-5.36-6.12ZM49.63,53.09a.63.63,0,0,0,.1-.27l4,0h1.91a.62.62,0,0,0,.63.53l.3,4.17a.67.67,0,0,0-.39.18L53.85,56Zm7.27-.51a.61.61,0,0,0-.18-.27l2.73-3.12a.74.74,0,0,0,.39.11.71.71,0,0,0,.38-.15l2,1.82.26.23a.54.54,0,0,0-.16.42,0,0,0,0,0,0,0L60.44,52ZM74.45,48a.55.55,0,0,0,.3-.51l11-1.18L89,45.94a.6.6,0,0,0,.35.41L83,61.71a.82.82,0,0,0-.22,0,.46.46,0,0,0-.21.05l-.11-.18Zm26,15.73a.67.67,0,0,0-.62-.34L97.36,45.94a.59.59,0,0,0,.44-.3L124,55.45a.41.41,0,0,0,0,.22.35.35,0,0,0,0,.11l-12.14,4.08Zm24.84-8s0-.08,0-.12a1.09,1.09,0,0,0,0-.17l22.24-9.65a.66.66,0,0,0,.6.29.54.54,0,0,0,.22-.05l9.9,16a.6.6,0,0,0-.26.31L156.72,62Z"/><path class="cls-1" d="M340,35.18a.62.62,0,0,0-.47.33l-6.59-2.28a.57.57,0,0,0,0-.26.58.58,0,0,0-.27-.38l4.68-7.16a.71.71,0,0,0,.38.06.59.59,0,0,0,.54-.67.66.66,0,0,0-.75-.49.59.59,0,0,0-.53.6l-11.17,1.18L313.5,27.4a.56.56,0,0,0-.14-.25l16-14.14a.69.69,0,0,0,.53.14.6.6,0,0,0,.53-.68.65.65,0,0,0-.75-.48.6.6,0,0,0-.53.68.56.56,0,0,0,.15.27l-16,14.14a.53.53,0,0,0-.21-.11L319,6.26a.79.79,0,0,0,.22,0,.6.6,0,0,0,.53-.68.65.65,0,0,0-.75-.48.61.61,0,0,0-.54.68.63.63,0,0,0,.44.45L313,26.94h-.15l-3-18.48a.58.58,0,0,0,.5-.66.64.64,0,0,0-.75-.48A.58.58,0,0,0,309,8a.62.62,0,0,0,.68.48l3,18.48a.62.62,0,0,0-.49.43L292,24.64a.33.33,0,0,0,0-.14.65.65,0,0,0-.75-.48.6.6,0,0,0-.54.68.62.62,0,0,0,.18.3l-2.75,2.77a.8.8,0,0,0-.35-.11l-.13-8.87h0a.6.6,0,0,0,.54-.68.65.65,0,0,0-.75-.48.6.6,0,0,0-.54.68.61.61,0,0,0,.6.47l.14,8.88h-.05a.64.64,0,0,0-.33.16l-12.67-10.3a.59.59,0,0,0,.13-.46.65.65,0,0,0-.75-.48.6.6,0,0,0-.54.68.58.58,0,0,0,.23.34l-11,14a.68.68,0,0,0-.43-.08.63.63,0,0,0-.43.25l-11.18-5.68a.58.58,0,0,0,.06-.34.64.64,0,0,0-.75-.48.59.59,0,0,0-.54.67.58.58,0,0,0,.18.3l-3.22,3.22L240,35.87a.54.54,0,0,0-.27-.11l1-8.7h.12a.6.6,0,0,0,.53-.68.63.63,0,0,0-.75-.48.59.59,0,0,0-.53.67.63.63,0,0,0,.52.48l-1,8.69h-.12l0,0-2.17-5.87a.56.56,0,0,0,.39-.62.66.66,0,0,0-.75-.49.6.6,0,0,0-.53.68.53.53,0,0,0,.13.26l-4.78,3.93-5.79,4.77a.67.67,0,0,0-.54-.15.29.29,0,0,0-.1,0l-3.59-7.21a.58.58,0,0,0,.33-.61.64.64,0,0,0-.75-.48.58.58,0,0,0-.53.67.57.57,0,0,0,.35.42L218,37.87l-2.5,5.46a.73.73,0,0,0-.53.05L204.41,29.8a.55.55,0,0,0,.23-.54.64.64,0,0,0-.75-.48.58.58,0,0,0-.53.67.45.45,0,0,0,.12.25l-8.74,6.9a.73.73,0,0,0-.56-.16.81.81,0,0,0-.22.07l-4.34-5.62a.56.56,0,0,0,.23-.55.65.65,0,0,0-.75-.48.6.6,0,0,0-.53.68.64.64,0,0,0,.75.48.81.81,0,0,0,.22-.07l4.34,5.62a.54.54,0,0,0-.2.27l-9.45-2a.55.55,0,0,0,0-.18.64.64,0,0,0-.75-.48.59.59,0,0,0-.54.67.66.66,0,0,0,.75.49.6.6,0,0,0,.3-.14l14.13,13.14a.55.55,0,0,0-.14.22L172.23,44a.43.43,0,0,0,0-.16.64.64,0,0,0-.75-.48A.6.6,0,0,0,171,44a.66.66,0,0,0,.76.49.63.63,0,0,0,.51-.43L198,48.67a.45.45,0,0,0,0,.16.6.6,0,0,0,.23.35L186.82,63.62a.73.73,0,0,0-.44-.09.6.6,0,0,0-.53.68.64.64,0,0,0,.75.48.59.59,0,0,0,.53-.67.56.56,0,0,0-.23-.35l11.39-14.43a.67.67,0,0,0,.35.07L200.94,66a.59.59,0,0,0-.51.67.65.65,0,0,0,.75.48.6.6,0,0,0,.54-.68.65.65,0,0,0-.67-.48l-2.3-16.65.14-.05L207.22,62a.56.56,0,0,0-.27.57.66.66,0,0,0,.75.49.6.6,0,0,0,.54-.68.64.64,0,0,0-.75-.48.55.55,0,0,0-.18.06L199,49.21a.52.52,0,0,0,.17-.16l10.12,4.72a.5.5,0,0,0-.05.32.65.65,0,0,0,.75.48.6.6,0,0,0,.53-.68.55.55,0,0,0-.31-.4l2-3.66,2.89-5.4a1,1,0,0,0,.34,0l.06,0L219.74,55a.56.56,0,0,0-.37.62.64.64,0,0,0,.75.48.59.59,0,0,0,.53-.68.65.65,0,0,0-.75-.48l-.06,0-4.3-10.57a.65.65,0,0,0,.25-.17l7,3.95a.5.5,0,0,0-.07.36.64.64,0,0,0,.75.48.59.59,0,0,0,.53-.68.64.64,0,0,0-.69-.48l-.77-4.12a.59.59,0,0,0,.48-.66s0,0,0,0L227.18,42l1.17-.32a.64.64,0,0,0,.7.37.59.59,0,0,0,.54-.67.52.52,0,0,0-.06-.13L239,36.65l0,0-6.52,5a.68.68,0,0,0-.56-.17.6.6,0,0,0-.53.68.65.65,0,0,0,.75.48.6.6,0,0,0,.53-.68.55.55,0,0,0-.12-.24l6.52-5a.6.6,0,0,0,.37.16l-.69,13.28h-.08a.6.6,0,0,0-.53.68.64.64,0,0,0,.75.48.6.6,0,0,0,.53-.68.61.61,0,0,0-.56-.47l.68-13.27h.09a.68.68,0,0,0,.2-.07l9.59,12.94a.56.56,0,0,0-.25.55.66.66,0,0,0,.76.49.6.6,0,0,0,.53-.68.6.6,0,0,0-.43-.45l1.27-4.33,3.38-11.55a.72.72,0,0,0,.21,0l3.89,14.48a.57.57,0,0,0-.44.64.64.64,0,0,0,.75.48.59.59,0,0,0,.53-.67.61.61,0,0,0-.47-.47L261.41,37l.86-4.35a.38.38,0,0,0,.15,0l4.39,17.11a.57.57,0,0,0-.44.65.64.64,0,0,0,.75.48.6.6,0,0,0,.53-.68.37.37,0,0,0,0-.11l22.58-10.06a.6.6,0,0,0,.35.25L287,52.94a.54.54,0,0,0-.22,0,.6.6,0,0,0-.53.68.65.65,0,0,0,.75.48.57.57,0,0,0,.1-1.13l3.55-12.61h.21l.14-.05,12.08,21a.56.56,0,0,0-.29.59.65.65,0,0,0,.75.49.6.6,0,0,0,.53-.68.64.64,0,0,0-.75-.48.74.74,0,0,0-.14,0l-12.08-21a.61.61,0,0,0,.29-.38l33.24,3.52a.41.41,0,0,0,0,.11.65.65,0,0,0,.75.49.6.6,0,0,0,.53-.68.57.57,0,0,0-.26-.38L332,33.59a.77.77,0,0,0,.4.06.62.62,0,0,0,.25-.09l5.19,5.92a.56.56,0,0,0-.21.51.66.66,0,0,0,.75.49.6.6,0,0,0,.54-.68.64.64,0,0,0-.75-.48.5.5,0,0,0-.25.09l-5.19-5.92a.46.46,0,0,0,.14-.17l6.58,2.27a.76.76,0,0,0,0,.26.66.66,0,0,0,.75.49.6.6,0,0,0,.54-.68A.64.64,0,0,0,340,35.18ZM223.24,47.89a.65.65,0,0,0-.36.21l-2.48-1.39-4.56-2.56a.53.53,0,0,0,.07-.28l3.93-.38,1.94-.19a.66.66,0,0,0,.69.47l.51,2.72ZM337,25a.6.6,0,0,0,.26.36l-1.74,2.67-2.94,4.49a.71.71,0,0,0-.38-.06.67.67,0,0,0-.49.36l-18.22-5.2a.75.75,0,0,0,0-.15l12.84-1.35Zm-12.4,18.28-33.24-3.52s0-.07,0-.11a.51.51,0,0,0-.07-.17l21-11.65a.66.66,0,0,0,.85.16l11.65,15A.63.63,0,0,0,324.61,43.31Zm-65.69,4.95L255,33.79a.59.59,0,0,0,.44-.6l6.23-.95a.64.64,0,0,0,.46.43l-3.08,15.6Zm32.45-23.08h.07a.63.63,0,0,0,.53-.45l20.26,2.75a.29.29,0,0,0,0,.13.51.51,0,0,0,.07.17l-21,11.65a.68.68,0,0,0-.45-.23l.23-5.88Zm-29.69,7-6.23.94a.64.64,0,0,0-.73-.43.58.58,0,0,0-.17.06l-1.83-2.82-2.32-3.58a.57.57,0,0,0,.16-.15l11.18,5.69A.68.68,0,0,0,261.68,32.15Zm1.28.07a.91.91,0,0,0,0-.17l24.14-3.67a.64.64,0,0,0,.72.44l0,.09,2.69,10.31a.62.62,0,0,0-.4.34l-15-4.05Zm62.18,10.63a.81.81,0,0,0-.22.07L314.65,29.73,313.27,28a.56.56,0,0,0,.19-.22L318,29l13.68,3.91a.59.59,0,0,0,0,.23.56.56,0,0,0,.26.37l-6.39,9.37A.68.68,0,0,0,325.14,42.85Zm-34.2-17.78a.71.71,0,0,0,.32.1l-.05,1.34L290.7,39.2h-.06l-2.71-10.4a.58.58,0,0,0,.44-.65.55.55,0,0,0-.18-.3l1.3-1.3Zm-3.72,2.82a.53.53,0,0,0-.13.4l-12.86,1.95L263,32a.55.55,0,0,0-.21-.3l11-14a.62.62,0,0,0,.43.08.64.64,0,0,0,.33-.16l9.26,7.53Zm-37.59-1.58a.72.72,0,0,0,.5.12.67.67,0,0,0,.17-.06l4.16,6.39a.54.54,0,0,0-.27.56l-8.86,1.79-5.16,1a.48.48,0,0,0-.15-.22l8.14-8.15Zm-39.87,27.1-.1,0-5.75-11.91a.58.58,0,0,0,.29-.31l10.43,2.56a.45.45,0,0,0,0,.2.59.59,0,0,0,.31.41l-4.84,9.06A.64.64,0,0,0,209.76,53.41Zm-5.65-23.47a.66.66,0,0,0,.21-.08l10.54,13.58a.58.58,0,0,0-.19.25l-10.43-2.57a.45.45,0,0,0,0-.2.63.63,0,0,0-.57-.48L204,30.31v-.38Zm18.2,12.67a.59.59,0,0,0-.53.59l-5.87.58a.52.52,0,0,0-.06-.13L220,41.59l4.89-2.41a.5.5,0,0,0,.15.14l-2.36,3.36A.7.7,0,0,0,222.31,42.61Zm-23.8,5.55h0l-3.92-10.62a.62.62,0,0,0,.31-.24l4.7,2L203,40.81a.55.55,0,0,0,0,.31.58.58,0,0,0,.27.38l-4.34,6.72A.71.71,0,0,0,198.51,48.16Zm5.42-18.23-.36,10.51h-.08a.64.64,0,0,0-.45.29l-8.15-3.51a.5.5,0,0,0,0-.3.58.58,0,0,0-.12-.25l8.74-6.9A.63.63,0,0,0,203.93,29.93ZM199,48.26l4.33-6.72a.73.73,0,0,0,.39.06l.1,0,5.76,11.92a.62.62,0,0,0-.25.2L199.2,49a.51.51,0,0,0,.06-.32A.59.59,0,0,0,199,48.26Zm29.85-7.42a.72.72,0,0,0-.36.18l-.27-.2L226,39.19a.51.51,0,0,0,.11-.4l2.09-.37,10.74-1.93,0,.07-9.48,4.55A.66.66,0,0,0,228.84,40.84Zm7.7-11a.67.67,0,0,0,.55.15h0l2.18,5.86a.57.57,0,0,0-.39.6l-12.84,2.3a.54.54,0,0,0-.1-.2l3.74-3.08Zm-15.38,1.34a.8.8,0,0,0,.31,0l.1,0,3.59,7.22a.55.55,0,0,0-.33.61.69.69,0,0,0,0,.13l-9.07,4.47a.69.69,0,0,0-.25-.19l.75-1.64Zm-37.08,4a.57.57,0,0,0,.13-.21l9.44,2a.6.6,0,0,0,0,.19.65.65,0,0,0,.75.48l0,0,3.92,10.63a.53.53,0,0,0-.15.08l-6.65-6.18ZM223,43a.63.63,0,0,0-.2-.26l2.36-3.35a.7.7,0,0,0,.41.07.66.66,0,0,0,.35-.18l2.48,1.83a.54.54,0,0,0-.11.43v0l-1.64.45Zm27,6.68a.54.54,0,0,0-.22,0,.74.74,0,0,0-.21.07L240,36.78a.56.56,0,0,0,.24-.53L251.48,34l2.74-.55a.6.6,0,0,0,.39.37l0,.08Zm17.59.38a.66.66,0,0,0-.65-.28l-4.39-17.11a.62.62,0,0,0,.4-.34l16,4.33,11.14,3a.55.55,0,0,0,0,.22.37.37,0,0,0,.05.11l-11.12,5Z"/><path class="cls-2" d="M366.21,24.62a.77.77,0,0,0-.65.53l-32.69-5.8a.66.66,0,0,0,0-.2.69.69,0,0,0-.29-.44L347,.4a1,1,0,0,0,.56.1.77.77,0,0,0,.68-.86.83.83,0,0,0-1-.61.74.74,0,0,0-.67.85.67.67,0,0,0,.29.44L332.48,18.64a.83.83,0,0,0-.45-.1L329.11-2.59a.75.75,0,0,0,.65-.85.82.82,0,0,0-.95-.61.76.76,0,0,0-.68.86.81.81,0,0,0,.85.61l2.92,21.13a1.06,1.06,0,0,0-.19.06L321.15,2.47a.72.72,0,0,0,.34-.73.82.82,0,0,0-.95-.61.76.76,0,0,0-.68.86.84.84,0,0,0,1.17.54l10.56,16.14a.88.88,0,0,0-.22.21l-12.84-6a.68.68,0,0,0,.07-.4.83.83,0,0,0-1-.62.76.76,0,0,0-.68.86.72.72,0,0,0,.4.51l-6.15,11.5a1,1,0,0,0-.42,0l-.08,0L305.26,11.3a.71.71,0,0,0,.47-.79.82.82,0,0,0-1-.61.77.77,0,0,0-.68.86.82.82,0,0,0,.95.61l.08,0,5.46,13.41a1,1,0,0,0-.32.22l-8.93-5a.67.67,0,0,0,.09-.46.82.82,0,0,0-.95-.61.76.76,0,0,0-.68.86.81.81,0,0,0,.88.61l.51,2.71.47,2.52a.74.74,0,0,0-.61.84v0l-6.44,1.74-.28.08a.84.84,0,0,0-.9-.47.76.76,0,0,0-.67.86.46.46,0,0,0,.07.16l-12,5.77,0,0,8.27-6.38a.83.83,0,0,0,.7.22.76.76,0,0,0,.68-.86.81.81,0,0,0-.95-.61.76.76,0,0,0-.68.86.75.75,0,0,0,.15.31l-8.27,6.37a.81.81,0,0,0-.46-.2l.86-16.84a.41.41,0,0,0,.11,0,.76.76,0,0,0,.68-.86.82.82,0,0,0-.95-.61.76.76,0,0,0-.68.86.8.8,0,0,0,.71.61l-.87,16.83H280a.73.73,0,0,0-.26.09L267.55,18a.71.71,0,0,0,.31-.7.81.81,0,0,0-.95-.61.76.76,0,0,0-.68.86.75.75,0,0,0,.54.56L265.34,23l-4.46,15.24a1.22,1.22,0,0,0-.27,0l-4.93-18.37a.73.73,0,0,0,.55-.82.82.82,0,0,0-1-.61.75.75,0,0,0-.67.86.78.78,0,0,0,.6.6L251.3,39.65h-.19l-5.58-21.71a.73.73,0,0,0,.57-.82.82.82,0,0,0-.95-.61.76.76,0,0,0-.68.86.84.84,0,0,0,.06.14L215.88,30.27a.76.76,0,0,0-.44-.32L220,14a.82.82,0,0,0,.27,0,.76.76,0,0,0,.68-.86.82.82,0,0,0-1-.61.76.76,0,0,0-.68.86.74.74,0,0,0,.55.57l-4.51,16a1.2,1.2,0,0,0-.27,0,.85.85,0,0,0-.17.06L199.54,3.3a.73.73,0,0,0,.37-.76.82.82,0,0,0-.95-.61.76.76,0,0,0-.68.86.82.82,0,0,0,.95.61,1,1,0,0,0,.18-.06L214.74,30a.74.74,0,0,0-.37.48l-34.19-3.62,5.17-5.31a.9.9,0,0,0,.54.15.78.78,0,0,0,.77-.79.8.8,0,0,0-.88-.7A.78.78,0,0,0,185,21a.72.72,0,0,0,.24.47L180,26.86,172.19,26a.38.38,0,0,0,0-.15.82.82,0,0,0-.95-.61.76.76,0,0,0-.68.86.72.72,0,0,0,.33.47l-2.71,4L167.86,17a.78.78,0,0,0,.74-.79.81.81,0,0,0-.88-.7.74.74,0,1,0,0,1.48l.34,13.83L165.86,34l-6.5-12.74a.73.73,0,0,0,.42-.7.79.79,0,0,0-.87-.69.78.78,0,0,0-.78.79.82.82,0,0,0,.88.7,1,1,0,0,0,.23-.06l6.54,12.82-1.6,2.34-8.38-5-.17-.2a.6.6,0,0,0,0-.6.53.53,0,0,0,0-.33.83.83,0,0,0-.95-.62.77.77,0,0,0-.68.86,1,1,0,0,0,.08.18.66.66,0,0,0,0,.28.72.72,0,0,0,.34.55L148.2,40.7,147,42.49a.86.86,0,0,0-.42-.09l-.09,0-3.91-13.85a.75.75,0,0,0,.56-.74.81.81,0,0,0-.88-.7.78.78,0,0,0-.77.8.8.8,0,0,0,.88.69l.08,0,3.91,13.85a.81.81,0,0,0-.34.19l-8.32-5.81a.66.66,0,0,0,.14-.45.79.79,0,0,0-.87-.69.77.77,0,0,0-.77.79.78.78,0,0,0,.8.69l.38,5.29a.76.76,0,0,0-.7.78s0,0,0,0l-6.89,1.19a.83.83,0,0,0-.84-.55.78.78,0,0,0-.77.79.69.69,0,0,0,.05.17l-12.61,4.64,0,0,8.94-5.59a.85.85,0,0,0,.68.28.77.77,0,0,0,.77-.79.8.8,0,0,0-.87-.7.78.78,0,0,0-.78.79.69.69,0,0,0,.12.32l-9,5.59a.78.78,0,0,0-.44-.25l2.77-16.67h.1a.77.77,0,0,0,.77-.79.81.81,0,0,0-.87-.7.78.78,0,0,0-.78.8.77.77,0,0,0,.64.66l-2.76,16.67h-.1a.77.77,0,0,0-.27.07L104.3,31.71a.73.73,0,0,0,.39-.67.82.82,0,0,0-.88-.7.78.78,0,0,0-.77.8.73.73,0,0,0,.47.61L102,35.32,95.38,51.25a1.24,1.24,0,0,0-.27,0L92.27,32.49a.75.75,0,0,0,.65-.76A.8.8,0,0,0,92,31a.78.78,0,0,0-.77.79.76.76,0,0,0,.53.65L85.68,51.81a.58.58,0,0,0-.19,0L82.4,29.67a.74.74,0,0,0,.65-.76.81.81,0,0,0-.88-.7.78.78,0,0,0-.77.79.66.66,0,0,0,0,.15l-3.33,1.12L51.51,39.21a.83.83,0,0,0-.4-.36l6.28-15.5a1.24,1.24,0,0,0,.27,0,.78.78,0,0,0,.78-.79.8.8,0,0,0-.88-.7.77.77,0,0,0-.77.79.74.74,0,0,0,.48.62L51,38.81a.8.8,0,0,0-.27,0,.58.58,0,0,0-.18,0L38.29,10.87a.73.73,0,0,0,.46-.71.8.8,0,0,0-.88-.7.78.78,0,0,0-.77.79A.8.8,0,0,0,38,11l.18,0,12.24,28a.8.8,0,0,0-.42.45L8.52,31a.8.8,0,0,0,0-.15.82.82,0,0,0-.88-.7.78.78,0,0,0-.77.8.72.72,0,0,0,.27.5L-2.24,42.51a.82.82,0,0,0-.49-.13.89.89,0,0,0-.33.08l-5.7-8.07a.71.71,0,0,0,.33-.63.81.81,0,0,0-.88-.7.78.78,0,0,0-.77.79.8.8,0,0,0,.88.7.9.9,0,0,0,.33-.09l5.7,8.08a.64.64,0,0,0-.2.2l-8-3.64a.62.62,0,0,0,.07-.33.8.8,0,0,0-.88-.69.77.77,0,0,0-.77.79.81.81,0,0,0,.88.7.87.87,0,0,0,.64-.36l8,3.63a.72.72,0,0,0-.06.33.68.68,0,0,0,.28.51l-6.93,8.49a.86.86,0,0,0-.48-.12.77.77,0,0,0-.77.79.79.79,0,0,0,.87.7.78.78,0,0,0,.76-.69l23.21-.29,6.82-.08a.69.69,0,0,0,.14.33l-22.23,16a.82.82,0,0,0-.64-.24.77.77,0,0,0-.77.79.81.81,0,0,0,.87.7.78.78,0,0,0,.78-.8.71.71,0,0,0-.15-.36l22.22-16a.82.82,0,0,0,.25.16L10.33,78.52a.86.86,0,0,0-.28,0,.77.77,0,0,0-.77.79.8.8,0,0,0,.88.69.77.77,0,0,0,.77-.79.75.75,0,0,0-.48-.62L20.86,53.12l.19,0,1.18,23.67a.77.77,0,0,0-.72.78.8.8,0,0,0,.88.7.77.77,0,0,0,.77-.79.79.79,0,0,0-.79-.69L21.18,53.14a.82.82,0,0,0,.68-.49L47,58.48a.5.5,0,0,0,0,.17.81.81,0,0,0,.88.7.78.78,0,0,0,.77-.8.66.66,0,0,0-.19-.39l.2-.17,3.67-3a.92.92,0,0,0,.43.18l-1.1,11.22h-.06a.78.78,0,0,0-.77.8.8.8,0,0,0,.88.69.73.73,0,1,0,.08-1.46l1.1-11.22H53A.84.84,0,0,0,53.4,55L67.92,69.5a.71.71,0,0,0-.23.55.8.8,0,0,0,.88.7.78.78,0,0,0,.77-.79.68.68,0,0,0-.24-.47L85,53.12a.88.88,0,0,0,.54.15.86.86,0,0,0,.58-.27l13.3,8.48a.65.65,0,0,0-.13.42.8.8,0,0,0,.88.7.78.78,0,0,0,.77-.79.7.7,0,0,0-.18-.4l5.93-4.84,7.58-6.18a.88.88,0,0,0,.32.16l-2.54,10.86-.15,0a.78.78,0,0,0-.78.79.81.81,0,0,0,.88.7.77.77,0,0,0,.77-.79.75.75,0,0,0-.59-.66l2.55-10.86.15,0,.06,0,1.91,7.66a.74.74,0,0,0-.59.74.8.8,0,0,0,.88.7.77.77,0,0,0,.77-.79.67.67,0,0,0-.13-.34l1.61-1.08,13-8.67a.92.92,0,0,0,.67.26l.14,0,3.49,9.53a.75.75,0,0,0-.51.73.82.82,0,0,0,.88.7.78.78,0,0,0,.77-.8.7.7,0,0,0-.38-.56l8.82-14.79a.83.83,0,0,0,.38.07,1.23,1.23,0,0,0,.29-.07L158.3,62.19a.74.74,0,0,0-.37.66.81.81,0,0,0,.88.7.78.78,0,0,0,.77-.8.69.69,0,0,0-.12-.32l12-7.69a.88.88,0,0,0,.68.27.82.82,0,0,0,.28-.07l1.65,2.67-7.92,7a.83.83,0,0,0-.67-.18.75.75,0,0,0-.68.86.82.82,0,0,0,1,.61.77.77,0,0,0,.68-.86.75.75,0,0,0-.19-.35l7.89-7,3,4.83a.72.72,0,0,0-.37.66.8.8,0,0,0,.88.69.77.77,0,0,0,.77-.79.81.81,0,0,0-.88-.7,1.28,1.28,0,0,0-.28.07l-3-4.85,2.21-2,7.23,2.24-4.34,15.25a.61.61,0,0,0-.27,0,.76.76,0,0,0-.68.86.82.82,0,0,0,.95.61.72.72,0,0,0,.13-1.43L183.82,58l.68.2a.62.62,0,0,0,0,.23.8.8,0,0,0,.88.7.78.78,0,0,0,.77-.79.8.8,0,0,0-.88-.7.82.82,0,0,0-.39.13l-.72-.82,2.84-10h.19L191,70.37a.76.76,0,0,0-.63.85.82.82,0,0,0,1,.61A.76.76,0,0,0,192,71a.81.81,0,0,0-.87-.61l-3.85-23.44a.78.78,0,0,0,.61-.55l13,1.76s0,.06,0,.09a.81.81,0,0,0,.88.7.79.79,0,0,0,.73-.57l11.08,1.5a.5.5,0,0,0,0,.17.82.82,0,0,0,1,.62.76.76,0,0,0,.68-.86.73.73,0,0,0-.22-.38l0,0,3.46-3.5a.85.85,0,0,0,.44.14l.18,11.27h-.06a.77.77,0,0,0-.68.86.82.82,0,0,0,.95.61.75.75,0,0,0,.68-.85.78.78,0,0,0-.76-.61L219.07,46h.06a.93.93,0,0,0,.42-.21l16.08,13.08a.66.66,0,0,0-.16.57.81.81,0,0,0,.95.61.71.71,0,0,0,.39-1.29l14-17.76a.92.92,0,0,0,.55.1.85.85,0,0,0,.55-.32L266.1,48a.66.66,0,0,0-.08.43.81.81,0,0,0,1,.61.75.75,0,0,0,.68-.85.68.68,0,0,0-.23-.38l5.44-5.45,6.76-6.76a.78.78,0,0,0,.34.13l-1.3,11a.45.45,0,0,0-.16,0,.77.77,0,0,0-.68.86.82.82,0,0,0,.95.61.76.76,0,0,0,.68-.86.79.79,0,0,0-.66-.6l1.31-11h.15l.06,0,2.76,7.44a.74.74,0,0,0-.5.8.83.83,0,0,0,.95.61.75.75,0,0,0,.68-.86.7.7,0,0,0-.17-.33l.13-.11,13.28-10.93a.92.92,0,0,0,.69.2l.13,0,4.55,9.16a.72.72,0,0,0-.42.77.82.82,0,0,0,.95.61.72.72,0,0,0,.24-1.39l.3-.67,6.8-14.85a.85.85,0,0,0,.39,0,.92.92,0,0,0,.28-.09L324.72,43.3a.71.71,0,0,0-.3.69.82.82,0,0,0,.95.61.76.76,0,0,0,.68-.86.62.62,0,0,0-.16-.31L337,34.67a.86.86,0,0,0,.7.21.94.94,0,0,0,.28-.1l5.51,7.14a.71.71,0,0,0-.3.69.82.82,0,0,0,1,.61.75.75,0,0,0,.67-.86.82.82,0,0,0-.95-.61.94.94,0,0,0-.28.1l-5.51-7.14a.78.78,0,0,0,.26-.34l12,2.51a.6.6,0,0,0,0,.23.82.82,0,0,0,.95.61.75.75,0,0,0,.68-.86.84.84,0,0,0-1.33-.44L332.68,19.76a1,1,0,0,0,.18-.28l32.68,5.79a.74.74,0,0,0,0,.21.82.82,0,0,0,1,.61.76.76,0,0,0,.68-.86A.81.81,0,0,0,366.21,24.62ZM20.27,52.35l-30,.38a.73.73,0,0,0-.28-.5l5.59-6.84,1.35-1.64a.94.94,0,0,0,.47.12.83.83,0,0,0,.67-.4l7.59,3,14.66,5.73A.52.52,0,0,0,20.27,52.35Zm.09-.29L9.91,48-1.9,43.36a.71.71,0,0,0,0-.29.73.73,0,0,0-.28-.5l5.65-6.65,3.76-4.43a.85.85,0,0,0,.5.13.68.68,0,0,0,.28-.07l9.35,15.07,3.21,5.18A.65.65,0,0,0,20.36,52.06Zm.66-.4a1,1,0,0,0-.29.07l-.13-.22-12.42-20a.83.83,0,0,0,.33-.39L50,39.42a.77.77,0,0,0,0,.15.56.56,0,0,0,.06.21L21.78,52A.85.85,0,0,0,21,51.66Zm26.86,6.21h-.1a.82.82,0,0,0-.73.5L21.87,52.53a.51.51,0,0,0,0-.17.55.55,0,0,0-.06-.22L50.06,39.89a.8.8,0,0,0,.53.35L48.2,55.79Zm4.2-3.39a.64.64,0,0,0,.18.39l-3.87,3.19a.83.83,0,0,0-.38-.17l2.71-17.64h.08l1.93,13.45A.75.75,0,0,0,52.08,54.48Zm.78-.8-.37-2.58L50.93,40.24a.82.82,0,0,0,.56-.38l23.83,8.91,9.42,3.53a.76.76,0,0,0,0,.21L62.06,53.83l-8.35.49A.81.81,0,0,0,52.86,53.68Zm24,7.7-7.82,8a.88.88,0,0,0-.54-.15.93.93,0,0,0-.44.16L53.5,54.94a.74.74,0,0,0,.22-.5l31-1.81a.67.67,0,0,0,.22.41Zm8-9.19L51.55,39.75a.86.86,0,0,0,0-.28.88.88,0,0,0-.05-.15l29.64-9.95.3-.1a.84.84,0,0,0,.78.43l3.1,22.11A.82.82,0,0,0,84.8,52.19Zm1-.36,6.13-19.34a.64.64,0,0,0,.2,0L95,51.25a.74.74,0,0,0-.63.7L93.18,52l-6.85.4A.73.73,0,0,0,85.81,51.83Zm13.71,9.55L86.22,52.9a.67.67,0,0,0,.12-.36l4.53-.27,3.47-.2a.81.81,0,0,0,.86.64,1,1,0,0,0,.23-.06l4.32,8.56A.91.91,0,0,0,99.52,61.38ZM109.73,54l-9,7.36a.92.92,0,0,0-.62-.2.79.79,0,0,0-.22.06l-3.44-6.81-.89-1.75a.73.73,0,0,0,.42-.67l9.41-1,8.69-.94a.85.85,0,0,0,.15.3Zm4.32-4.08-18.1,2a.76.76,0,0,0-.45-.52l8.14-19.5a.8.8,0,0,0,.27,0,.76.76,0,0,0,.27-.06l1,1.68,9.26,15.78A.68.68,0,0,0,114.05,49.87Zm23.07-12.71a.93.93,0,0,0,.49-.23l3.69,2.58,4.63,3.23a.65.65,0,0,0-.13.35l-7.5,0a.77.77,0,0,0-.8-.67Zm.42,6.78a.79.79,0,0,0,.75-.69l7.5,0a.43.43,0,0,0,.05.16l-1.23.47L133.75,48a1.12,1.12,0,0,0-.17-.2l3.45-4A.89.89,0,0,0,137.54,43.94Zm-19.8,14.5a.87.87,0,0,0-.67-.26l0,0-1.91-7.66a.74.74,0,0,0,.58-.7l16.53-1.41a.64.64,0,0,0,.1.26ZM132.2,48.31l-1.64.14-14.89,1.27,0-.09L128.26,45a.84.84,0,0,0,.79.41.85.85,0,0,0,.47-.18l2.87,2.6A.63.63,0,0,0,132.2,48.31Zm.76-.75a.85.85,0,0,0-.47.18l-2.87-2.6a.66.66,0,0,0,.2-.53s0,0,0,0l6.89-1.19a.69.69,0,0,0,.22.34l-3.46,4A.83.83,0,0,0,133,47.56Zm10.27,1.13-5.88,9.85a1,1,0,0,0-.38-.06.58.58,0,0,0-.14,0L133.34,49a.74.74,0,0,0,.5-.73.61.61,0,0,0-.05-.18l12.09-4.58a.76.76,0,0,0,.29.27ZM180.07,27l34.3,3.63a.76.76,0,0,0,0,.15.78.78,0,0,0,.09.21L189.57,44.76l-4.47-1.23-9.39-12.06ZM161.94,39.76l-2.53,3.88-1.56-4.41-.65-1.81,4.43,1.52a.62.62,0,0,0,0,.33A.71.71,0,0,0,161.94,39.76Zm-1.33,7.69a.83.83,0,0,0-.42.36l-2.73-1,1.91-2.93Zm-.47.47a.75.75,0,0,0,0,.26.77.77,0,0,0,.65.67v.06l-4.28.45a.72.72,0,0,0-.33-.47L157.39,47Zm.6-.51-1.28-3.62,2.39-3.65.22-.33a.89.89,0,0,0,.49.08.8.8,0,0,0,.61-.46L167,40.52l-5.64,7a.86.86,0,0,0-.48-.12A.5.5,0,0,1,160.74,47.41Zm.15,1.45H161a.83.83,0,0,0,.61-.31l.39.22-1.1.11Zm.76-.4a.64.64,0,0,0,.1-.38.72.72,0,0,0-.28-.52l5.65-7,1.65.47,1.69,6.86-8.26.86Zm7.08-7.57-1.52-.43.69-.87a.86.86,0,0,0,.48.12h.06Zm-.16-1.22a1,1,0,0,0,.21-.09l1.54,1.76-1.44-.41Zm.35,1.4,1.55.44,4.11,4.69,1,1.15-5,.52Zm1.78.51,1.15.33L186.3,46a.61.61,0,0,0,0,.19l-10.56,1.11Zm7.09,5.66,8.5-.9a.82.82,0,0,0,.18.33l-6.38,5.64-4.26-4.87Zm8.56-1.32-11.7-3.34-4.1-1.17-1.67-1.9a.9.9,0,0,0,.21-.27L185,43.63l1.56,2A.8.8,0,0,0,186.35,45.92Zm-17.44-7.46,6.71-6.9,6.14,7.88,3.13,4-15.77-4.35a.44.44,0,0,0,0-.2A.65.65,0,0,0,168.91,38.46Zm3.28-12.3,7.72.82-4.28,4.39-3.72-4.79A.75.75,0,0,0,172.19,26.16Zm-1.17.51a.81.81,0,0,0,.78,0l3.74,4.81-6.73,6.92a.79.79,0,0,0-.43-.14l-.18-7.44Zm-3.32,4.86.37-.54.17,7.24-.19.05-2.12-4.16Zm-1.85,2.72,2.07,4.07a1.12,1.12,0,0,0-.24.19l-3.38-2Zm-1.62,2.37,3.38,2a.69.69,0,0,0-.11.4.74.74,0,0,0,.29.51l-.72.89-3.85-1.1a.7.7,0,0,0,0-.29.74.74,0,0,0-.33-.48Zm-.12-.07-1.32,2a.89.89,0,0,0-.83,0l-5.89-6.73Zm-8.59-5.07.19.11,6.16,7a.6.6,0,0,0-.18.21l-4.54-1.56-2-5.56A.82.82,0,0,0,155.52,31.48Zm-1,.2a.86.86,0,0,0,.42.09.5.5,0,0,0,.13,0L157,37.21,153.33,36a.61.61,0,0,0,0-.33.81.81,0,0,0-1-.61.63.63,0,0,0-.23.08Zm-2.76,4.06a.53.53,0,0,0,0,.13.83.83,0,0,0,1,.61.8.8,0,0,0,.6-.42l3.76,1.3,2.28,6.42-2,3L156,46.35l-8.62-3a.53.53,0,0,0,0-.25.72.72,0,0,0-.34-.55Zm7.06,26.33h-.1a.73.73,0,0,0-.29.07l-10.49-17-.86-1.39a.71.71,0,0,0,.28-.29l1.8.63,8.12,2.83L156,48.84a.91.91,0,0,0-.49-.07.75.75,0,0,0-.68.86.82.82,0,0,0,.95.61.75.75,0,0,0,.67-.76l4.27-.45-.43,2.86Zm.58.26a.83.83,0,0,0-.45-.24L160.86,49l1.31-.14,3.67,2,5.54,3a.69.69,0,0,0-.1.37.77.77,0,0,0,.12.33Zm12.07-8.5-9.07-5,8.11-.86,1.37,5.57A.83.83,0,0,0,171.45,53.83Zm2.74,3.69-1.63-2.64a.74.74,0,0,0,.29-.32l3.47,1.07Zm2.24-2-3.53-1.09a.61.61,0,0,0,0-.23.8.8,0,0,0-.88-.7H172L170.63,48l5-.53L180,52.39Zm7.3,2.26-2.18-.67-5-1.55,3.51-3.09L184,56.94Zm1,0a.72.72,0,0,0-.19.24l-.68-.21.22-.78Zm-.72-1-3.84-4.39,6.4-5.65a.6.6,0,0,0,.26.14Zm3-11.33a.94.94,0,0,0-.28.1l-1.45-1.87,4.19,1.15-1.66.92A.86.86,0,0,0,187,45.46Zm.95.79a.54.54,0,0,0,0-.18.7.7,0,0,0-.08-.2l1.76-1L200.93,48Zm26.47,2.92h-.1a.83.83,0,0,0-.67.57l-11.06-1.5s0-.07,0-.11a.8.8,0,0,0-.88-.69.81.81,0,0,0-.71.47l-11.23-3.1,24.77-13.72a.82.82,0,0,0,.56.3L214.51,46Zm3.8-3.77a.62.62,0,0,0,.22.38l-3.49,3.53a.87.87,0,0,0-.4-.14l.71-17.79a.21.21,0,0,0,.08,0l3.44,13.2A.74.74,0,0,0,218.18,45.4Zm.69-.86-3.44-13.2a.73.73,0,0,0,.5-.43l28.19,7.62,6.3,1.7a.79.79,0,0,0,0,.22l-22.56,3.42-8.07,1.23A.82.82,0,0,0,218.87,44.54Zm24.88,5.22-7.05,9a.9.9,0,0,0-.56-.11.85.85,0,0,0-.41.21L219.64,45.73a.67.67,0,0,0,.16-.51l30.64-4.65a.71.71,0,0,0,.26.38Zm6.72-9.64L216,30.8a.66.66,0,0,0,0-.28.84.84,0,0,0-.06-.14l28.65-12.76a.87.87,0,0,0,.82.36L251,39.69A.77.77,0,0,0,250.47,40.12Zm1-.45,3.9-19.8h.21l4.93,18.37a.73.73,0,0,0-.55.76l-6.33,1L252,40.2A.78.78,0,0,0,251.44,39.67Zm14.71,8.23L252,40.69a.67.67,0,0,0,.08-.37l7.91-1.2a.83.83,0,0,0,.93.56l.21-.08,5.27,8.11A1.29,1.29,0,0,0,266.15,47.9ZM275.07,40l-7.74,7.76a.9.9,0,0,0-.63-.15l-.22.08-4.53-7-.74-1.13a.7.7,0,0,0,.34-.71l8.51-1.73,9.28-1.88a.79.79,0,0,0,.18.29Zm4.23-4.85-17.79,3.6a.74.74,0,0,0-.5-.47L266.9,18.1a1.31,1.31,0,0,0,.28,0,1,1,0,0,0,.26-.09l2.22,3,9.95,13.43A.71.71,0,0,0,279.3,35.12Zm21.52-14.77a.89.89,0,0,0,.46-.27l4.17,2.34,4.76,2.67a.74.74,0,0,0-.09.36l-7.45.72a.81.81,0,0,0-.88-.59Zm1.18,6.7a.75.75,0,0,0,.67-.75l7.45-.73.07.15-1.2.6L298.68,31.4a.81.81,0,0,0-.19-.18l3-4.26A.84.84,0,0,0,302,27.05ZM292.89,29a.86.86,0,0,0,.83.33.88.88,0,0,0,.45-.23l3.14,2.33a.68.68,0,0,0-.13.5l-.54.1L280.9,34.81l0-.08ZM283.94,43.3a.87.87,0,0,0-.69-.19l-.06,0-2.76-7.44a.74.74,0,0,0,.5-.76L297.21,32a.62.62,0,0,0,.14.25Zm13.92-12.23a.84.84,0,0,0-.45.23L294.26,29a.72.72,0,0,0,.14-.55l0,0,6.73-1.82a.75.75,0,0,0,.25.33l-3,4.25A1,1,0,0,0,297.86,31.07Zm10.22.43-4.62,10.1a1,1,0,0,0-.39,0l-.13,0-4.55-9.15a.72.72,0,0,0,.42-.77.58.58,0,0,0-.08-.18l11.51-5.67a1,1,0,0,0,.32.24ZM318.48,13l12.84,6a.72.72,0,0,0-.07.41.76.76,0,0,0,.34.48l-5.5,8.53a.81.81,0,0,0-.49-.08l-.12,0-3.8-7.85-3.51-7.26A.79.79,0,0,0,318.48,13Zm-7.13,11.79,6.14-11.5a.9.9,0,0,0,.43.06.43.43,0,0,0,.12,0l7.31,15.12a.74.74,0,0,0-.38.4l-6.33-1.56-6.9-1.7a.75.75,0,0,0,0-.26A.76.76,0,0,0,311.35,24.79ZM325.1,43.13a.73.73,0,0,0-.28.1L311.45,26a.75.75,0,0,0,.25-.31l3.09.76,10.14,2.49a1.13,1.13,0,0,0,0,.26.8.8,0,0,0,.73.61l-.13,3.61-.33,9.72A.27.27,0,0,0,325.1,43.13Zm.7.21a.8.8,0,0,0-.47-.2l.45-13.34h.1a.8.8,0,0,0,.56-.36l4,1.7,6.39,2.74a.64.64,0,0,0-.05.39.62.62,0,0,0,.16.31Zm11.05-9.57-1.68-.72-8.67-3.72a.64.64,0,0,0,.05-.39.69.69,0,0,0-.34-.48l5.51-8.53a.78.78,0,0,0,.48.08l.06,0,5,13.48A.81.81,0,0,0,336.85,33.77Zm1.93-8.17,11.73,10.91a.67.67,0,0,0-.16.25l-3-.62-9-1.89a.89.89,0,0,0,0-.23.82.82,0,0,0-.95-.61l-.06,0-5-13.48a1.18,1.18,0,0,0,.19-.11Z"/></svg>