<svg id="Layer_1" data-name="Layer 1" opacity="0.7" xmlns="http://www.w3.org/2000/svg" xmlns:xlink="http://www.w3.org/1999/xlink" viewBox="0 0 1619.95 386.53"><defs><style>.cls-1{opacity:0.2;fill:url(#linear-gradient);}</style><linearGradient id="linear-gradient" x1="768.59" y1="382.58" x2="768.59" y2="-3.95" gradientUnits="userSpaceOnUse"><stop offset="0" stop-color="#b7d554"/><stop offset="0.52" stop-color="#6899d1"/><stop offset="1" stop-color="#3951a3"/></linearGradient></defs><title>Dani_Background2</title><path class="cls-1" d="M1020.15,310s30.72,26.94,31.14,27.33-46.91,2.34-46.91,2.34M1015.69,283,1071,271.31l-58.21-9M1512.4,160.81l32.66,35.92,23.46-31.23Zm-4.19-57.39,30.15,20.3,15.92-22.25m-103,47.24L1463,188.34l15.07-9.57m-86.69-79.65s47.33-2,46.91-2.34-31.15-27.33-31.15-27.33m98.57,135.87,15.08-26.55L1503.6,163m-46.28-17.77s33.72,36.31,34.55,33.58,7.54-26.55,7.54-26.55m-69.87-46.07-9.28,35.92,37.06-21.86m78.8,28.5,42.45-15.62-45.65-3.9m-31.41,82-13.82-27-19.27,10.25M1485,139l-16.54-16.11s-34.34,21.18-35.6,22.35m61.15,0,34.76,6.64-23-40.41m10.89,4.36,9.78,19.26v-9.63m-45,1.82s10.34,11.46,10.34,9.37,5.58-19.52,5.58-19.52m-242.91,43.73,32.67,35.92,23.45-31.23Zm104.7,31.82L1329.8,163l-33.51,38.26m-13.82-51.34,40.62,10.93,19.54-24.21m16.48,3.13-22.61,21.08,31.83,25.38m-113.92,39.24,41-13.51-31-26.71m-65.75,32.61-27.64-8.2,2.09,65.59M1368.33,112.4l13.4,92.92,18-61.3m-149.52-40.6,30.16,20.3,15.91-22.25m40.21,27.33,26.8,4.29v-20.5m14.24-6.83,37.69,30.84,8.8-32.79m-230.77,44.9L1205,188.34l15.08-9.57m-86.7-79.65s47.33-2,46.91-2.34-31.14-27.33-31.14-27.33m163.41,27.33-25.89,26.94,33.92,2.34m-72.87,79.26,15.08-26.55L1245.62,163m-42.72,62.47s12.14,49.78,13.82,47.83,33.5-20.7,33.5-20.7m-50.88-107.37s33.71,36.31,34.55,33.58,7.54-26.55,7.54-26.55m-69.87-46.07-9.29,35.92,37.07-21.86m78.79,28.5,42.45-15.62-45.65-3.9m71.2,72c-2.93.59-45.23,4.1-45.23,4.1l26.8,23m-160-25.38s33.92,4.29,35.18,2.34-11.31-44.51-11.31-44.51m51.93,50.37-13.82-27-19.26,10.25m-61.3-1.17,13.13,12.1,18-36.8M1227,139l-16.54-16.11s-34.35,21.18-35.6,22.35m61.14,0,34.76,6.64-23-40.41m50,106.79c-.63,0-39.16,12.49-39.16,12.49l57.79,18.67m86.28-206.86L1458,30.8l-58.21-9m-137,216.69-12.57,26.55,32.25-13.28m-68.83-44.9,33.23,39.57,3.35-26.81m8.38-103.86,9.77,19.26v-9.63m-44.95,1.82s10.33,11.46,10.33,9.37,5.58-19.52,5.58-19.52M1227,233.79l-16.54-22.61-9.53,1.71M996.42,160.81l32.67,35.92,23.45-31.23Zm104.71,31.82L1071.81,163l-33.5,38.26m-13.83-51.34,40.63,10.93,19.53-24.21m16.49,3.13-22.62,21.08,31.83,25.38M996.42,225.43l41.05-13.51-31-26.71m103.86-72.81,13.4,92.92,18-61.3m-63.24-15.22,26.8,4.29v-20.5m36.44,54.47-12.56,42.56h15.49m-25.13-103.86,37.7,30.84,8.79-32.79m-145.89,44.9,42.45-15.62-45.65-3.9m71.19,72c-2.93.59-45.23,4.1-45.23,4.1l26.81,23m79.42-86.29v42.07l27.37-25.28m-77.27,40.21-14.6,31.63,41.41-12.88m-86.28.39c-.63,0-39.16,12.49-39.16,12.49l57.8,18.67m-53.61-10.86-12.56,26.55,32.24-13.28m41-15.22s5.44,28.5,7.12,28.5,32.69-21.48,32.69-21.48m1.37-12.88c2.23-.13,51.37,3.09,51.37,3.09l1.68-24.17m-131.09,50,33.93,5.47-8-13.28M1527.05,42.51s28.48.78,31,0-5.45-46.46-5.45-46.46m-8.79,90.19,34.76-39-51.52,5.08m-48.16,9.37-9.21-28.89-69.94,20.69m53.6,35.92,21.78-20.3-68-7.42m68-28.89,13,22.25,9.22-17.18M1327.7,75.5l-10.47,26,22.2-8.83m162.08-52.47c-.42,1.56-15.29,28.11-15.29,28.11h22.83m-33.93,49.58,8.8-44.51-38.53,31.24M1506.53,6.2s11.31,31.62,9.63,39.43S1540.87-2,1540.87-2M1335.66,71.4l19.89,24.21,17-27.33m-86.69,18,34.76-39-51.51,5.08m59.26,49.2,4.19,20.3,30.15-18m-35-56.62.63,21.09,44.18-6.64m-86.69,31,28.06,3,5-34m60.3,5.08L1365,101.47l18.42-3.13m127.74-44.12,10,44.51,17.59-10.25M1390.1,57.74l-19.68-30.07-20.31,15.19M1495,76.48l-11.1,45.29,27.22-29.13M1386.47,65.29l3.63,21.86,15.64-21.86m9.91-46.21,33.92,5.47-8-13.28m-62.33,19.4,15.08,16.52,3.07-21.47m-180.22,92.14,8.79-44.51-38.53,31.24m-117.06-3.12,4.19,20.3,30.16-18m148.46-49.59,10.06,44.51,17.59-10.25M746.4,339.63s47.32-1.95,46.9-2.34S762.16,310,762.16,310M1015.69,283,1071,271.31l-58.21-9m-407.5,81.6,30.15,20.3L651.33,342m16.26-4.68-25.9,26.94,33.93,2.34M757.7,283,813,271.31l-58.22-9M499.72,283,555,271.31l-58.21-9M996.42,160.81l32.67,35.92,23.45-31.23Zm0,64.62,41.05-13.51-31-26.71m-65.76,32.61-27.64-8.2,2.1,65.59M882.09,283s28.48.78,31,0-5.44-46.46-5.44-46.46m27.64-87.85L947,188.34l15.07-9.57m-21.36,59.74L922.3,278.72l30.15,2m37.27-75.36,15.08-26.55L987.63,163m-42.72,62.47s12.15,49.78,13.82,47.83,33.51-20.7,33.51-20.7M941.35,145.19s33.72,36.31,34.55,33.58,7.54-26.55,7.54-26.55m36.71-3.51,42.45-15.62-45.65-3.9M948.68,311.91l19.89,24.21,17-27.33m-86.7,18L933.6,287.7l-51.51,5.08M909.73,203s33.92,4.29,35.18,2.34-11.31-44.51-11.31-44.51m51.94,50.37-13.83-27-19.26,10.25m-61.3-1.17,13.14,12.1,18-36.8M940.72,287.7l.63,21.09,44.19-6.64m6.7,5.08L978,342l18.42-3.12m43.35-120.64c-.63,0-39.16,12.49-39.16,12.49l57.8,18.67m-53.61-10.86-12.56,26.55,32.24-13.28m-21.35,46.47-19.69-30.07-20.31,15.19m-7.48-76.49,33.24,39.57,3.35-26.81m7.26,86.15,3.63,21.87,15.63-21.87m-26.52-34.61,15.07,16.52,3.07-21.47M969,233.79l-16.54-22.61-9.53,1.71M738.44,225.43l41-13.51-31-26.71m85.44,116.94-9.22-28.89L754.77,294m-72-76.13-27.64-8.2,2.09,65.59m151.19,54.66,21.78-20.3-68-7.42m68-28.89,13,22.25,9.21-17.18m31.42-111.27L871.2,209.62h15.5M624.1,283s28.48.78,31,0-5.45-46.46-5.45-46.46M682.74,316l-10.47,26,22.19-8.82m-11.72-94.64-18.43,40.21,30.15,2m162.08,0c-.42,1.56-15.28,28.11-15.28,28.11h22.82M731.74,205.32l15.08-26.55L729.64,163m-42.71,62.47s12.14,49.78,13.82,47.83,33.5-20.7,33.5-20.7m95.91-51.34c-2.93.59-45.23,4.1-45.23,4.1l26.8,23m18.43,130L839,313.86,800.42,345.1m61.15-98.39s11.31,31.62,9.63,39.43,24.71-47.63,24.71-47.63m-205.22,73.4,19.9,24.21,17-27.33m-86.69,18,34.76-39.05-51.52,5.08M683.37,342l4.18,20.31,30.16-18M891.15,142.07v42.07l27.38-25.28m-77.27,40.21-14.6,31.63,41.4-12.88m-140.51-6.64-13.82-27-19.27,10.25M682.74,287.7l.63,21.09,44.18-6.64m-86.69,31,28.06,3,5-34m60.31,5.08L720,342l18.43-3.12m127.74-44.12,10.05,44.51L893.82,329m-59.89-62.76,32.25,10.93-13.51-27.79m-70.88-31.16c-.63,0-39.16,12.49-39.16,12.49l57.79,18.67m-53.6-10.86-12.57,26.55,32.25-13.28m41-15.22s5.45,28.5,7.12,28.5,32.7-21.48,32.7-21.48M745.14,298.25l-19.68-30.07-20.32,15.19M850.05,317,839,362.28l27.23-29.13M697.66,206.88l33.24,39.57,3.35-26.81M848.72,230.7c2.24-.13,51.38,3.09,51.38,3.09l1.67-24.17M741.51,305.79l3.63,21.87,15.63-21.87m9.92-46.2,33.92,5.47-8-13.28m-62.33,19.4,15.08,16.52,3.07-21.47M711,233.79l-16.55-22.61-9.52,1.71M480.45,160.81l32.67,35.92,23.45-31.23Zm104.71,31.82L555.84,163l-33.51,38.26m-41.88,24.21,41.05-13.51-31-26.71m85.44,116.94-9.21-28.89L496.79,294m53.6,35.92,21.78-20.3-68-7.42m68-28.89,13,22.25,9.21-17.18m4.19,2.35c-.42,1.56-15.29,28.11-15.29,28.11H606.1M572.17,201.22c-2.93.59-45.23,4.1-45.23,4.1l26.8,23m18.43,130,8.8-44.51L542.44,345.1m61.14-98.39s11.31,31.62,9.64,39.43,24.71-47.63,24.71-47.63m-54.66-39.44-14.6,31.63,41.4-12.88m-1.88,76.91,10,44.51L635.83,329m-59.89-62.76,32.25,10.93-13.51-27.79M523.8,218.21c-.63,0-39.16,12.49-39.16,12.49l57.8,18.67m-53.61-10.86-12.56,26.55,32.24-13.28m41-15.22s5.44,28.5,7.12,28.5,32.69-21.48,32.69-21.48m2.7,73.41L581,362.28l27.22-29.13M590.74,230.7c2.23-.13,51.37,3.09,51.37,3.09l1.68-24.17m-131.09,50,33.92,5.47-8-13.28M347.27,343.93l30.16,20.3L393.34,342m16.26-4.68-25.89,26.94,33.92,2.34M499.72,283,555,271.31l-58.21-9m-407.5,81.6,30.15,20.3L135.36,342m-162.92-2.34s47.32-1.95,46.91-2.34S-11.8,310-11.8,310m22.42,36.7L1.34,382.58,38.4,360.72M241.73,283,297,271.31l-58.22-9M-41.38,346.27l37.69,30.84,8.8-32.79M-16.25,283,39,271.31l-58.21-9M480.45,160.81l32.67,35.92,23.45-31.23Zm0,64.62,41.05-13.51-31-26.71m85.44,116.94-9.21-28.89L496.79,294m-72-76.13-27.64-8.2,2.09,65.59M366.12,283s28.48.78,31,0-5.44-46.46-5.44-46.46M424.75,316l-10.47,26,22.2-8.82m-11.73-94.64-18.43,40.21,30.16,2m37.27-75.36,15.08-26.55L471.66,163m-42.72,62.47s12.15,49.78,13.82,47.83,33.51-20.7,33.51-20.7m-43.56,59.35,19.89,24.21,17-27.33m-86.69,18,34.76-39.05-51.51,5.08M425.38,342l4.19,20.31,30.15-18m9.84-133.14-13.82-27-19.26,10.25M424.75,287.7l.63,21.09,44.18-6.64m-86.69,31,28.06,3,5-34m60.31,5.08L462,342l18.42-3.12M523.8,218.21c-.63,0-39.16,12.49-39.16,12.49l57.8,18.67m-53.61-10.86-12.56,26.55,32.24-13.28m-21.36,46.47-19.68-30.07-20.31,15.19m-7.48-76.49,33.23,39.57,3.36-26.81m7.25,86.15,3.63,21.87,15.64-21.87m-26.52-34.61,15.07,16.52,3.07-21.47M453,233.79l-16.54-22.61L427,212.89M222.47,160.81l32.66,35.92,23.46-31.23Zm104.7,31.82L297.85,163l-33.5,38.26m-13.82-51.34,40.62,10.93,19.54-24.21m16.48,3.13-22.62,21.08,31.83,25.38M222.47,225.43l41-13.51-31-26.71M318,302.15l-9.22-28.89L238.8,294m-72-76.13-27.65-8.2,2.1,65.59m77.06-171.79,30.15,20.3,15.92-22.25m49.84,171.79,13,22.25,9.21-17.18M108.13,283s28.48.78,31,0-5.44-46.46-5.44-46.46m27.64-87.85,11.73,39.63,15.08-9.57m-21.36,59.74-18.43,40.21,30.15,2M280.61,96.78l-25.89,26.94,33.92,2.34m51.93,154.62c-.42,1.56-15.28,28.11-15.28,28.11h22.82M215.77,205.32l15.07-26.55L213.67,163M171,225.43s12.15,49.78,13.83,47.83,33.5-20.7,33.5-20.7M167.39,145.19S201.11,181.5,202,178.77s7.53-26.55,7.53-26.55m36.71-3.51,42.45-15.62L243,129.19m71.2,72c-2.94.59-45.23,4.1-45.23,4.1l26.8,23m49.84,18.35s11.31,31.62,9.63,39.43,24.71-47.63,24.71-47.63m-255,88.24,34.76-39.05-51.52,5.08M135.77,203s33.93,4.29,35.18,2.34-11.3-44.51-11.3-44.51m165.64,38.26-14.6,31.63,41.4-12.88m-140.51-6.64-13.82-27-19.27,10.25m-61.29-1.17,13.13,12.1,18-36.8M166.77,287.7l.62,21.09,44.19-6.64m-86.69,31,28.06,3,5-34m192.23-7.42,10.06,44.51L377.85,329M318,266.23l32.24,10.93-13.5-27.79M204,145.19l34.76,6.64-23-40.41m50,106.79c-.62,0-39.15,12.49-39.15,12.49l57.79,18.67m-53.61-10.86-12.56,26.55,32.25-13.28m41-15.22s5.45,28.5,7.12,28.5,32.7-21.48,32.7-21.48M229.17,298.25l-19.69-30.07-20.31,15.19m-7.48-76.49,33.24,39.57,3.35-26.81M332.75,230.7c2.24-.13,51.38,3.09,51.38,3.09l1.67-24.17m-131.08,50,33.92,5.47-8-13.28m-62.33,19.4,15.08,16.52,3.07-21.47m-9.77-150.45L236.43,135v-9.63m-45,1.82s10.33,11.46,10.33,9.37,5.58-19.52,5.58-19.52M195,233.79l-16.55-22.61L169,212.89M69.18,192.63,39.87,163,6.36,201.22m-41.88,24.21L5.53,211.92l-31-26.71M60,302.15l-9.21-28.89L-19.18,294m53.6,35.92,21.78-20.3-68-7.42m68-28.89,13,22.25,9.22-17.18m31.41-111.27L97.24,209.62h15.5M82.59,280.68c-.42,1.56-15.29,28.11-15.29,28.11H90.12M56.2,201.22c-2.93.59-45.23,4.1-45.23,4.1l26.8,23m18.43,130L65,313.86,26.47,345.1m61.14-98.39s11.31,31.62,9.63,39.43S122,238.51,122,238.51M67.3,199.07,52.7,230.7l41.4-12.88m-1.88,76.91,10,44.51L119.86,329M60,266.23l32.25,10.93L78.71,249.37M7.83,218.21c-.63,0-39.16,12.49-39.16,12.49l57.8,18.67m-53.61-10.86-12.57,26.55,32.25-13.28m41.05-15.22s5.44,28.5,7.12,28.5S73.4,243.58,73.4,243.58M76.09,317,65,362.28l27.22-29.13M74.77,230.7c2.23-.13,51.37,3.09,51.37,3.09l1.68-24.17m-131.09,50,33.92,5.47-8-13.28" transform="translate(41.38 3.95)"/></svg>