<svg xmlns="http://www.w3.org/2000/svg" width="1920" height="1080" opacity="0.7"><path d="M755,1276L585,1281L893,1286Z" fill="#567cae" stroke="#567cae" stroke-width="1.51"/><path d="M585,1281L469,1294L893,1286Z" fill="#5e80af" stroke="#5e80af" stroke-width="1.51"/><path d="M469,1294L291,1319L893,1286Z" fill="#6581af" stroke="#6581af" stroke-width="1.51"/><path d="M1041,1283L893,1286L1346,1325Z" fill="#386ba4" stroke="#386ba4" stroke-width="1.51"/><path d="M893,1286L291,1319L1346,1325Z" fill="#4c76a8" stroke="#4c76a8" stroke-width="1.51"/><path d="M1009,-202L1221,-185L1463,-212Z" fill="#a1c3e2" stroke="#a1c3e2" stroke-width="1.51"/><path d="M1009,-202L1463,-212L1569,-239Z" fill="#9dbddf" stroke="#9dbddf" stroke-width="1.51"/><path d="M688,-276L1009,-202L1569,-239Z" fill="#abcce6" stroke="#abcce6" stroke-width="1.51"/><path d="M688,-276L1569,-239L2077,-261Z" fill="#9cb9dd" stroke="#9cb9dd" stroke-width="1.51"/><path d="M1569,-239L1728,-154L2077,-261Z" fill="#8fa3cf" stroke="#8fa3cf" stroke-width="1.51"/><path d="M1997,-189L2037,-101L2077,-261Z" fill="#8592bc" stroke="#8592bc" stroke-width="1.51"/><path d="M2037,-101L1991,-22L2083,115Z" fill="#7a8cb9" stroke="#7a8cb9" stroke-width="1.51"/><path d="M2077,-261L2037,-101L2083,115Z" fill="#7e8db7" stroke="#7e8db7" stroke-width="1.51"/><path d="M1969,1273L1718,1318L2125,1300Z" fill="#094185" stroke="#094185" stroke-width="1.51"/><path d="M2090,209L2020,361L2153,626Z" fill="#5479aa" stroke="#5479aa" stroke-width="1.51"/><path d="M2020,361L2020,564L2153,626Z" fill="#4473a8" stroke="#4473a8" stroke-width="1.51"/><path d="M2083,115L2090,209L2153,626Z" fill="#5d7ca9" stroke="#5d7ca9" stroke-width="1.51"/><path d="M2077,-261L2083,115L2153,626Z" fill="#6d82af" stroke="#6d82af" stroke-width="1.51"/><path d="M2028,955L2113,1159L2153,626Z" fill="#1a5696" stroke="#1a5696" stroke-width="1.51"/><path d="M2018,781L2028,955L2153,626Z" fill="#26619e" stroke="#26619e" stroke-width="1.51"/><path d="M2020,564L2018,781L2153,626Z" fill="#356aa3" stroke="#356aa3" stroke-width="1.51"/><path d="M2113,1159L2125,1300L2153,626Z" fill="#124b8d" stroke="#124b8d" stroke-width="1.51"/><path d="M1957,753L2018,781L2020,564Z" fill="#306ba7" stroke="#306ba7" stroke-width="1.51"/><path d="M1728,-154L1997,-189L2077,-261Z" fill="#8a99c6" stroke="#8a99c6" stroke-width="1.51"/><path d="M2028,955L1905,1012L2113,1159Z" fill="#115196" stroke="#115196" stroke-width="1.51"/><path d="M2113,1159L1969,1273L2125,1300Z" fill="#093e80" stroke="#093e80" stroke-width="1.51"/><path d="M1869,1174L1969,1273L2113,1159Z" fill="#09468c" stroke="#09468c" stroke-width="1.51"/><path d="M1905,1012L1869,1174L2113,1159Z" fill="#0c4e96" stroke="#0c4e96" stroke-width="1.51"/><path d="M1911,520L2020,564L2020,361Z" fill="#4b7aaf" stroke="#4b7aaf" stroke-width="1.51"/><path d="M2083,115L1919,213L2090,209Z" fill="#6d86b5" stroke="#6d86b5" stroke-width="1.51"/><path d="M1919,213L2020,361L2090,209Z" fill="#6684b4" stroke="#6684b4" stroke-width="1.51"/><path d="M1991,-22L1878,91L2083,115Z" fill="#788dbc" stroke="#788dbc" stroke-width="1.51"/><path d="M1878,91L1919,213L2083,115Z" fill="#748cbc" stroke="#748cbc" stroke-width="1.51"/><path d="M1911,520L1816,693L1957,753Z" fill="#3774b1" stroke="#3774b1" stroke-width="1.51"/><path d="M1728,-154L1795,-128L1997,-189Z" fill="#8a9ecc" stroke="#8a9ecc" stroke-width="1.51"/><path d="M1911,520L1957,753L2020,564Z" fill="#3c73ad" stroke="#3c73ad" stroke-width="1.51"/><path d="M1919,213L1875,348L2020,361Z" fill="#6387b9" stroke="#6387b9" stroke-width="1.51"/><path d="M1875,348L1911,520L2020,361Z" fill="#5681b6" stroke="#5681b6" stroke-width="1.51"/><path d="M2018,781L1901,811L2028,955Z" fill="#2261a3" stroke="#2261a3" stroke-width="1.51"/><path d="M1901,811L1905,1012L2028,955Z" fill="#1a5ea2" stroke="#1a5ea2" stroke-width="1.51"/><path d="M1997,-189L1991,-22L2037,-101Z" fill="#8191bd" stroke="#8191bd" stroke-width="1.51"/><path d="M1795,-128L1991,-22L1997,-189Z" fill="#8497c4" stroke="#8497c4" stroke-width="1.51"/><path d="M1957,753L1901,811L2018,781Z" fill="#2868a7" stroke="#2868a7" stroke-width="1.51"/><path d="M1901,811L1838,853L1905,1012Z" fill="#1e65a9" stroke="#1e65a9" stroke-width="1.51"/><path d="M1828,1108L1869,1174L1905,1012Z" fill="#0e559f" stroke="#0e559f" stroke-width="1.51"/><path d="M1795,-128L1878,91L1991,-22Z" fill="#8096c6" stroke="#8096c6" stroke-width="1.51"/><path d="M1869,1174L1718,1318L1969,1273Z" fill="#094991" stroke="#094991" stroke-width="1.51"/><path d="M1816,693L1901,811L1957,753Z" fill="#2b6eae" stroke="#2b6eae" stroke-width="1.51"/><path d="M1795,-128L1794,122L1878,91Z" fill="#7f98c9" stroke="#7f98c9" stroke-width="1.51"/><path d="M1817,1022L1828,1108L1905,1012Z" fill="#125aa3" stroke="#125aa3" stroke-width="1.51"/><path d="M1838,853L1817,1022L1905,1012Z" fill="#1760a8" stroke="#1760a8" stroke-width="1.51"/><path d="M1744,490L1816,693L1911,520Z" fill="#437eb9" stroke="#437eb9" stroke-width="1.51"/><path d="M1875,348L1770,420L1911,520Z" fill="#5585bc" stroke="#5585bc" stroke-width="1.51"/><path d="M1770,420L1744,490L1911,520Z" fill="#5085bc" stroke="#5085bc" stroke-width="1.51"/><path d="M1731,186L1875,348L1919,213Z" fill="#6c8fc2" stroke="#6c8fc2" stroke-width="1.51"/><path d="M1794,122L1731,186L1919,213Z" fill="#7494c6" stroke="#7494c6" stroke-width="1.51"/><path d="M1878,91L1794,122L1919,213Z" fill="#7692c4" stroke="#7692c4" stroke-width="1.51"/><path d="M1816,693L1838,853L1901,811Z" fill="#296eb0" stroke="#296eb0" stroke-width="1.51"/><path d="M1731,186L1689,332L1875,348Z" fill="#6992c4" stroke="#6992c4" stroke-width="1.51"/><path d="M1689,332L1770,420L1875,348Z" fill="#608dc1" stroke="#608dc1" stroke-width="1.51"/><path d="M1828,1108L1718,1318L1869,1174Z" fill="#0c5099" stroke="#0c5099" stroke-width="1.51"/><path d="M1576,1266L1346,1325L1718,1318Z" fill="#175597" stroke="#175597" stroke-width="1.51"/><path d="M1595,-68L1570,23L1794,122Z" fill="#83a2d0" stroke="#83a2d0" stroke-width="1.51"/><path d="M1595,-68L1794,122L1795,-128Z" fill="#85a0ce" stroke="#85a0ce" stroke-width="1.51"/><path d="M1728,-154L1595,-68L1795,-128Z" fill="#8ba4d1" stroke="#8ba4d1" stroke-width="1.51"/><path d="M1744,490L1696,508L1816,693Z" fill="#4582bc" stroke="#4582bc" stroke-width="1.51"/><path d="M1698,1051L1718,1318L1828,1108Z" fill="#0f57a0" stroke="#0f57a0" stroke-width="1.51"/><path d="M1816,693L1635,741L1838,853Z" fill="#2d75b4" stroke="#2d75b4" stroke-width="1.51"/><path d="M1635,741L1599,826L1838,853Z" fill="#2b75b5" stroke="#2b75b5" stroke-width="1.51"/><path d="M1698,1051L1817,1022L1838,853Z" fill="#1963aa" stroke="#1963aa" stroke-width="1.51"/><path d="M1599,826L1698,1051L1838,853Z" fill="#216cb0" stroke="#216cb0" stroke-width="1.51"/><path d="M1696,508L1635,741L1816,693Z" fill="#3c7fbb" stroke="#3c7fbb" stroke-width="1.51"/><path d="M1817,1022L1698,1051L1828,1108Z" fill="#145ca5" stroke="#145ca5" stroke-width="1.51"/><path d="M1698,1051L1576,1266L1718,1318Z" fill="#13579d" stroke="#13579d" stroke-width="1.51"/><path d="M1221,-185L1322,-182L1463,-212Z" fill="#9cbddf" stroke="#9cbddf" stroke-width="1.51"/><path d="M1440,1274L1346,1325L1576,1266Z" fill="#1f5b9b" stroke="#1f5b9b" stroke-width="1.51"/><path d="M1582,1090L1576,1266L1698,1051Z" fill="#1660a7" stroke="#1660a7" stroke-width="1.51"/><path d="M1570,23L1731,186L1794,122Z" fill="#7d9ccc" stroke="#7d9ccc" stroke-width="1.51"/><path d="M1622,225L1689,332L1731,186Z" fill="#7098c9" stroke="#7098c9" stroke-width="1.51"/><path d="M1696,508L1744,490L1770,420Z" fill="#5289c0" stroke="#5289c0" stroke-width="1.51"/><path d="M1689,332L1696,508L1770,420Z" fill="#5a8dc2" stroke="#5a8dc2" stroke-width="1.51"/><path d="M1496,598L1635,741L1696,508Z" fill="#4287c1" stroke="#4287c1" stroke-width="1.51"/><path d="M1570,23L1622,225L1731,186Z" fill="#7c9fce" stroke="#7c9fce" stroke-width="1.51"/><path d="M1599,826L1582,1090L1698,1051Z" fill="#1e6ab0" stroke="#1e6ab0" stroke-width="1.51"/><path d="M1569,-239L1595,-68L1728,-154Z" fill="#8faad5" stroke="#8faad5" stroke-width="1.51"/><path d="M1689,332L1445,328L1696,508Z" fill="#6196c8" stroke="#6196c8" stroke-width="1.51"/><path d="M1525,258L1445,328L1689,332Z" fill="#6d9ecc" stroke="#6d9ecc" stroke-width="1.51"/><path d="M1445,328L1496,598L1696,508Z" fill="#5694c8" stroke="#5694c8" stroke-width="1.51"/><path d="M1424,983L1582,1090L1599,826Z" fill="#2371b4" stroke="#2371b4" stroke-width="1.51"/><path d="M1570,23L1486,130L1622,225Z" fill="#7fa4d2" stroke="#7fa4d2" stroke-width="1.51"/><path d="M1622,225L1525,258L1689,332Z" fill="#6f9bcb" stroke="#6f9bcb" stroke-width="1.51"/><path d="M1445,328L1384,497L1496,598Z" fill="#5a9acb" stroke="#5a9acb" stroke-width="1.51"/><path d="M1424,983L1512,1095L1582,1090Z" fill="#206cb0" stroke="#206cb0" stroke-width="1.51"/><path d="M1512,1095L1576,1266L1582,1090Z" fill="#1861a9" stroke="#1861a9" stroke-width="1.51"/><path d="M1569,-239L1534,-86L1595,-68Z" fill="#8fadd7" stroke="#8fadd7" stroke-width="1.51"/><path d="M1510,815L1424,983L1599,826Z" fill="#2c79ba" stroke="#2c79ba" stroke-width="1.51"/><path d="M1486,130L1525,258L1622,225Z" fill="#78a2d0" stroke="#78a2d0" stroke-width="1.51"/><path d="M1424,669L1510,815L1635,741Z" fill="#3684bf" stroke="#3684bf" stroke-width="1.51"/><path d="M1496,598L1424,669L1635,741Z" fill="#3f88c2" stroke="#3f88c2" stroke-width="1.51"/><path d="M1510,815L1599,826L1635,741Z" fill="#2f7cbb" stroke="#2f7cbb" stroke-width="1.51"/><path d="M1235,1286L1041,1283L1346,1325Z" fill="#2f67a1" stroke="#2f67a1" stroke-width="1.51"/><path d="M1463,-212L1534,-86L1569,-239Z" fill="#94b2d9" stroke="#94b2d9" stroke-width="1.51"/><path d="M1512,1095L1440,1274L1576,1266Z" fill="#1b5fa3" stroke="#1b5fa3" stroke-width="1.51"/><path d="M1534,-86L1570,23L1595,-68Z" fill="#8aaad5" stroke="#8aaad5" stroke-width="1.51"/><path d="M1534,-86L1486,130L1570,23Z" fill="#87aad5" stroke="#87aad5" stroke-width="1.51"/><path d="M1463,-212L1322,-182L1534,-86Z" fill="#96b6db" stroke="#96b6db" stroke-width="1.51"/><path d="M1322,-182L1283,-77L1534,-86Z" fill="#95b8dc" stroke="#95b8dc" stroke-width="1.51"/><path d="M1283,-77L1486,130L1534,-86Z" fill="#8db1d8" stroke="#8db1d8" stroke-width="1.51"/><path d="M1283,-77L1289,142L1486,130Z" fill="#8bb3d9" stroke="#8bb3d9" stroke-width="1.51"/><path d="M1424,669L1341,756L1510,815Z" fill="#3a89c2" stroke="#3a89c2" stroke-width="1.51"/><path d="M1313,1101L1440,1274L1512,1095Z" fill="#2268ac" stroke="#2268ac" stroke-width="1.51"/><path d="M1486,130L1321,200L1525,258Z" fill="#7da8d3" stroke="#7da8d3" stroke-width="1.51"/><path d="M1321,200L1445,328L1525,258Z" fill="#76a6d1" stroke="#76a6d1" stroke-width="1.51"/><path d="M1335,403L1384,497L1445,328Z" fill="#66a1ce" stroke="#66a1ce" stroke-width="1.51"/><path d="M1299,808L1424,983L1510,815Z" fill="#327fbd" stroke="#327fbd" stroke-width="1.51"/><path d="M1341,756L1299,808L1510,815Z" fill="#3987c1" stroke="#3987c1" stroke-width="1.51"/><path d="M1424,983L1313,1101L1512,1095Z" fill="#2670b2" stroke="#2670b2" stroke-width="1.51"/><path d="M1384,497L1424,669L1496,598Z" fill="#4c93c7" stroke="#4c93c7" stroke-width="1.51"/><path d="M1289,142L1321,200L1486,130Z" fill="#83aed7" stroke="#83aed7" stroke-width="1.51"/><path d="M1300,1054L1313,1101L1424,983Z" fill="#2b75b5" stroke="#2b75b5" stroke-width="1.51"/><path d="M1313,1101L1346,1325L1440,1274Z" fill="#2565a5" stroke="#2565a5" stroke-width="1.51"/><path d="M1321,200L1335,403L1445,328Z" fill="#73a8d2" stroke="#73a8d2" stroke-width="1.51"/><path d="M1313,1101L1235,1286L1346,1325Z" fill="#2968a6" stroke="#2968a6" stroke-width="1.51"/><path d="M1159,504L1162,706L1384,497Z" fill="#579fcd" stroke="#579fcd" stroke-width="1.51"/><path d="M1384,497L1162,706L1424,669Z" fill="#4c96c8" stroke="#4c96c8" stroke-width="1.51"/><path d="M1162,706L1341,756L1424,669Z" fill="#4492c6" stroke="#4492c6" stroke-width="1.51"/><path d="M1299,808L1300,1054L1424,983Z" fill="#2f7dbb" stroke="#2f7dbb" stroke-width="1.51"/><path d="M1283,-77L1185,51L1289,142Z" fill="#90badc" stroke="#90badc" stroke-width="1.51"/><path d="M1196,1178L1235,1286L1313,1101Z" fill="#2d6fae" stroke="#2d6fae" stroke-width="1.51"/><path d="M1321,200L1197,286L1335,403Z" fill="#77add5" stroke="#77add5" stroke-width="1.51"/><path d="M1335,403L1159,504L1384,497Z" fill="#61a3cf" stroke="#61a3cf" stroke-width="1.51"/><path d="M1238,783L1128,988L1299,808Z" fill="#3e8bc3" stroke="#3e8bc3" stroke-width="1.51"/><path d="M1299,808L1128,988L1300,1054Z" fill="#3682be" stroke="#3682be" stroke-width="1.51"/><path d="M1197,286L1178,373L1335,403Z" fill="#73add4" stroke="#73add4" stroke-width="1.51"/><path d="M1178,373L1159,504L1335,403Z" fill="#6aa9d2" stroke="#6aa9d2" stroke-width="1.51"/><path d="M1162,706L1238,783L1341,756Z" fill="#4392c6" stroke="#4392c6" stroke-width="1.51"/><path d="M1175,-18L1185,51L1283,-77Z" fill="#96bddf" stroke="#96bddf" stroke-width="1.51"/><path d="M1238,783L1299,808L1341,756Z" fill="#3e8dc4" stroke="#3e8dc4" stroke-width="1.51"/><path d="M1221,-185L1283,-77L1322,-182Z" fill="#9bbfe0" stroke="#9bbfe0" stroke-width="1.51"/><path d="M1289,142L1197,286L1321,200Z" fill="#81b2d7" stroke="#81b2d7" stroke-width="1.51"/><path d="M1300,1054L1196,1178L1313,1101Z" fill="#2d74b3" stroke="#2d74b3" stroke-width="1.51"/><path d="M1128,988L1196,1178L1300,1054Z" fill="#347ab7" stroke="#347ab7" stroke-width="1.51"/><path d="M1185,51L1197,286L1289,142Z" fill="#89b6db" stroke="#89b6db" stroke-width="1.51"/><path d="M1221,-185L1175,-18L1283,-77Z" fill="#9ac0e0" stroke="#9ac0e0" stroke-width="1.51"/><path d="M1128,988L1077,1045L1196,1178Z" fill="#3b7eba" stroke="#3b7eba" stroke-width="1.51"/><path d="M1185,51L967,184L1197,286Z" fill="#8ebbdd" stroke="#8ebbdd" stroke-width="1.51"/><path d="M1094,-58L1175,-18L1221,-185Z" fill="#9dc3e1" stroke="#9dc3e1" stroke-width="1.51"/><path d="M1196,1178L1041,1283L1235,1286Z" fill="#336da8" stroke="#336da8" stroke-width="1.51"/><path d="M1162,706L1029,794L1238,783Z" fill="#4a96c9" stroke="#4a96c9" stroke-width="1.51"/><path d="M1029,794L1128,988L1238,783Z" fill="#458fc5" stroke="#458fc5" stroke-width="1.51"/><path d="M1159,504L1075,507L1162,706Z" fill="#5da4d0" stroke="#5da4d0" stroke-width="1.51"/><path d="M1009,-202L1094,-58L1221,-185Z" fill="#a4c7e4" stroke="#a4c7e4" stroke-width="1.51"/><path d="M1075,507L1159,504L1178,373Z" fill="#6babd4" stroke="#6babd4" stroke-width="1.51"/><path d="M989,55L967,184L1185,51Z" fill="#98c1e1" stroke="#98c1e1" stroke-width="1.51"/><path d="M1077,1045L969,1124L1196,1178Z" fill="#3d7cb8" stroke="#3d7cb8" stroke-width="1.51"/><path d="M1017,416L1178,373L1197,286Z" fill="#79b2d7" stroke="#79b2d7" stroke-width="1.51"/><path d="M967,184L1017,416L1197,286Z" fill="#84b9db" stroke="#84b9db" stroke-width="1.51"/><path d="M969,1124L1041,1283L1196,1178Z" fill="#3c76b1" stroke="#3c76b1" stroke-width="1.51"/><path d="M1075,507L976,714L1162,706Z" fill="#5ba2cf" stroke="#5ba2cf" stroke-width="1.51"/><path d="M1017,416L1075,507L1178,373Z" fill="#72afd6" stroke="#72afd6" stroke-width="1.51"/><path d="M1175,-18L1094,-58L1185,51Z" fill="#99c0e0" stroke="#99c0e0" stroke-width="1.51"/><path d="M1094,-58L989,55L1185,51Z" fill="#9bc2e1" stroke="#9bc2e1" stroke-width="1.51"/><path d="M976,714L1029,794L1162,706Z" fill="#529ccc" stroke="#529ccc" stroke-width="1.51"/><path d="M884,884L1077,1045L1128,988Z" fill="#468ac3" stroke="#468ac3" stroke-width="1.51"/><path d="M1029,794L884,884L1128,988Z" fill="#4b92c7" stroke="#4b92c7" stroke-width="1.51"/><path d="M967,184L870,248L1017,416Z" fill="#8cbedd" stroke="#8cbedd" stroke-width="1.51"/><path d="M908,535L976,714L1075,507Z" fill="#66aad3" stroke="#66aad3" stroke-width="1.51"/><path d="M884,884L900,1073L1077,1045Z" fill="#4b8bc3" stroke="#4b8bc3" stroke-width="1.51"/><path d="M1009,-202L892,-23L1094,-58Z" fill="#a6cbe6" stroke="#a6cbe6" stroke-width="1.51"/><path d="M892,-23L989,55L1094,-58Z" fill="#a2c8e4" stroke="#a2c8e4" stroke-width="1.51"/><path d="M688,-276L823,-161L1009,-202Z" fill="#b9d7eb" stroke="#b9d7eb" stroke-width="1.51"/><path d="M900,1073L969,1124L1077,1045Z" fill="#4683bd" stroke="#4683bd" stroke-width="1.51"/><path d="M1017,416L908,535L1075,507Z" fill="#70afd7" stroke="#70afd7" stroke-width="1.51"/><path d="M908,535L893,701L976,714Z" fill="#64a8d2" stroke="#64a8d2" stroke-width="1.51"/><path d="M969,1124L893,1286L1041,1283Z" fill="#4277b0" stroke="#4277b0" stroke-width="1.51"/><path d="M823,-161L892,-23L1009,-202Z" fill="#afd1e9" stroke="#afd1e9" stroke-width="1.51"/><path d="M870,248L837,438L1017,416Z" fill="#86bcdc" stroke="#86bcdc" stroke-width="1.51"/><path d="M976,714L884,884L1029,794Z" fill="#559ccc" stroke="#559ccc" stroke-width="1.51"/><path d="M893,701L884,884L976,714Z" fill="#5ba0ce" stroke="#5ba0ce" stroke-width="1.51"/><path d="M837,438L908,535L1017,416Z" fill="#79b5d9" stroke="#79b5d9" stroke-width="1.51"/><path d="M840,115L967,184L989,55Z" fill="#9ec6e3" stroke="#9ec6e3" stroke-width="1.51"/><path d="M884,884L818,1014L900,1073Z" fill="#5490c5" stroke="#5490c5" stroke-width="1.51"/><path d="M892,-23L840,115L989,55Z" fill="#a4cae5" stroke="#a4cae5" stroke-width="1.51"/><path d="M900,1073L893,1286L969,1124Z" fill="#4980b9" stroke="#4980b9" stroke-width="1.51"/><path d="M840,115L870,248L967,184Z" fill="#9bc5e2" stroke="#9bc5e2" stroke-width="1.51"/><path d="M-106,-232L92,-222L297,-259Z" fill="#e6f0fa" stroke="#e6f0fa" stroke-width="1.51"/><path d="M775,262L837,438L870,248Z" fill="#93c2df" stroke="#93c2df" stroke-width="1.51"/><path d="M773,681L729,875L884,884Z" fill="#64a2ce" stroke="#64a2ce" stroke-width="1.51"/><path d="M773,681L884,884L893,701Z" fill="#63a4d0" stroke="#63a4d0" stroke-width="1.51"/><path d="M803,1031L730,1073L900,1073Z" fill="#578cc2" stroke="#578cc2" stroke-width="1.51"/><path d="M730,1073L755,1276L900,1073Z" fill="#5686bd" stroke="#5686bd" stroke-width="1.51"/><path d="M755,1276L893,1286L900,1073Z" fill="#4f7eb4" stroke="#4f7eb4" stroke-width="1.51"/><path d="M837,438L689,477L908,535Z" fill="#80b9da" stroke="#80b9da" stroke-width="1.51"/><path d="M689,477L773,681L908,535Z" fill="#79b4d8" stroke="#79b4d8" stroke-width="1.51"/><path d="M773,681L893,701L908,535Z" fill="#6cabd4" stroke="#6cabd4" stroke-width="1.51"/><path d="M704,41L840,115L892,-23Z" fill="#accee6" stroke="#accee6" stroke-width="1.51"/><path d="M818,1014L803,1031L900,1073Z" fill="#558dc2" stroke="#558dc2" stroke-width="1.51"/><path d="M840,115L775,262L870,248Z" fill="#9dc7e2" stroke="#9dc7e2" stroke-width="1.51"/><path d="M729,875L818,1014L884,884Z" fill="#5d98ca" stroke="#5d98ca" stroke-width="1.51"/><path d="M823,-161L719,-128L892,-23Z" fill="#b4d4e9" stroke="#b4d4e9" stroke-width="1.51"/><path d="M719,-128L704,41L892,-23Z" fill="#b3d3e9" stroke="#b3d3e9" stroke-width="1.51"/><path d="M775,262L687,330L837,438Z" fill="#95c4df" stroke="#95c4df" stroke-width="1.51"/><path d="M687,330L689,477L837,438Z" fill="#8fc1de" stroke="#8fc1de" stroke-width="1.51"/><path d="M704,41L775,262L840,115Z" fill="#a9cce5" stroke="#a9cce5" stroke-width="1.51"/><path d="M688,-276L719,-128L823,-161Z" fill="#bfdaec" stroke="#bfdaec" stroke-width="1.51"/><path d="M27,1271L-232,1309L291,1319Z" fill="#7f8eb8" stroke="#7f8eb8" stroke-width="1.51"/><path d="M729,875L651,992L803,1031Z" fill="#6298c9" stroke="#6298c9" stroke-width="1.51"/><path d="M729,875L803,1031L818,1014Z" fill="#5d95c8" stroke="#5d95c8" stroke-width="1.51"/><path d="M609,790L729,875L773,681Z" fill="#6ea8d1" stroke="#6ea8d1" stroke-width="1.51"/><path d="M704,41L583,228L775,262Z" fill="#accfe6" stroke="#accfe6" stroke-width="1.51"/><path d="M651,992L730,1073L803,1031Z" fill="#6092c5" stroke="#6092c5" stroke-width="1.51"/><path d="M730,1073L585,1281L755,1276Z" fill="#5e85b8" stroke="#5e85b8" stroke-width="1.51"/><path d="M689,477L604,700L773,681Z" fill="#7cb5d8" stroke="#7cb5d8" stroke-width="1.51"/><path d="M604,700L609,790L773,681Z" fill="#76afd5" stroke="#76afd5" stroke-width="1.51"/><path d="M583,228L687,330L775,262Z" fill="#a3cbe2" stroke="#a3cbe2" stroke-width="1.51"/><path d="M527,547L604,700L689,477Z" fill="#87bbdb" stroke="#87bbdb" stroke-width="1.51"/><path d="M578,58L583,228L704,41Z" fill="#b6d4e9" stroke="#b6d4e9" stroke-width="1.51"/><path d="M530,1112L585,1281L730,1073Z" fill="#668dbf" stroke="#668dbf" stroke-width="1.51"/><path d="M688,-276L596,-272L719,-128Z" fill="#c7dfef" stroke="#c7dfef" stroke-width="1.51"/><path d="M552,-5L704,41L719,-128Z" fill="#bbd8eb" stroke="#bbd8eb" stroke-width="1.51"/><path d="M609,790L651,992L729,875Z" fill="#6da2ce" stroke="#6da2ce" stroke-width="1.51"/><path d="M651,992L530,1112L730,1073Z" fill="#6793c5" stroke="#6793c5" stroke-width="1.51"/><path d="M687,330L568,366L689,477Z" fill="#99c6e0" stroke="#99c6e0" stroke-width="1.51"/><path d="M596,-272L552,-5L719,-128Z" fill="#c4ddee" stroke="#c4ddee" stroke-width="1.51"/><path d="M552,-5L578,58L704,41Z" fill="#bbd7eb" stroke="#bbd7eb" stroke-width="1.51"/><path d="M431,-118L552,-5L596,-272Z" fill="#cae0f0" stroke="#cae0f0" stroke-width="1.51"/><path d="M609,790L490,864L651,992Z" fill="#73a4d0" stroke="#73a4d0" stroke-width="1.51"/><path d="M583,228L568,366L687,330Z" fill="#a4cce3" stroke="#a4cce3" stroke-width="1.51"/><path d="M568,366L527,547L689,477Z" fill="#93c3df" stroke="#93c3df" stroke-width="1.51"/><path d="M527,547L490,646L604,700Z" fill="#87b9db" stroke="#87b9db" stroke-width="1.51"/><path d="M490,864L530,1112L651,992Z" fill="#709ccc" stroke="#709ccc" stroke-width="1.51"/><path d="M490,864L403,1050L530,1112Z" fill="#759ccc" stroke="#759ccc" stroke-width="1.51"/><path d="M578,58L419,127L583,228Z" fill="#bad6ea" stroke="#bad6ea" stroke-width="1.51"/><path d="M443,271L568,366L583,228Z" fill="#abd0e5" stroke="#abd0e5" stroke-width="1.51"/><path d="M530,1112L469,1294L585,1281Z" fill="#6987b9" stroke="#6987b9" stroke-width="1.51"/><path d="M604,700L490,646L609,790Z" fill="#7fb3d7" stroke="#7fb3d7" stroke-width="1.51"/><path d="M490,646L490,864L609,790Z" fill="#7dafd6" stroke="#7dafd6" stroke-width="1.51"/><path d="M394,-151L431,-118L596,-272Z" fill="#d1e4f2" stroke="#d1e4f2" stroke-width="1.51"/><path d="M430,359L527,547L568,366Z" fill="#9ec8e2" stroke="#9ec8e2" stroke-width="1.51"/><path d="M297,-259L394,-151L596,-272Z" fill="#d7e7f5" stroke="#d7e7f5" stroke-width="1.51"/><path d="M430,359L450,554L527,547Z" fill="#9ac5e2" stroke="#9ac5e2" stroke-width="1.51"/><path d="M419,127L443,271L583,228Z" fill="#b7d4e9" stroke="#b7d4e9" stroke-width="1.51"/><path d="M391,1166L469,1294L530,1112Z" fill="#6f8dbf" stroke="#6f8dbf" stroke-width="1.51"/><path d="M443,271L430,359L568,366Z" fill="#aacfe5" stroke="#aacfe5" stroke-width="1.51"/><path d="M552,-5L419,127L578,58Z" fill="#c0d9ed" stroke="#c0d9ed" stroke-width="1.51"/><path d="M431,-118L419,127L552,-5Z" fill="#c7ddef" stroke="#c7ddef" stroke-width="1.51"/><path d="M490,646L293,856L490,864Z" fill="#84b0d8" stroke="#84b0d8" stroke-width="1.51"/><path d="M450,554L490,646L527,547Z" fill="#8ebede" stroke="#8ebede" stroke-width="1.51"/><path d="M403,1050L391,1166L530,1112Z" fill="#7495c6" stroke="#7495c6" stroke-width="1.51"/><path d="M319,958L403,1050L490,864Z" fill="#7ca3d1" stroke="#7ca3d1" stroke-width="1.51"/><path d="M316,-106L419,127L431,-118Z" fill="#cee0f2" stroke="#cee0f2" stroke-width="1.51"/><path d="M430,359L297,384L450,554Z" fill="#a5cbe4" stroke="#a5cbe4" stroke-width="1.51"/><path d="M450,554L225,717L490,646Z" fill="#91bcde" stroke="#91bcde" stroke-width="1.51"/><path d="M225,717L293,856L490,646Z" fill="#8cb7dc" stroke="#8cb7dc" stroke-width="1.51"/><path d="M293,856L319,958L490,864Z" fill="#82a9d5" stroke="#82a9d5" stroke-width="1.51"/><path d="M419,127L342,268L443,271Z" fill="#bbd6eb" stroke="#bbd6eb" stroke-width="1.51"/><path d="M297,384L253,476L450,554Z" fill="#a4c9e5" stroke="#a4c9e5" stroke-width="1.51"/><path d="M391,1166L291,1319L469,1294Z" fill="#7289b8" stroke="#7289b8" stroke-width="1.51"/><path d="M316,-106L277,144L419,127Z" fill="#cbdef1" stroke="#cbdef1" stroke-width="1.51"/><path d="M342,268L430,359L443,271Z" fill="#b3d3e8" stroke="#b3d3e8" stroke-width="1.51"/><path d="M253,476L188,568L450,554Z" fill="#9ec6e4" stroke="#9ec6e4" stroke-width="1.51"/><path d="M188,568L225,717L450,554Z" fill="#98c1e1" stroke="#98c1e1" stroke-width="1.51"/><path d="M193,1275L27,1271L291,1319Z" fill="#7a8bb7" stroke="#7a8bb7" stroke-width="1.51"/><path d="M321,1105L391,1166L403,1050Z" fill="#7997c8" stroke="#7997c8" stroke-width="1.51"/><path d="M277,144L342,268L419,127Z" fill="#c2d9ed" stroke="#c2d9ed" stroke-width="1.51"/><path d="M342,268L297,384L430,359Z" fill="#b2d2e8" stroke="#b2d2e8" stroke-width="1.51"/><path d="M394,-151L316,-106L431,-118Z" fill="#d4e4f4" stroke="#d4e4f4" stroke-width="1.51"/><path d="M175,81L277,144L316,-106Z" fill="#cfe1f2" stroke="#cfe1f2" stroke-width="1.51"/><path d="M319,958L321,1105L403,1050Z" fill="#7d9ecd" stroke="#7d9ecd" stroke-width="1.51"/><path d="M188,568L182,665L225,717Z" fill="#99c1e0" stroke="#99c1e0" stroke-width="1.51"/><path d="M321,1105L291,1319L391,1166Z" fill="#7790c1" stroke="#7790c1" stroke-width="1.51"/><path d="M297,-259L316,-106L394,-151Z" fill="#d9e7f6" stroke="#d9e7f6" stroke-width="1.51"/><path d="M193,1275L291,1319L321,1105Z" fill="#788ebd" stroke="#788ebd" stroke-width="1.51"/><path d="M186,-116L175,81L316,-106Z" fill="#d6e5f5" stroke="#d6e5f5" stroke-width="1.51"/><path d="M297,-259L186,-116L316,-106Z" fill="#dbe8f6" stroke="#dbe8f6" stroke-width="1.51"/><path d="M199,172L297,384L342,268Z" fill="#bbd7eb" stroke="#bbd7eb" stroke-width="1.51"/><path d="M277,144L199,172L342,268Z" fill="#c3daed" stroke="#c3daed" stroke-width="1.51"/><path d="M199,172L168,434L297,384Z" fill="#b8d6ea" stroke="#b8d6ea" stroke-width="1.51"/><path d="M81,1158L193,1275L321,1105Z" fill="#7e95c5" stroke="#7e95c5" stroke-width="1.51"/><path d="M319,958L69,1026L321,1105Z" fill="#82a1cf" stroke="#82a1cf" stroke-width="1.51"/><path d="M69,1026L81,1158L321,1105Z" fill="#839dcc" stroke="#839dcc" stroke-width="1.51"/><path d="M293,856L69,1026L319,958Z" fill="#86a8d4" stroke="#86a8d4" stroke-width="1.51"/><path d="M225,717L76,772L293,856Z" fill="#8fb7db" stroke="#8fb7db" stroke-width="1.51"/><path d="M76,772L69,1026L293,856Z" fill="#8cafd8" stroke="#8cafd8" stroke-width="1.51"/><path d="M92,-222L186,-116L297,-259Z" fill="#e1ecf7" stroke="#e1ecf7" stroke-width="1.51"/><path d="M168,434L253,476L297,384Z" fill="#adcfe7" stroke="#adcfe7" stroke-width="1.51"/><path d="M16,287L168,434L199,172Z" fill="#bfdaec" stroke="#bfdaec" stroke-width="1.51"/><path d="M175,81L199,172L277,144Z" fill="#cbdff1" stroke="#cbdff1" stroke-width="1.51"/><path d="M168,434L188,568L253,476Z" fill="#a7cbe6" stroke="#a7cbe6" stroke-width="1.51"/><path d="M-106,-232L48,-209L92,-222Z" fill="#e9f2fa" stroke="#e9f2fa" stroke-width="1.51"/><path d="M0,-58L175,81L186,-116Z" fill="#d9e7f5" stroke="#d9e7f5" stroke-width="1.51"/><path d="M182,665L76,772L225,717Z" fill="#95bdde" stroke="#95bdde" stroke-width="1.51"/><path d="M-35,870L69,1026L76,772Z" fill="#91b2d9" stroke="#91b2d9" stroke-width="1.51"/><path d="M168,434L49,531L188,568Z" fill="#a8cce7" stroke="#a8cce7" stroke-width="1.51"/><path d="M81,1158L27,1271L193,1275Z" fill="#7f92bf" stroke="#7f92bf" stroke-width="1.51"/><path d="M175,81L16,287L199,172Z" fill="#cadff0" stroke="#cadff0" stroke-width="1.51"/><path d="M-57,68L16,287L175,81Z" fill="#d1e3f3" stroke="#d1e3f3" stroke-width="1.51"/><path d="M49,531L182,665L188,568Z" fill="#a0c7e4" stroke="#a0c7e4" stroke-width="1.51"/><path d="M49,531L1,691L182,665Z" fill="#a0c5e3" stroke="#a0c5e3" stroke-width="1.51"/><path d="M92,-222L48,-209L186,-116Z" fill="#e3edf9" stroke="#e3edf9" stroke-width="1.51"/><path d="M48,-209L0,-58L186,-116Z" fill="#e1ecf8" stroke="#e1ecf8" stroke-width="1.51"/><path d="M1,691L76,772L182,665Z" fill="#99c0e0" stroke="#99c0e0" stroke-width="1.51"/><path d="M16,287L-36,427L168,434Z" fill="#bad7ea" stroke="#bad7ea" stroke-width="1.51"/><path d="M0,-58L-57,68L175,81Z" fill="#d9e7f5" stroke="#d9e7f5" stroke-width="1.51"/><path d="M-36,427L49,531L168,434Z" fill="#b0d1e9" stroke="#b0d1e9" stroke-width="1.51"/><path d="M-57,68L-119,119L16,287Z" fill="#d4e4f4" stroke="#d4e4f4" stroke-width="1.51"/><path d="M-35,870L-50,985L69,1026Z" fill="#8facd7" stroke="#8facd7" stroke-width="1.51"/><path d="M69,1026L-34,1141L81,1158Z" fill="#879fcd" stroke="#879fcd" stroke-width="1.51"/><path d="M-34,1141L27,1271L81,1158Z" fill="#8498c6" stroke="#8498c6" stroke-width="1.51"/><path d="M1,691L-35,870L76,772Z" fill="#98bcde" stroke="#98bcde" stroke-width="1.51"/><path d="M-50,985L-34,1141L69,1026Z" fill="#8ba5d1" stroke="#8ba5d1" stroke-width="1.51"/><path d="M-118,827L-35,870L1,691Z" fill="#99bcde" stroke="#99bcde" stroke-width="1.51"/><path d="M-106,-232L0,-58L48,-209Z" fill="#e7f0fa" stroke="#e7f0fa" stroke-width="1.51"/><path d="M-133,491L1,691L49,531Z" fill="#a9cce7" stroke="#a9cce7" stroke-width="1.51"/><path d="M-36,427L-133,491L49,531Z" fill="#b2d3ea" stroke="#b2d3ea" stroke-width="1.51"/><path d="M-133,491L-188,663L1,691Z" fill="#a9cbe6" stroke="#a9cbe6" stroke-width="1.51"/><path d="M-119,119L-180,251L16,287Z" fill="#d0e3f2" stroke="#d0e3f2" stroke-width="1.51"/><path d="M-34,1141L-180,1195L27,1271Z" fill="#8899c5" stroke="#8899c5" stroke-width="1.51"/><path d="M-180,1195L-232,1309L27,1271Z" fill="#8895bf" stroke="#8895bf" stroke-width="1.51"/><path d="M-180,251L-36,427L16,287Z" fill="#c5deee" stroke="#c5deee" stroke-width="1.51"/><path d="M-180,251L-170,423L-36,427Z" fill="#c3dded" stroke="#c3dded" stroke-width="1.51"/><path d="M-223,-2L-57,68L0,-58Z" fill="#e0ecf8" stroke="#e0ecf8" stroke-width="1.51"/><path d="M-106,-232L-223,-2L0,-58Z" fill="#e6f0fa" stroke="#e6f0fa" stroke-width="1.51"/><path d="M-188,663L-118,827L1,691Z" fill="#a0c3e1" stroke="#a0c3e1" stroke-width="1.51"/><path d="M-202,935L-180,1195L-50,985Z" fill="#92a9d4" stroke="#92a9d4" stroke-width="1.51"/><path d="M-202,935L-50,985L-35,870Z" fill="#95b2d9" stroke="#95b2d9" stroke-width="1.51"/><path d="M-118,827L-202,935L-35,870Z" fill="#98b6dc" stroke="#98b6dc" stroke-width="1.51"/><path d="M-50,985L-180,1195L-34,1141Z" fill="#8da2ce" stroke="#8da2ce" stroke-width="1.51"/><path d="M-170,423L-133,491L-36,427Z" fill="#b9d7eb" stroke="#b9d7eb" stroke-width="1.51"/><path d="M-223,-2L-119,119L-57,68Z" fill="#deeaf7" stroke="#deeaf7" stroke-width="1.51"/><path d="M-188,663L-202,935L-118,827Z" fill="#9ebedf" stroke="#9ebedf" stroke-width="1.51"/><path d="M-223,-2L-180,251L-119,119Z" fill="#dde9f6" stroke="#dde9f6" stroke-width="1.51"/><path d="M-170,423L-188,663L-133,491Z" fill="#b3d3ea" stroke="#b3d3ea" stroke-width="1.51"/><path d="M-202,935L-232,1309L-180,1195Z" fill="#90a1cd" stroke="#90a1cd" stroke-width="1.51"/><path d="M-180,251L-188,663L-170,423Z" fill="#bcd9ec" stroke="#bcd9ec" stroke-width="1.51"/><path d="M-223,-2L-188,663L-180,251Z" fill="#cce2f0" stroke="#cce2f0" stroke-width="1.51"/><path d="M-223,-2L-202,935L-188,663Z" fill="#b4d3ea" stroke="#b4d3ea" stroke-width="1.51"/><path d="M-223,-2L-232,1309L-202,935Z" fill="#a3c5e2" stroke="#a3c5e2" stroke-width="1.51"/></svg>